<?xml version="1.0" encoding="UTF-8" standalone="no"?>
<!DOCTYPE svg PUBLIC "-//W3C//DTD SVG 20010904//EN"
              "http://www.w3.org/TR/2001/REC-SVG-20010904/DTD/svg10.dtd">

<svg xmlns="http://www.w3.org/2000/svg"
     width="28.7867mm" height="28.3634mm"
     viewBox="0 0 340 335">
  <path id="Selection #16"
        fill="none" stroke="black" stroke-width="1"
        d="M 271.00,67.00
           C 279.55,77.33 297.93,86.41 311.00,89.34
             311.00,89.34 330.00,92.00 330.00,92.00
             330.00,92.00 313.00,50.00 313.00,50.00
             313.00,50.00 271.00,67.00 271.00,67.00 Z" />
  <path id="Selection #15"
        fill="none" stroke="black" stroke-width="1"
        d="M 330.00,10.00
           C 330.00,10.00 315.16,47.00 315.16,47.00
             315.16,47.00 318.60,59.00 318.60,59.00
             318.60,59.00 330.00,87.00 330.00,87.00
             330.00,87.00 331.00,66.00 331.00,66.00
             331.00,66.00 331.00,28.00 331.00,28.00
             331.00,28.00 330.00,10.00 330.00,10.00 Z" />
  <path id="Selection #14"
        fill="none" stroke="black" stroke-width="1"
        d="M 271.00,65.00
           C 271.00,65.00 300.00,53.28 300.00,53.28
             300.00,53.28 312.35,47.35 312.35,47.35
             312.35,47.35 317.85,36.00 317.85,36.00
             317.85,36.00 329.00,7.00 329.00,7.00
             329.00,7.00 302.00,17.40 302.00,17.40
             302.00,17.40 288.70,23.70 288.70,23.70
             288.70,23.70 282.85,36.00 282.85,36.00
             282.85,36.00 271.00,65.00 271.00,65.00 Z" />
  <path id="Selection #13"
        fill="none" stroke="black" stroke-width="1"
        d="M 245.00,6.00
           C 245.00,23.61 249.61,39.32 259.52,54.00
             259.52,54.00 268.00,65.00 268.00,65.00
             268.00,65.00 275.15,51.00 275.15,51.00
             275.15,51.00 286.00,23.00 286.00,23.00
             286.00,23.00 245.00,6.00 245.00,6.00 Z" />
  <path id="Selection #12"
        fill="none" stroke="black" stroke-width="1"
        d="M 249.00,5.00
           C 249.00,5.00 276.00,16.99 276.00,16.99
             276.00,16.99 288.00,21.01 288.00,21.01
             288.00,21.01 300.00,16.60 300.00,16.60
             300.00,16.60 326.00,6.00 326.00,6.00
             326.00,6.00 302.00,5.00 302.00,5.00
             302.00,5.00 249.00,5.00 249.00,5.00 Z" />
  <path id="Selection #11"
        fill="none" stroke="black" stroke-width="1"
        d="M 12.00,5.00
           C 18.00,10.99 32.54,15.92 41.00,16.83
             47.15,17.49 48.95,16.28 56.00,18.00
             52.82,29.18 56.52,41.59 69.00,44.37
             71.50,45.05 75.55,45.25 77.95,44.37
             84.88,41.41 80.87,34.69 86.64,27.04
             92.32,19.50 99.94,19.98 108.00,18.00
             108.00,18.00 110.28,36.00 110.28,36.00
             110.28,36.00 114.89,62.00 114.89,62.00
             121.14,86.97 131.84,106.76 146.00,128.00
             153.61,122.07 163.48,106.64 168.42,98.00
             181.50,75.15 192.96,42.54 193.00,16.00
             193.00,16.00 193.00,5.00 193.00,5.00
             193.00,5.00 12.00,5.00 12.00,5.00 Z" />
  <path id="Selection #10"
        fill="none" stroke="black" stroke-width="1"
        d="M 12.00,8.00
           C 12.00,8.00 20.25,27.00 20.25,27.00
             23.13,36.00 23.00,40.86 23.00,50.00
             34.34,47.24 44.72,51.87 49.24,63.00
             50.47,66.03 51.44,69.82 50.26,73.00
             46.75,82.43 37.58,79.48 31.21,84.14
             25.47,88.34 25.16,97.54 24.00,104.00
             52.29,104.00 81.13,111.86 106.00,125.31
             106.00,125.31 125.00,136.67 125.00,136.67
             128.95,139.26 131.42,141.73 135.99,138.84
             140.05,136.26 145.48,131.14 143.14,126.00
             143.14,126.00 124.31,93.00 124.31,93.00
             113.84,70.19 108.15,45.04 107.00,20.00
             100.41,21.61 92.55,21.20 87.85,27.21
             83.36,32.96 86.43,40.35 78.96,45.26
             70.83,50.61 57.63,42.12 54.11,32.00
             52.66,27.85 53.00,23.33 53.00,19.00
             42.88,19.00 36.69,18.61 27.00,14.94
             27.00,14.94 12.00,8.00 12.00,8.00 Z" />
  <path id="Selection #9"
        fill="none" stroke="black" stroke-width="1"
        d="M 9.00,8.00
           C 9.00,8.00 9.00,190.00 9.00,190.00
             42.64,190.00 75.14,180.91 104.00,163.60
             111.63,159.02 127.17,149.73 131.00,142.00
             106.96,125.97 88.33,116.41 60.00,109.89
             60.00,109.89 22.00,104.00 22.00,104.00
             23.99,95.90 23.46,88.55 31.09,82.80
             38.06,77.55 44.49,80.83 48.03,74.89
             49.41,72.08 49.03,68.00 48.03,65.00
             44.54,51.02 33.23,49.81 20.92,52.00
             20.92,52.00 20.92,38.00 20.92,38.00
             19.94,29.09 15.33,14.34 9.00,8.00 Z" />
  <path id="Selection #8"
        fill="none" stroke="black" stroke-width="1"
        d="M 195.00,5.00
           C 195.00,5.00 195.00,14.00 195.00,14.00
             194.98,29.26 190.49,48.52 185.67,63.00
             160.63,138.12 88.56,192.00 9.00,192.00
             9.00,192.00 9.00,239.00 9.00,239.00
             23.28,240.88 30.30,241.03 44.00,247.31
             75.58,261.78 97.00,293.11 97.00,328.00
             97.00,328.00 145.00,328.00 145.00,328.00
             145.00,328.00 145.00,318.00 145.00,318.00
             145.02,303.58 149.76,283.73 154.33,270.00
             179.42,194.75 251.31,141.00 331.00,141.00
             331.00,141.00 331.00,94.00 331.00,94.00
             315.90,91.29 311.62,92.85 296.00,85.69
             264.39,71.20 243.00,39.93 243.00,5.00
             243.00,5.00 195.00,5.00 195.00,5.00 Z" />
  <path id="Selection #7"
        fill="none" stroke="black" stroke-width="1"
        d="M 209.00,191.00
           C 235.40,208.60 257.52,219.29 289.00,224.75
             289.00,224.75 310.00,227.08 310.00,227.08
             313.18,227.28 316.25,227.34 316.91,231.09
             318.23,238.60 312.81,248.67 306.00,251.95
             299.47,255.09 291.22,252.64 291.08,263.00
             291.05,265.65 291.77,268.56 292.76,271.00
             297.48,282.58 308.39,282.90 319.00,281.00
             319.00,300.65 320.04,307.50 330.00,325.00
             330.00,325.00 331.00,307.00 331.00,307.00
             331.00,307.00 331.00,270.00 331.00,270.00
             331.00,270.00 331.00,143.00 331.00,143.00
             297.34,143.00 264.88,152.07 236.00,169.40
             228.37,173.98 212.83,183.27 209.00,191.00 Z" />
  <path id="Selection #6"
        fill="none" stroke="black" stroke-width="1"
        d="M 233.00,313.00
           C 239.52,311.41 247.49,311.82 252.03,305.79
             256.75,299.53 253.08,292.84 261.02,287.74
             269.50,282.29 282.50,291.23 285.89,301.00
             287.34,305.15 287.00,309.67 287.00,314.00
             308.21,314.00 309.71,317.12 328.00,325.00
             328.00,325.00 319.75,306.00 319.75,306.00
             316.87,297.00 317.00,292.14 317.00,283.00
             305.66,285.76 295.28,281.13 290.76,270.00
             289.53,266.97 288.56,263.18 289.74,260.00
             293.33,250.35 301.60,253.61 307.96,249.28
             314.65,244.71 314.71,236.18 316.00,229.00
             288.00,229.00 259.72,221.26 235.00,208.22
             235.00,208.22 215.00,196.31 215.00,196.31
             211.09,193.82 208.58,191.27 204.01,194.05
             199.90,196.55 194.55,201.91 196.86,207.00
             196.86,207.00 215.69,240.00 215.69,240.00
             226.76,264.10 230.88,286.81 233.00,313.00 Z" />
  <path id="Selection #5"
        fill="none" stroke="black" stroke-width="1"
        d="M 193.00,205.00
           C 171.09,230.33 157.14,258.26 150.21,291.00
             148.94,297.02 147.07,309.02 147.00,315.00
             146.94,320.49 147.35,322.46 146.00,328.00
             146.00,328.00 328.00,328.00 328.00,328.00
             322.00,322.01 307.46,317.08 299.00,316.17
             292.85,315.51 291.05,316.72 284.00,315.00
             287.18,303.82 283.48,291.41 271.00,288.63
             268.50,287.95 264.45,287.75 262.05,288.63
             255.12,291.59 259.13,298.31 253.36,305.96
             247.68,313.50 240.06,313.02 232.00,315.00
             232.00,315.00 227.75,284.00 227.75,284.00
             224.08,262.84 216.34,241.50 205.40,223.00
             201.90,217.08 198.01,209.65 193.00,205.00 Z" />
  <path id="Selection #4"
        fill="none" stroke="black" stroke-width="1"
        d="M 10.00,241.00
           C 10.00,241.00 27.00,283.00 27.00,283.00
             27.00,283.00 69.00,266.00 69.00,266.00
             55.47,249.65 30.35,242.65 10.00,241.00 Z" />
  <path id="Selection #3"
        fill="none" stroke="black" stroke-width="1"
        d="M 71.00,268.00
           C 71.00,268.00 54.00,310.00 54.00,310.00
             54.00,310.00 95.00,327.00 95.00,327.00
             95.00,306.23 87.01,282.01 71.00,268.00 Z" />
  <path id="Selection #2"
        fill="none" stroke="black" stroke-width="1"
        d="M 9.00,246.00
           C 9.00,246.00 9.00,323.00 9.00,323.00
             9.00,323.00 18.42,302.00 18.42,302.00
             18.42,302.00 24.84,286.00 24.84,286.00
             24.84,286.00 21.40,274.00 21.40,274.00
             21.40,274.00 9.00,246.00 9.00,246.00 Z" />
  <path id="Selection #1"
        fill="none" stroke="black" stroke-width="1"
        d="M 11.00,326.00
           C 11.00,326.00 38.00,315.60 38.00,315.60
             38.00,315.60 51.30,309.30 51.30,309.30
             51.30,309.30 57.15,297.00 57.15,297.00
             57.15,297.00 69.00,268.00 69.00,268.00
             69.00,268.00 41.00,279.20 41.00,279.20
             41.00,279.20 27.65,285.65 27.65,285.65
             27.65,285.65 22.15,297.00 22.15,297.00
             22.15,297.00 11.00,326.00 11.00,326.00 Z" />
  <path id="Selection"
        fill="none" stroke="black" stroke-width="1"
        d="M 14.00,327.00
           C 14.00,327.00 38.00,328.00 38.00,328.00
             38.00,328.00 91.00,328.00 91.00,328.00
             91.00,328.00 64.00,316.01 64.00,316.01
             64.00,316.01 52.00,311.99 52.00,311.99
             52.00,311.99 40.00,316.40 40.00,316.40
             40.00,316.40 14.00,327.00 14.00,327.00 Z" />
</svg>
