<?xml version="1.0" encoding="UTF-8" standalone="no"?>
<!DOCTYPE svg PUBLIC "-//W3C//DTD SVG 20010904//EN"
              "http://www.w3.org/TR/2001/REC-SVG-20010904/DTD/svg10.dtd">

<svg xmlns="http://www.w3.org/2000/svg"
     width="28.1941mm" height="28.2787mm"
     viewBox="0 0 333 334">
  <path id="Selection #8"
        fill="none" stroke="black" stroke-width="1"
        d="M 176.00,157.00
           C 190.80,156.87 207.89,149.80 221.00,143.25
             258.02,124.74 283.07,99.54 302.30,63.00
             309.24,49.81 317.67,29.98 318.00,15.00
             301.30,15.37 276.30,26.67 262.00,35.20
             249.87,42.43 238.36,50.44 228.00,60.09
             202.06,84.24 180.69,121.65 176.00,157.00 Z" />
  <path id="Selection #7"
        fill="none" stroke="black" stroke-width="1"
        d="M 16.00,15.00
           C 16.34,30.58 25.35,51.36 32.69,65.00
             51.80,100.48 76.92,125.21 113.00,143.25
             126.11,149.80 143.20,156.87 158.00,157.00
             153.36,122.01 131.65,83.98 106.00,60.09
             95.70,50.49 84.06,42.39 72.00,35.20
             57.70,26.67 32.70,15.37 16.00,15.00 Z" />
  <path id="Selection #6"
        fill="none" stroke="black" stroke-width="1"
        d="M 176.00,176.00
           C 180.69,211.35 202.06,248.76 228.00,272.91
             238.30,282.51 249.94,290.61 262.00,297.80
             276.30,306.33 301.30,317.63 318.00,318.00
             317.67,303.02 309.24,283.19 302.30,270.00
             283.01,233.33 258.13,208.32 221.00,189.75
             207.89,183.20 190.80,176.13 176.00,176.00 Z" />
  <path id="Selection #5"
        fill="none" stroke="black" stroke-width="1"
        d="M 16.00,318.00
           C 32.70,317.63 57.70,306.33 72.00,297.80
             84.06,290.61 95.70,282.51 106.00,272.91
             131.63,249.04 153.36,210.98 158.00,176.00
             143.20,176.13 126.11,183.20 113.00,189.75
             76.58,207.96 52.05,232.27 32.69,268.00
             25.21,281.81 16.35,302.16 16.00,318.00 Z" />
  <path id="Selection #4"
        fill="none" stroke="black" stroke-width="1"
        d="M 136.00,5.00
           C 136.00,32.54 141.61,61.32 154.26,86.00
             157.77,92.85 161.73,98.65 166.00,105.00
             166.00,105.00 168.00,105.00 168.00,105.00
             168.00,105.00 179.22,87.00 179.22,87.00
             192.19,62.03 198.00,32.94 198.00,5.00
             198.00,5.00 136.00,5.00 136.00,5.00 Z" />
  <path id="Selection #3"
        fill="none" stroke="black" stroke-width="1"
        d="M 6.00,135.00
           C 6.00,135.00 6.00,198.00 6.00,198.00
             38.99,198.00 79.69,187.31 106.00,167.00
             100.28,160.24 88.17,154.25 80.00,150.72
             57.31,140.93 30.74,135.00 6.00,135.00 Z" />
  <path id="Selection #2"
        fill="none" stroke="black" stroke-width="1"
        d="M 228.00,166.00
           C 233.71,172.75 245.84,178.76 254.00,182.28
             276.71,192.07 303.24,198.00 328.00,198.00
             328.00,198.00 328.00,135.00 328.00,135.00
             294.76,135.00 254.50,145.54 228.00,166.00 Z" />
  <path id="Selection #1"
        fill="none" stroke="black" stroke-width="1"
        d="M 6.00,5.00
           C 6.00,5.00 6.00,133.00 6.00,133.00
             30.69,133.02 62.91,140.32 85.00,151.37
             93.24,155.49 100.39,160.92 108.00,166.00
             84.79,188.07 37.59,199.98 6.00,200.00
             6.00,200.00 6.00,328.00 6.00,328.00
             6.00,328.00 134.00,328.00 134.00,328.00
             134.00,301.18 140.04,274.36 151.31,250.00
             153.72,244.78 158.03,237.73 161.35,233.00
             162.56,231.27 164.61,228.04 167.00,228.04
             169.39,228.04 171.44,231.27 172.65,233.00
             175.97,237.73 180.28,244.78 182.69,250.00
             193.96,274.36 200.00,301.18 200.00,328.00
             200.00,328.00 328.00,328.00 328.00,328.00
             328.00,328.00 328.00,200.00 328.00,200.00
             302.45,199.98 269.64,192.39 247.00,180.52
             247.00,180.52 226.00,167.00 226.00,167.00
             249.24,144.90 296.37,133.02 328.00,133.00
             328.00,133.00 328.00,5.00 328.00,5.00
             328.00,5.00 200.00,5.00 200.00,5.00
             200.00,31.82 193.96,58.64 182.69,83.00
             180.28,88.22 175.97,95.27 172.65,100.00
             171.44,101.73 169.39,104.96 167.00,104.96
             164.61,104.96 162.56,101.73 161.35,100.00
             158.03,95.27 153.72,88.22 151.31,83.00
             140.04,58.64 134.00,31.82 134.00,5.00
             134.00,5.00 6.00,5.00 6.00,5.00 Z
           M 160.00,159.00
           C 143.13,158.95 125.88,151.70 111.00,144.25
             71.52,124.46 39.91,89.74 23.01,49.00
             20.42,42.75 16.60,31.55 15.21,25.00
             15.21,25.00 13.00,13.00 13.00,13.00
             30.89,13.01 48.31,20.78 64.00,28.76
             99.10,46.60 127.63,75.86 145.25,111.00
             152.30,125.07 159.27,143.15 160.00,159.00 Z
           M 320.00,13.00
           C 319.95,29.92 311.72,48.10 304.25,63.00
             286.23,98.95 256.86,127.32 221.00,145.25
             206.91,152.29 189.91,158.95 174.00,159.00
             174.73,143.15 181.70,125.07 188.75,111.00
             206.41,75.76 234.80,46.65 270.00,28.76
             284.65,21.31 303.37,13.05 320.00,13.00 Z
           M 160.00,174.00
           C 159.27,189.85 152.30,207.93 145.25,222.00
             127.66,257.10 99.06,286.42 64.00,304.24
             48.61,312.07 30.52,319.95 13.00,320.00
             13.00,320.00 15.21,308.00 15.21,308.00
             16.87,300.20 19.95,291.38 23.01,284.00
             39.94,243.19 71.46,208.57 111.00,188.75
             126.28,181.09 142.63,174.01 160.00,174.00 Z
           M 320.00,320.00
           C 303.50,319.85 284.54,311.64 270.00,304.24
             234.90,286.40 206.37,257.14 188.75,222.00
             181.70,207.93 174.73,189.85 174.00,174.00
             190.30,174.01 206.59,180.55 221.00,187.75
             258.34,206.42 286.58,234.67 305.25,272.00
             312.37,286.24 319.95,303.89 320.00,320.00 Z" />
  <path id="Selection"
        fill="none" stroke="black" stroke-width="1"
        d="M 166.00,228.00
           C 161.73,234.35 157.77,240.15 154.26,247.00
             141.61,271.68 136.00,300.46 136.00,328.00
             136.00,328.00 198.00,328.00 198.00,328.00
             198.00,300.07 192.18,270.95 179.22,246.00
             179.22,246.00 168.00,228.00 168.00,228.00
             168.00,228.00 166.00,228.00 166.00,228.00 Z" />
</svg>
