<?xml version="1.0" encoding="UTF-8" standalone="no"?>
<!DOCTYPE svg PUBLIC "-//W3C//DTD SVG 20010904//EN"
              "http://www.w3.org/TR/2001/REC-SVG-20010904/DTD/svg10.dtd">

<svg xmlns="http://www.w3.org/2000/svg"
     width="28.3634mm" height="28.4481mm"
     viewBox="0 0 335 336">
  <path id="Selection #4"
        fill="none" stroke="black" stroke-width="1"
        d="M 173.00,163.00
           C 234.64,163.00 287.69,126.24 310.40,69.00
             315.55,56.02 319.98,37.97 320.00,24.00
             320.00,24.00 320.00,16.00 320.00,16.00
             320.00,16.00 312.00,16.00 312.00,16.00
             301.60,16.02 289.99,18.42 280.00,21.29
             236.75,33.71 201.36,65.13 184.45,107.00
             179.28,119.81 175.93,133.30 174.28,147.00
             174.28,147.00 173.00,163.00 173.00,163.00 Z" />
  <path id="Selection #3"
        fill="none" stroke="black" stroke-width="1"
        d="M 15.00,15.00
           C 15.00,15.00 16.17,30.00 16.17,30.00
             17.75,46.53 22.39,62.93 29.31,78.00
             53.27,130.19 105.90,163.00 163.00,163.00
             161.33,156.12 162.48,152.62 161.58,146.00
             159.75,132.65 156.61,119.52 151.55,107.00
             135.79,67.98 102.25,35.83 62.00,23.03
             51.62,19.73 40.86,17.21 30.00,16.17
             23.21,15.52 23.80,16.58 15.00,15.00 Z" />
  <path id="Selection #2"
        fill="none" stroke="black" stroke-width="1"
        d="M 173.00,174.00
           C 174.67,180.88 173.52,184.38 174.42,191.00
             176.25,204.35 179.39,217.48 184.45,230.00
             201.30,271.72 236.89,303.33 280.00,315.71
             289.99,318.58 301.60,320.98 312.00,321.00
             312.00,321.00 321.00,321.00 321.00,321.00
             321.00,321.00 318.58,298.00 318.58,298.00
             316.53,284.84 312.52,272.17 307.14,260.00
             283.87,207.36 230.06,174.00 173.00,174.00 Z" />
  <path id="Selection #1"
        fill="none" stroke="black" stroke-width="1"
        d="M 15.00,321.00
           C 15.00,321.00 24.00,321.00 24.00,321.00
             34.40,320.98 46.01,318.58 56.00,315.71
             99.04,303.35 132.97,273.18 150.57,232.00
             155.28,220.98 159.17,207.87 160.87,196.00
             160.87,196.00 163.00,174.00 163.00,174.00
             105.94,174.00 52.13,207.36 28.86,260.00
             23.48,272.17 19.47,284.84 17.42,298.00
             17.42,298.00 15.00,321.00 15.00,321.00 Z" />
  <path id="Selection"
        fill="none" stroke="black" stroke-width="1"
        d="M 7.00,7.00
           C 7.00,7.00 7.00,330.00 7.00,330.00
             7.00,330.00 329.00,330.00 329.00,330.00
             329.00,330.00 329.00,7.00 329.00,7.00
             329.00,7.00 7.00,7.00 7.00,7.00 Z
           M 164.00,165.00
           C 98.13,165.00 39.58,122.10 20.02,59.00
             14.82,42.21 14.00,31.30 14.00,14.00
             32.43,14.00 46.40,15.55 64.00,21.69
             111.34,38.21 147.70,78.52 159.87,127.00
             162.11,135.92 163.99,145.80 164.00,155.00
             164.00,155.00 164.00,165.00 164.00,165.00 Z
           M 322.00,14.00
           C 322.00,14.00 322.00,24.00 322.00,24.00
             321.98,34.40 319.58,46.01 316.71,56.00
             303.76,101.11 270.66,137.51 227.00,154.80
             214.62,159.70 201.25,162.85 188.00,164.04
             181.37,164.69 177.78,165.93 171.00,164.04
             172.67,157.12 171.52,153.62 172.42,147.00
             174.52,131.69 177.31,119.31 183.43,105.00
             201.17,63.50 236.57,31.77 280.00,19.29
             290.02,16.41 302.58,14.02 313.00,14.00
             313.00,14.00 322.00,14.00 322.00,14.00 Z
           M 164.00,172.00
           C 164.00,193.06 162.09,207.08 154.58,227.00
             138.49,269.60 103.97,301.68 61.00,316.00
             49.03,319.99 35.66,322.98 23.00,323.00
             23.00,323.00 14.00,323.00 14.00,323.00
             14.00,305.70 14.82,294.79 20.02,278.00
             39.67,214.62 97.91,172.00 164.00,172.00 Z
           M 322.00,323.00
           C 304.18,323.00 292.16,321.81 275.00,316.26
             226.34,300.51 188.54,259.44 176.13,210.00
             173.89,201.08 172.01,191.20 172.00,182.00
             172.00,182.00 172.00,172.00 172.00,172.00
             237.92,172.00 296.40,214.84 315.98,278.00
             321.18,294.79 322.00,305.70 322.00,323.00 Z" />
</svg>
