<?xml version="1.0" encoding="UTF-8" standalone="no"?>
<!DOCTYPE svg PUBLIC "-//W3C//DTD SVG 20010904//EN"
              "http://www.w3.org/TR/2001/REC-SVG-20010904/DTD/svg10.dtd">

<svg xmlns="http://www.w3.org/2000/svg"
     width="5.55556in" height="5.55556in"
     viewBox="0 0 500 500">
  <path id="Selection #16"
        fill="none" stroke="black" stroke-width="1"
        d="M 435.00,493.00
           C 435.00,493.00 484.00,493.00 484.00,493.00
             490.74,492.99 492.86,493.49 493.00,486.00
             493.00,486.00 493.00,436.00 493.00,436.00
             471.08,436.00 453.78,448.72 442.90,467.09
             437.46,476.27 435.01,482.22 435.00,493.00 Z" />
  <path id="Selection #15"
        fill="none" stroke="black" stroke-width="1"
        d="M 473.00,355.00
           C 473.00,355.00 459.04,357.75 459.04,357.75
             459.04,357.75 452.00,361.00 452.00,361.00
             452.58,371.36 465.73,394.70 465.78,404.00
             466.04,405.94 466.04,409.17 465.78,411.00
             464.98,413.43 463.53,415.91 461.67,417.59
             453.36,425.16 440.14,411.66 435.87,404.83
             431.95,398.54 430.14,391.05 428.14,384.00
             427.44,381.54 425.77,375.28 424.10,373.60
             418.37,367.84 410.65,382.04 405.00,379.95
             403.02,379.22 398.12,374.22 396.17,372.52
             390.12,367.25 380.22,359.61 372.00,359.05
             363.45,358.47 357.88,359.73 358.84,370.00
             359.77,379.96 365.10,387.79 371.52,395.17
             373.52,397.47 380.07,403.64 380.66,406.00
             381.93,411.02 368.17,419.71 374.35,425.10
             376.59,427.06 386.62,429.41 390.00,430.40
             400.73,433.57 409.37,437.61 415.96,447.00
             417.64,449.40 419.35,452.04 419.76,455.00
             420.99,463.85 412.33,467.21 405.00,466.96
             397.59,466.70 382.72,459.54 375.00,456.59
             372.52,455.64 366.44,452.88 364.04,453.19
             359.37,453.81 356.66,461.98 356.12,466.00
             355.81,468.34 356.17,471.49 353.69,472.81
             350.46,474.53 345.39,470.82 337.00,471.02
             324.67,471.31 311.98,481.52 308.00,493.00
             308.00,493.00 427.00,493.00 427.00,493.00
             428.40,467.58 448.31,443.43 471.00,433.35
             476.73,430.80 486.66,428.98 493.00,428.00
             493.00,428.00 493.00,308.00 493.00,308.00
             480.52,312.77 471.17,324.59 470.11,338.00
             469.84,341.34 472.09,351.32 473.00,355.00 Z" />
  <path id="Selection #14"
        fill="none" stroke="black" stroke-width="1"
        d="M 279.00,492.00
           C 282.80,492.00 296.95,492.67 299.45,491.01
             300.95,490.01 304.10,484.60 305.72,482.58
             311.19,475.79 314.99,471.49 323.00,467.53
             333.05,462.55 339.84,464.97 350.00,465.00
             350.07,462.76 350.04,461.19 350.76,459.00
             352.15,454.83 358.13,444.86 363.00,445.04
             364.80,445.11 370.93,447.79 373.00,448.59
             373.00,448.59 385.01,453.09 385.01,453.09
             394.55,456.94 403.72,462.42 414.00,457.00
             407.60,444.26 400.23,440.61 387.00,436.70
             381.61,435.10 369.00,432.57 366.02,427.67
             361.62,420.41 372.28,411.11 371.39,406.32
             371.01,404.31 364.39,397.22 362.75,395.00
             355.64,385.34 351.85,380.20 352.00,368.00
             352.14,357.61 360.21,349.48 371.00,351.88
             371.00,351.88 380.00,353.76 380.00,353.76
             387.97,356.39 400.26,367.40 407.00,373.00
             410.78,369.61 422.36,361.58 427.47,365.61
             431.78,369.02 434.12,379.77 435.43,385.00
             438.51,397.21 443.77,409.72 457.00,413.00
             460.79,402.61 456.96,396.56 453.20,387.00
             453.20,387.00 449.20,376.00 449.20,376.00
             447.95,372.79 443.28,363.54 444.44,360.59
             446.65,354.98 458.53,350.44 464.00,349.00
             464.00,335.07 462.56,326.68 472.33,315.00
             475.23,311.53 480.35,307.36 484.17,304.82
             486.29,303.41 490.73,301.37 492.01,299.45
             493.05,297.88 492.97,295.80 493.00,294.00
             493.04,291.54 493.40,284.37 491.98,282.60
             490.39,280.64 478.16,281.97 475.00,282.00
             467.71,282.09 468.32,283.17 463.00,284.04
             463.00,284.04 457.00,284.04 457.00,284.04
             434.18,288.03 407.77,298.75 387.91,310.57
             334.04,342.63 295.18,396.30 283.54,458.00
             283.54,458.00 281.29,470.00 281.29,470.00
             281.29,470.00 280.70,478.00 280.70,478.00
             279.68,485.13 279.03,483.35 279.00,492.00 Z" />
  <path id="Selection #13"
        fill="none" stroke="black" stroke-width="1"
        d="M 493.00,244.00
           C 493.00,244.00 479.00,244.00 479.00,244.00
             470.34,244.02 473.29,244.71 467.00,245.98
             467.00,245.98 459.00,245.98 459.00,245.98
             459.00,245.98 432.00,252.59 432.00,252.59
             432.00,252.59 420.00,255.71 420.00,255.71
             409.20,259.04 396.17,265.00 386.00,270.08
             330.49,297.81 285.35,345.50 261.79,403.00
             254.40,421.04 252.80,427.17 248.32,446.00
             246.90,451.99 244.08,464.15 244.00,470.00
             243.93,475.89 244.31,477.95 243.13,484.00
             242.83,486.00 241.78,489.63 243.13,491.40
             244.48,493.37 248.81,493.00 251.00,493.00
             251.00,493.00 265.00,493.00 265.00,493.00
             273.13,492.94 272.98,491.73 273.00,484.00
             273.03,469.83 278.48,444.59 283.04,431.00
             283.04,431.00 295.04,401.00 295.04,401.00
             309.48,372.32 335.27,340.19 361.00,321.00
             391.91,297.95 418.10,285.21 456.00,277.63
             456.00,277.63 480.00,274.00 480.00,274.00
             482.58,273.97 489.51,274.48 491.40,272.98
             493.10,271.63 492.96,268.95 493.00,267.00
             493.00,267.00 493.00,244.00 493.00,244.00 Z" />
  <path id="Selection #12"
        fill="none" stroke="black" stroke-width="1"
        d="M 492.00,123.00
           C 492.00,123.00 463.17,152.05 463.17,152.05
             463.17,152.05 396.00,219.00 396.00,219.00
             396.00,219.00 300.58,314.72 300.58,314.72
             300.58,314.72 265.74,349.00 265.74,349.00
             265.74,349.00 203.95,410.95 203.95,410.95
             203.95,410.95 149.83,465.05 149.83,465.05
             149.83,465.05 124.00,492.00 124.00,492.00
             124.00,492.00 236.00,492.00 236.00,492.00
             236.00,492.00 236.00,479.00 236.00,479.00
             236.02,465.33 242.38,438.13 246.63,424.72
             250.32,413.04 254.34,401.12 259.53,390.00
             281.96,341.93 323.89,296.78 370.00,270.65
             399.32,254.04 431.67,243.05 465.00,238.07
             465.00,238.07 476.00,238.07 476.00,238.07
             476.00,238.07 493.00,236.00 493.00,236.00
             493.00,236.00 493.00,158.00 493.00,158.00
             493.00,158.00 493.00,136.00 493.00,136.00
             493.00,136.00 492.00,123.00 492.00,123.00 Z" />
  <path id="Selection #11"
        fill="none" stroke="black" stroke-width="1"
        d="M 112.00,391.00
           C 112.00,391.00 51.00,452.00 51.00,452.00
             51.00,452.00 12.00,491.84 12.00,491.84
             12.00,491.84 106.00,491.84 106.00,491.84
             106.00,491.84 112.68,491.84 112.68,491.84
             112.68,491.84 126.65,478.67 126.65,478.67
             126.65,478.67 164.00,442.00 164.00,442.00
             164.00,442.00 150.00,442.96 150.00,442.96
             150.00,442.96 136.00,445.02 136.00,445.02
             136.00,445.02 127.00,445.02 127.00,445.02
             127.00,445.02 120.00,446.79 120.00,446.79
             120.00,446.79 103.00,449.00 103.00,449.00
             101.67,441.18 104.62,433.61 106.41,426.00
             106.41,426.00 109.59,410.00 109.59,410.00
             110.69,405.28 113.61,395.21 112.00,391.00 Z" />
  <path id="Selection #10"
        fill="none" stroke="black" stroke-width="1"
        d="M 110.00,438.87
           C 110.00,438.87 127.00,438.87 127.00,438.87
             127.00,438.87 133.00,437.04 133.00,437.04
             133.00,437.04 143.00,437.04 143.00,437.04
             143.00,437.04 150.00,435.32 150.00,435.32
             150.00,435.32 170.00,433.00 170.00,433.00
             170.00,433.00 173.37,408.00 173.37,408.00
             173.37,408.00 174.95,402.00 174.95,402.00
             174.95,402.00 174.95,395.00 174.95,395.00
             174.95,395.00 176.79,387.00 176.79,387.00
             176.79,387.00 179.00,372.00 179.00,372.00
             170.12,372.03 153.37,376.55 144.00,378.49
             144.00,378.49 136.00,379.86 136.00,379.86
             131.69,380.95 125.77,380.59 123.09,384.34
             121.09,387.14 119.44,398.18 118.75,402.00
             117.23,410.43 112.82,431.66 110.00,438.87 Z" />
  <path id="Selection #9"
        fill="none" stroke="black" stroke-width="1"
        d="M 237.00,266.00
           C 237.00,266.00 219.09,284.28 219.09,284.28
             219.09,284.28 187.00,316.00 187.00,316.00
             187.00,316.00 151.00,352.00 151.00,352.00
             151.00,352.00 130.00,372.00 130.00,372.00
             135.02,373.99 146.53,370.89 152.00,369.42
             161.77,366.80 177.00,364.00 187.00,364.00
             187.00,364.00 185.01,373.00 185.01,373.00
             185.01,373.00 185.01,381.00 185.01,381.00
             185.01,381.00 183.32,388.00 183.32,388.00
             183.32,388.00 182.82,396.00 182.82,396.00
             182.82,396.00 181.32,403.00 181.32,403.00
             181.32,403.00 180.71,410.00 180.71,410.00
             180.71,410.00 178.00,426.00 178.00,426.00
             184.29,423.03 188.83,417.12 193.58,412.17
             193.58,412.17 216.42,389.28 216.42,389.28
             216.42,389.28 261.28,344.42 261.28,344.42
             261.28,344.42 286.00,319.00 286.00,319.00
             276.34,319.04 278.94,320.21 273.00,321.03
             273.00,321.03 266.00,321.03 266.00,321.03
             266.00,321.03 258.00,322.86 258.00,322.86
             258.00,322.86 241.00,325.39 241.00,325.39
             238.05,325.90 227.78,327.51 226.12,324.65
             224.98,322.65 227.86,311.66 228.58,309.00
             228.58,309.00 234.71,282.00 234.71,282.00
             235.71,278.11 238.14,269.55 237.00,266.00 Z" />
  <path id="Selection #8"
        fill="none" stroke="black" stroke-width="1"
        d="M 234.00,317.91
           C 234.00,317.91 245.00,317.91 245.00,317.91
             245.00,317.91 255.00,315.62 255.00,315.62
             255.00,315.62 264.00,314.70 264.00,314.70
             264.00,314.70 271.00,313.30 271.00,313.30
             271.00,313.30 279.00,312.79 279.00,312.79
             279.00,312.79 293.00,311.00 293.00,311.00
             293.00,311.00 294.79,301.00 294.79,301.00
             294.79,301.00 295.30,293.00 295.30,293.00
             295.30,293.00 299.68,268.00 299.68,268.00
             299.68,268.00 300.21,260.00 300.21,260.00
             300.21,260.00 302.00,251.00 302.00,251.00
             302.00,251.00 262.00,257.20 262.00,257.20
             262.00,257.20 247.17,261.57 247.17,261.57
             247.17,261.57 243.29,277.00 243.29,277.00
             243.29,277.00 234.00,317.91 234.00,317.91 Z" />
  <path id="Selection #7"
        fill="none" stroke="black" stroke-width="1"
        d="M 374.00,130.00
           C 374.00,130.00 340.58,163.14 340.58,163.14
             340.58,163.14 290.33,213.33 290.33,213.33
             290.33,213.33 264.98,238.72 264.98,238.72
             264.98,238.72 253.00,252.00 253.00,252.00
             253.00,252.00 287.00,245.37 287.00,245.37
             287.00,245.37 294.00,244.55 294.00,244.55
             297.23,243.85 305.68,241.21 308.20,243.69
             311.00,246.05 308.19,254.19 308.20,258.00
             307.74,263.24 307.29,263.35 306.46,268.00
             306.46,268.00 305.57,276.00 305.57,276.00
             305.57,276.00 303.30,288.00 303.30,288.00
             303.30,288.00 302.63,297.00 302.63,297.00
             302.63,297.00 301.00,304.00 301.00,304.00
             301.00,304.00 314.74,290.74 314.74,290.74
             314.74,290.74 336.74,268.74 336.74,268.74
             336.74,268.74 381.42,224.28 381.42,224.28
             381.42,224.28 427.00,178.00 427.00,178.00
             427.00,178.00 396.00,184.11 396.00,184.11
             396.00,184.11 369.00,190.00 369.00,190.00
             366.48,179.64 369.24,177.66 370.04,172.00
             370.04,172.00 370.04,164.00 370.04,164.00
             370.04,164.00 372.14,156.00 372.14,156.00
             372.14,156.00 372.14,148.00 372.14,148.00
             373.42,142.42 375.21,135.68 374.00,130.00 Z" />
  <path id="Selection #6"
        fill="none" stroke="black" stroke-width="1"
        d="M 376.00,181.00
           C 376.00,181.00 416.00,172.24 416.00,172.24
             419.17,171.63 430.53,169.92 432.43,168.11
             434.76,165.88 435.96,155.36 436.09,152.00
             436.09,152.00 436.09,139.00 436.09,139.00
             436.09,139.00 437.91,131.00 437.91,131.00
             437.91,131.00 437.91,106.00 437.91,106.00
             437.91,106.00 420.00,111.45 420.00,111.45
             420.00,111.45 398.00,117.73 398.00,117.73
             394.39,118.94 386.92,120.63 384.51,123.30
             381.12,127.06 382.48,132.45 381.63,137.00
             381.63,137.00 380.21,143.00 380.21,143.00
             380.21,143.00 379.68,152.00 379.68,152.00
             379.68,152.00 378.18,159.00 378.18,159.00
             378.18,159.00 377.68,167.00 377.68,167.00
             376.42,174.74 376.01,171.71 376.00,181.00 Z" />
  <path id="Selection #5"
        fill="none" stroke="black" stroke-width="1"
        d="M 492.00,12.00
           C 492.00,12.00 423.00,80.67 423.00,80.67
             423.00,80.67 403.00,100.66 403.00,100.66
             403.00,100.66 393.00,112.00 393.00,112.00
             393.00,112.00 431.00,100.80 431.00,100.80
             433.82,99.95 442.21,96.56 444.60,98.07
             446.93,99.56 446.01,105.45 445.92,108.00
             445.92,108.00 445.92,120.00 445.92,120.00
             444.84,129.94 444.14,127.85 444.00,140.00
             444.00,140.00 442.00,163.00 442.00,163.00
             442.00,163.00 480.00,126.00 480.00,126.00
             487.72,118.28 492.98,116.22 493.00,105.00
             493.00,105.00 493.00,41.00 493.00,41.00
             493.00,34.74 493.91,16.83 492.00,12.00 Z" />
  <path id="Selection #4"
        fill="none" stroke="black" stroke-width="1"
        d="M 332.00,70.00
           C 332.00,70.00 314.00,63.00 314.00,63.00
             314.00,79.19 314.64,71.73 316.57,85.00
             316.57,85.00 317.88,95.00 317.88,95.00
             318.39,97.37 320.21,104.35 316.87,105.47
             314.95,106.12 308.58,100.21 307.01,98.91
             300.77,93.73 287.90,80.97 281.00,79.00
             280.93,86.05 280.46,84.16 279.37,90.00
             278.66,93.84 279.43,95.80 278.09,100.00
             275.16,109.16 265.31,122.69 258.83,130.00
             258.83,130.00 241.73,147.42 241.73,147.42
             239.37,150.68 240.25,153.31 236.40,159.00
             232.66,164.54 229.15,166.17 228.07,168.32
             226.40,171.66 233.28,184.78 234.65,189.00
             236.44,194.57 240.16,208.52 239.90,214.00
             239.90,214.00 238.26,223.00 238.26,223.00
             237.42,227.37 236.32,233.30 232.73,236.30
             229.43,239.06 217.45,241.45 213.00,241.81
             208.98,242.14 206.74,241.14 203.00,240.46
             191.60,238.41 192.04,238.62 181.00,234.38
             178.00,233.22 169.83,228.99 167.18,229.73
             164.19,230.56 163.36,234.19 157.91,237.95
             151.44,242.40 149.35,241.41 146.32,243.51
             146.32,243.51 131.28,258.49 131.28,258.49
             124.71,264.41 105.98,277.68 98.00,280.39
             98.00,280.39 77.00,284.00 77.00,284.00
             77.00,284.00 106.00,321.00 106.00,321.00
             106.00,321.00 90.00,319.00 90.00,319.00
             90.00,319.00 82.00,319.00 82.00,319.00
             82.00,319.00 75.00,317.21 75.00,317.21
             75.00,317.21 62.00,316.00 62.00,316.00
             62.88,322.76 68.99,329.52 67.71,332.57
             66.85,334.61 63.85,334.80 62.00,335.14
             62.00,335.14 49.00,337.45 49.00,337.45
             34.28,340.76 26.19,349.71 26.74,365.00
             26.74,365.00 27.26,376.00 27.26,376.00
             27.26,376.00 30.55,389.00 30.55,389.00
             30.55,389.00 32.91,408.00 32.91,408.00
             33.25,413.00 32.72,415.25 32.15,420.00
             32.15,420.00 30.55,432.00 30.55,432.00
             27.53,445.05 17.41,461.24 5.00,467.00
             5.00,467.00 5.00,487.00 5.00,487.00
             5.00,487.00 33.00,460.00 33.00,460.00
             33.00,460.00 85.00,408.00 85.00,408.00
             85.00,408.00 241.14,252.14 241.14,252.14
             241.14,252.14 406.05,87.05 406.05,87.05
             406.05,87.05 456.01,37.23 456.01,37.23
             456.01,37.23 487.00,6.00 487.00,6.00
             487.00,6.00 475.00,6.00 475.00,6.00
             472.70,6.02 470.28,5.89 468.18,6.98
             468.18,6.98 449.99,23.71 449.99,23.71
             441.05,30.26 424.03,33.98 413.00,34.00
             399.87,34.02 402.67,33.22 392.00,32.17
             392.00,32.17 385.00,31.63 385.00,31.63
             379.00,30.50 373.15,28.11 367.00,28.00
             358.69,27.87 350.51,27.48 344.04,33.82
             341.80,36.01 339.46,40.18 338.04,43.00
             336.59,45.86 334.86,49.87 334.24,53.00
             333.14,58.66 332.02,64.21 332.00,70.00 Z" />
  <path id="Selection #3"
        fill="none" stroke="black" stroke-width="1"
        d="M 249.00,6.00
           C 246.84,21.97 238.82,39.61 225.09,48.80
             212.81,57.01 201.50,57.43 189.17,62.78
             180.28,66.65 171.73,73.43 165.54,80.83
             161.08,86.16 155.42,98.20 154.26,105.00
             154.26,105.00 153.68,112.00 153.68,112.00
             152.79,117.48 151.50,118.58 152.17,125.00
             152.17,125.00 154.02,134.00 154.02,134.00
             154.02,134.00 154.02,144.00 154.02,144.00
             155.08,150.30 157.22,151.49 156.00,159.00
             156.00,159.00 137.00,156.00 137.00,156.00
             137.00,156.00 121.00,155.03 121.00,155.03
             121.00,155.03 112.00,156.08 112.00,156.08
             112.00,156.08 104.00,156.08 104.00,156.08
             90.02,158.55 77.53,166.83 69.04,178.00
             57.47,193.22 58.06,206.98 49.64,223.00
             41.50,238.48 22.20,248.62 5.00,249.00
             5.00,249.00 5.00,459.00 5.00,459.00
             17.39,450.85 21.33,440.89 24.00,427.00
             24.78,422.95 25.89,416.01 25.99,412.00
             26.17,403.87 24.30,395.01 22.83,387.00
             22.83,387.00 19.37,373.00 19.37,373.00
             17.44,362.65 19.60,351.54 26.29,343.32
             35.57,331.95 46.34,331.75 59.00,328.00
             59.00,328.00 50.00,307.00 50.00,307.00
             50.00,307.00 62.00,309.06 62.00,309.06
             62.00,309.06 70.00,309.06 70.00,309.06
             70.00,309.06 77.00,310.87 77.00,310.87
             77.00,310.87 89.00,312.00 89.00,312.00
             86.33,305.03 76.71,295.15 71.56,289.00
             67.93,284.66 65.93,283.78 65.00,278.00
             76.15,277.99 72.50,276.86 79.00,276.13
             85.38,275.40 92.98,274.99 98.96,272.41
             106.81,269.04 121.52,258.00 128.29,252.24
             128.29,252.24 143.29,236.82 143.29,236.82
             147.05,234.05 150.38,234.60 153.42,232.72
             159.82,228.76 161.22,221.61 164.27,220.57
             166.83,219.69 174.13,224.02 177.00,225.20
             186.08,228.92 197.07,233.83 207.00,234.00
             212.99,234.09 222.65,234.69 227.57,230.88
             230.65,228.50 231.93,220.73 232.00,217.00
             232.23,202.87 230.72,198.23 225.77,185.00
             224.45,181.46 217.90,168.82 218.64,166.22
             219.66,162.65 225.89,162.30 230.13,155.98
             232.91,151.83 232.88,147.37 236.21,143.18
             236.21,143.18 246.99,132.96 246.99,132.96
             255.63,124.46 268.88,108.91 271.13,97.00
             271.13,97.00 275.00,75.00 275.00,75.00
             275.39,73.07 275.95,68.06 278.31,67.62
             280.87,67.13 285.82,72.31 287.74,74.00
             292.97,78.57 304.12,88.50 310.00,91.00
             310.00,91.00 305.00,51.00 305.00,51.00
             305.00,51.00 326.00,60.00 326.00,60.00
             326.24,50.49 332.36,35.86 339.18,29.21
             344.35,24.17 353.80,20.35 361.00,20.05
             365.63,19.85 377.79,22.96 383.00,23.81
             405.51,27.48 431.66,30.39 450.58,14.71
             454.30,11.62 456.41,10.18 459.00,6.00
             459.00,6.00 249.00,6.00 249.00,6.00 Z" />
  <path id="Selection #2"
        fill="none" stroke="black" stroke-width="1"
        d="M 158.00,6.00
           C 158.00,6.00 154.41,18.00 154.41,18.00
             154.41,18.00 143.87,55.00 143.87,55.00
             143.87,55.00 132.89,93.00 132.89,93.00
             132.89,93.00 127.14,114.00 127.14,114.00
             126.31,116.96 125.42,121.29 123.35,123.53
             120.51,126.60 102.97,131.14 98.00,132.55
             98.00,132.55 33.00,151.12 33.00,151.12
             33.00,151.12 13.00,157.00 13.00,157.00
             11.11,157.54 7.19,158.10 6.02,159.60
             4.76,161.20 5.00,165.00 5.00,167.00
             5.00,167.00 5.00,243.00 5.00,243.00
             19.07,237.68 27.71,239.92 39.24,226.28
             48.09,215.81 48.62,204.87 53.04,193.00
             57.62,180.68 65.66,169.60 76.00,161.52
             86.23,153.51 100.99,148.02 114.00,148.00
             114.00,148.00 130.00,148.00 130.00,148.00
             141.29,148.02 137.75,149.90 148.00,150.00
             148.00,150.00 146.00,134.00 146.00,134.00
             146.00,134.00 146.00,115.00 146.00,115.00
             146.03,97.82 155.70,79.19 168.52,67.98
             175.86,61.55 185.78,56.48 195.00,53.33
             207.00,49.23 218.34,47.30 227.82,37.82
             232.74,32.89 235.78,26.46 238.12,20.00
             240.22,14.20 240.86,12.20 241.00,6.00
             241.00,6.00 158.00,6.00 158.00,6.00 Z" />
  <path id="Selection #1"
        fill="none" stroke="black" stroke-width="1"
        d="M 121.00,6.00
           C 121.00,6.00 115.40,29.00 115.40,29.00
             115.40,29.00 103.00,73.00 103.00,73.00
             103.00,73.00 95.11,96.15 95.11,96.15
             95.11,96.15 87.00,99.67 87.00,99.67
             87.00,99.67 66.17,105.18 66.17,105.18
             66.17,105.18 53.00,109.50 53.00,109.50
             53.00,109.50 5.00,123.00 5.00,123.00
             5.00,123.00 5.00,152.00 5.00,152.00
             5.00,152.00 22.00,147.29 22.00,147.29
             22.00,147.29 85.00,128.86 85.00,128.86
             85.00,128.86 108.00,122.22 108.00,122.22
             108.00,122.22 117.43,118.35 117.43,118.35
             117.43,118.35 121.31,109.00 121.31,109.00
             121.31,109.00 127.20,88.00 127.20,88.00
             127.20,88.00 141.60,39.00 141.60,39.00
             141.60,39.00 151.00,6.00 151.00,6.00
             151.00,6.00 121.00,6.00 121.00,6.00 Z" />
  <path id="Selection"
        fill="none" stroke="black" stroke-width="1"
        d="M 5.00,6.00
           C 5.00,6.00 5.00,115.00 5.00,115.00
             5.00,115.00 21.00,110.57 21.00,110.57
             21.00,110.57 65.00,98.00 65.00,98.00
             69.99,96.59 85.60,93.14 88.69,90.35
             91.86,87.49 95.12,72.88 96.45,68.17
             96.45,68.17 107.45,29.17 107.45,29.17
             109.14,23.18 112.61,11.77 113.00,6.00
             113.00,6.00 5.00,6.00 5.00,6.00 Z" />
</svg>
