<?xml version="1.0" encoding="UTF-8" standalone="no"?>
<!DOCTYPE svg PUBLIC "-//W3C//DTD SVG 20010904//EN"
              "http://www.w3.org/TR/2001/REC-SVG-20010904/DTD/svg10.dtd">

<svg xmlns="http://www.w3.org/2000/svg"
     width="5.55556in" height="5.55556in"
     viewBox="0 0 500 500">
  <path id="Selection #7"
        fill="none" stroke="black" stroke-width="1"
        d="M 292.08,8.00
           C 292.08,8.00 292.08,24.00 292.08,24.00
             292.88,31.10 293.99,31.04 294.00,40.00
             294.03,60.94 294.91,50.36 296.71,65.00
             296.71,65.00 297.26,74.00 297.26,74.00
             297.26,74.00 298.87,81.00 298.87,81.00
             298.87,81.00 299.38,88.00 299.38,88.00
             299.38,88.00 301.67,96.00 301.67,96.00
             301.67,96.00 304.53,113.00 304.53,113.00
             304.53,113.00 306.62,120.00 306.62,120.00
             306.62,120.00 307.68,126.58 307.68,126.58
             307.68,126.58 317.73,161.00 317.73,161.00
             318.64,163.77 322.20,172.18 320.85,174.67
             318.88,178.29 306.37,172.44 302.99,171.22
             302.99,171.22 247.00,149.59 247.00,149.59
             191.82,127.28 137.66,97.01 87.00,65.85
             87.00,65.85 50.00,42.26 50.00,42.26
             50.00,42.26 24.00,25.00 24.00,25.00
             24.00,25.00 38.70,47.00 38.70,47.00
             38.70,47.00 60.00,79.00 60.00,79.00
             60.77,72.36 51.95,65.05 49.31,59.00
             48.17,56.38 48.42,52.48 51.77,51.71
             53.59,51.29 55.65,53.05 57.04,54.02
             57.04,54.02 67.72,61.37 67.72,61.37
             67.72,61.37 112.08,88.59 112.08,88.59
             158.09,115.47 205.41,139.66 255.00,159.26
             255.00,159.26 299.00,174.45 299.00,174.45
             303.63,175.75 318.71,179.51 321.47,182.31
             324.95,185.83 326.13,194.15 327.61,199.00
             327.61,199.00 338.27,231.00 338.27,231.00
             350.30,265.26 365.41,299.04 382.66,331.00
             399.36,361.93 416.56,392.34 435.44,422.00
             435.44,422.00 449.31,442.83 449.31,442.83
             450.81,445.21 452.97,449.73 448.66,450.87
             445.13,451.81 434.34,443.27 431.01,441.07
             431.01,441.07 397.96,420.20 397.96,420.20
             397.96,420.20 380.42,410.09 380.42,410.09
             380.42,410.09 351.00,393.93 351.00,393.93
             351.00,393.93 323.00,379.30 323.00,379.30
             323.00,379.30 292.58,363.72 292.58,363.72
             292.58,363.72 252.00,347.26 252.00,347.26
             252.00,347.26 223.00,337.36 223.00,337.36
             214.77,334.47 204.68,330.10 196.00,330.00
             196.00,330.00 215.00,337.07 215.00,337.07
             215.00,337.07 264.00,356.29 264.00,356.29
             297.05,369.89 328.66,386.26 360.04,403.29
             360.04,403.29 404.00,428.87 404.00,428.87
             404.00,428.87 430.91,445.05 430.91,445.05
             430.91,445.05 461.04,465.08 461.04,465.08
             466.44,468.77 471.94,473.64 478.00,476.00
             474.46,468.06 468.15,460.62 463.23,453.28
             463.23,453.28 435.82,411.00 435.82,411.00
             435.82,411.00 405.58,360.00 405.58,360.00
             405.58,360.00 390.53,331.72 390.53,331.72
             377.26,306.22 364.72,280.50 353.59,253.96
             353.59,253.96 341.94,226.00 341.94,226.00
             341.94,226.00 335.25,207.42 335.25,207.42
             332.27,200.16 326.23,185.37 326.00,178.00
             326.00,178.00 343.00,182.55 343.00,182.55
             343.00,182.55 365.00,188.59 365.00,188.59
             365.00,188.59 379.00,192.54 379.00,192.54
             379.00,192.54 408.00,198.53 408.00,198.53
             408.00,198.53 414.00,200.39 414.00,200.39
             414.00,200.39 428.00,203.04 428.00,203.04
             428.00,203.04 437.00,203.04 437.00,203.04
             437.00,203.04 458.00,206.00 458.00,206.00
             458.00,206.00 475.00,208.00 475.00,208.00
             475.00,208.00 494.00,208.00 494.00,208.00
             489.94,206.26 481.48,205.06 477.00,205.00
             471.56,204.94 465.26,205.40 460.00,204.34
             460.00,204.34 450.00,202.04 450.00,202.04
             450.00,202.04 442.00,202.04 442.00,202.04
             442.00,202.04 435.00,200.21 435.00,200.21
             435.00,200.21 427.00,199.68 427.00,199.68
             427.00,199.68 419.00,197.52 419.00,197.52
             419.00,197.52 402.00,194.47 402.00,194.47
             402.00,194.47 395.00,192.38 395.00,192.38
             395.00,192.38 380.00,189.45 380.00,189.45
             380.00,189.45 374.00,187.46 374.00,187.46
             374.00,187.46 343.00,178.95 343.00,178.95
             338.82,177.64 332.52,176.37 329.14,173.89
             325.99,171.58 324.46,165.71 323.26,162.00
             323.26,162.00 315.31,134.00 315.31,134.00
             315.31,134.00 308.45,107.00 308.45,107.00
             308.45,107.00 307.62,101.00 307.62,101.00
             307.62,101.00 305.53,94.00 305.53,94.00
             305.53,94.00 304.75,88.00 304.75,88.00
             304.75,88.00 303.26,82.00 303.26,82.00
             303.26,82.00 302.68,74.00 302.68,74.00
             302.68,74.00 300.46,65.00 300.46,65.00
             300.46,65.00 299.79,55.00 299.79,55.00
             299.10,50.02 298.10,50.93 298.00,44.00
             297.78,27.39 296.37,31.36 295.08,19.00
             295.08,19.00 295.08,8.00 295.08,8.00
             295.08,8.00 292.08,8.00 292.08,8.00 Z
           M 62.00,79.00
           C 62.93,85.07 69.49,94.00 73.03,99.45
             73.03,99.45 93.91,134.01 93.91,134.01
             93.91,134.01 134.04,210.04 134.04,210.04
             134.04,210.04 155.93,259.00 155.93,259.00
             155.93,259.00 169.44,294.00 169.44,294.00
             169.44,294.00 173.65,305.00 173.65,305.00
             174.55,307.77 179.33,318.07 177.19,320.19
             175.24,322.14 168.24,318.73 166.00,317.93
             166.00,317.93 154.04,314.49 154.04,314.49
             154.04,314.49 148.72,312.43 148.72,312.43
             148.72,312.43 135.00,309.31 135.00,309.31
             135.00,309.31 129.00,307.46 129.00,307.46
             129.00,307.46 122.00,306.39 122.00,306.39
             122.00,306.39 106.00,302.37 106.00,302.37
             106.00,302.37 99.00,301.48 99.00,301.48
             99.00,301.48 79.00,296.96 79.00,296.96
             79.00,296.96 69.00,296.96 69.00,296.96
             60.72,295.62 62.49,294.02 52.00,293.91
             52.00,293.91 42.00,293.91 42.00,293.91
             35.76,293.16 36.43,292.04 28.00,292.00
             28.00,292.00 8.00,292.00 8.00,292.00
             8.00,292.00 8.00,295.00 8.00,295.00
             27.38,295.00 26.14,296.22 43.00,297.97
             43.00,297.97 53.00,297.97 53.00,297.97
             53.00,297.97 61.00,300.04 61.00,300.04
             61.00,300.04 70.00,300.04 70.00,300.04
             70.00,300.04 81.00,302.79 81.00,302.79
             81.00,302.79 98.00,305.47 98.00,305.47
             98.00,305.47 106.00,307.63 106.00,307.63
             106.00,307.63 113.00,308.59 113.00,308.59
             113.00,308.59 128.00,312.54 128.00,312.54
             132.28,313.53 131.48,312.56 138.00,314.50
             138.00,314.50 166.00,322.33 166.00,322.33
             170.43,323.72 175.13,324.81 177.70,329.10
             181.56,335.56 185.28,355.79 187.75,364.00
             187.75,364.00 191.63,378.00 191.63,378.00
             191.63,378.00 192.47,384.00 192.47,384.00
             192.47,384.00 194.45,390.00 194.45,390.00
             194.45,390.00 195.25,396.00 195.25,396.00
             195.25,396.00 196.74,402.00 196.74,402.00
             196.74,402.00 197.38,409.00 197.38,409.00
             197.38,409.00 199.67,417.00 199.67,417.00
             199.67,417.00 200.26,426.00 200.26,426.00
             200.26,426.00 201.74,432.00 201.74,432.00
             201.74,432.00 202.29,441.00 202.29,441.00
             204.27,457.11 204.90,447.53 205.00,468.00
             205.04,476.45 206.16,475.75 206.83,482.00
             207.36,486.92 205.59,490.11 211.00,492.00
             211.00,492.00 208.00,450.00 208.00,450.00
             208.00,450.00 206.18,437.00 206.18,437.00
             206.18,437.00 205.62,426.00 205.62,426.00
             205.62,426.00 203.33,418.00 203.33,418.00
             203.33,418.00 202.74,410.00 202.74,410.00
             202.74,410.00 201.26,404.00 201.26,404.00
             201.26,404.00 200.47,397.00 200.47,397.00
             200.47,397.00 198.38,390.00 198.38,390.00
             198.38,390.00 197.55,384.00 197.55,384.00
             197.55,384.00 193.47,370.00 193.47,370.00
             193.47,370.00 192.54,364.00 192.54,364.00
             192.54,364.00 183.71,335.00 183.71,335.00
             183.71,335.00 182.00,327.00 182.00,327.00
             182.00,327.00 186.00,326.00 186.00,326.00
             181.06,319.30 179.90,310.73 177.34,303.00
             177.34,303.00 159.25,253.99 159.25,253.99
             141.27,210.64 117.68,167.94 93.22,127.91
             93.22,127.91 73.11,95.28 73.11,95.28
             69.52,89.73 66.56,83.85 62.00,79.00 Z" />
  <path id="Selection #6"
        fill="none" stroke="black" stroke-width="1"
        d="M 192.00,338.00
           C 192.00,338.00 202.51,374.00 202.51,374.00
             202.51,374.00 204.62,381.00 204.62,381.00
             204.62,381.00 205.45,387.00 205.45,387.00
             205.45,387.00 209.63,405.00 209.63,405.00
             209.63,405.00 210.26,412.00 210.26,412.00
             210.26,412.00 212.57,422.00 212.57,422.00
             212.57,422.00 213.21,431.00 213.21,431.00
             213.21,431.00 215.09,444.00 215.09,444.00
             215.09,444.00 215.09,453.00 215.09,453.00
             215.09,453.00 216.68,460.00 216.68,460.00
             216.68,460.00 218.00,475.00 218.00,475.00
             218.00,475.00 218.00,491.00 218.00,491.00
             218.00,491.00 308.00,491.00 308.00,491.00
             308.00,491.00 320.00,491.91 320.00,491.91
             320.00,491.91 331.00,491.04 331.00,491.04
             331.00,491.04 346.00,492.00 346.00,492.00
             346.00,492.00 361.00,492.00 361.00,492.00
             361.00,492.00 371.00,491.32 371.00,491.32
             371.00,491.32 398.00,492.00 398.00,492.00
             398.00,492.00 443.00,492.00 443.00,492.00
             443.00,492.00 484.00,492.00 484.00,492.00
             480.53,485.32 470.33,480.10 464.09,475.95
             464.09,475.95 414.93,444.03 414.93,444.03
             414.93,444.03 397.42,433.14 397.42,433.14
             397.42,433.14 326.83,393.56 326.83,393.56
             303.58,381.29 279.24,371.06 255.04,360.84
             255.04,360.84 213.00,344.33 213.00,344.33
             205.49,341.68 200.20,338.25 192.00,338.00 Z" />
  <path id="Selection #5"
        fill="none" stroke="black" stroke-width="1"
        d="M 9.00,302.00
           C 9.00,302.00 9.00,491.00 9.00,491.00
             9.00,491.00 198.00,491.00 198.00,491.00
             198.00,491.00 198.00,468.00 198.00,468.00
             197.98,457.60 196.97,460.56 196.01,454.00
             196.01,454.00 196.01,445.00 196.01,445.00
             196.01,445.00 193.32,431.00 193.32,431.00
             193.32,431.00 192.74,421.00 192.74,421.00
             192.74,421.00 188.45,402.00 188.45,402.00
             188.45,402.00 187.74,395.00 187.74,395.00
             187.74,395.00 185.55,388.00 185.55,388.00
             185.55,388.00 182.51,372.00 182.51,372.00
             182.51,372.00 180.68,367.00 180.68,367.00
             180.68,367.00 179.29,360.00 179.29,360.00
             179.29,360.00 175.16,346.04 175.16,346.04
             174.31,342.21 172.59,334.90 169.77,332.31
             167.61,330.33 162.11,329.25 159.00,328.16
             148.30,324.43 137.06,321.99 126.00,319.73
             126.00,319.73 119.00,317.41 119.00,317.41
             119.00,317.41 113.00,316.74 113.00,316.74
             113.00,316.74 102.00,314.61 102.00,314.61
             102.00,314.61 95.00,312.39 95.00,312.39
             95.00,312.39 89.00,311.79 89.00,311.79
             89.00,311.79 83.00,310.37 83.00,310.37
             83.00,310.37 76.00,309.57 76.00,309.57
             70.00,308.67 68.16,307.11 62.00,307.00
             62.00,307.00 30.00,303.90 30.00,303.90
             30.00,303.90 20.00,303.90 20.00,303.90
             14.92,303.09 16.03,302.17 9.00,302.00 Z" />
  <path id="Selection #4"
        fill="none" stroke="black" stroke-width="1"
        d="M 338.00,189.00
           C 338.00,189.00 337.00,190.00 337.00,190.00
             337.00,190.00 342.22,204.99 342.22,204.99
             342.22,204.99 365.53,263.00 365.53,263.00
             393.23,325.17 419.16,371.26 455.51,428.58
             455.51,428.58 478.59,463.00 478.59,463.00
             478.59,463.00 491.00,481.00 491.00,481.00
             491.00,481.00 492.04,465.00 492.04,465.00
             492.04,465.00 492.04,450.00 492.04,450.00
             492.04,450.00 493.00,440.00 493.00,440.00
             493.00,440.00 493.00,424.00 493.00,424.00
             493.00,424.00 494.00,409.00 494.00,409.00
             494.00,409.00 494.00,215.00 494.00,215.00
             494.00,215.00 467.00,215.00 467.00,215.00
             467.00,215.00 438.00,211.76 438.00,211.76
             438.00,211.76 432.00,210.26 432.00,210.26
             432.00,210.26 423.00,209.63 423.00,209.63
             394.25,204.26 366.21,196.73 338.00,189.00 Z" />
  <path id="Selection #3"
        fill="none" stroke="black" stroke-width="1"
        d="M 65.00,69.00
           C 65.00,69.00 89.34,107.00 89.34,107.00
             111.93,143.80 140.04,191.89 157.49,231.01
             166.02,250.14 174.40,270.10 180.97,290.00
             180.97,290.00 186.55,307.17 186.55,307.17
             187.68,311.08 188.38,315.52 191.49,318.49
             193.72,320.61 200.82,322.22 204.00,323.09
             204.00,323.09 221.00,328.58 221.00,328.58
             221.00,328.58 283.00,351.55 283.00,351.55
             308.79,362.26 362.84,391.43 387.99,406.08
             387.99,406.08 433.00,433.00 433.00,433.00
             431.29,426.69 424.90,418.96 421.37,413.04
             421.37,413.04 397.78,373.80 397.78,373.80
             397.78,373.80 386.95,354.00 386.95,354.00
             371.41,326.40 357.52,298.10 345.06,269.00
             345.06,269.00 323.78,212.00 323.78,212.00
             323.78,212.00 318.90,196.00 318.90,196.00
             318.21,193.70 317.99,190.27 316.40,188.56
             313.96,185.92 297.47,181.94 293.00,180.42
             293.00,180.42 266.00,171.37 266.00,171.37
             266.00,171.37 233.00,158.25 233.00,158.25
             192.65,141.81 153.88,120.88 116.00,99.43
             116.00,99.43 65.00,69.00 65.00,69.00 Z" />
  <path id="Selection #2"
        fill="none" stroke="black" stroke-width="1"
        d="M 9.00,19.00
           C 9.00,19.00 9.00,285.00 9.00,285.00
             9.00,285.00 38.00,285.00 38.00,285.00
             38.00,285.00 53.00,286.83 53.00,286.83
             53.00,286.83 66.00,287.77 66.00,287.77
             66.00,287.77 74.00,289.98 74.00,289.98
             74.00,289.98 83.00,289.98 83.00,289.98
             83.00,289.98 90.00,291.88 90.00,291.88
             90.00,291.88 109.00,295.37 109.00,295.37
             109.00,295.37 116.00,297.32 116.00,297.32
             116.00,297.32 132.00,300.38 132.00,300.38
             132.00,300.38 138.00,302.37 138.00,302.37
             138.00,302.37 151.00,305.39 151.00,305.39
             151.00,305.39 167.00,310.00 167.00,310.00
             167.00,310.00 156.43,281.00 156.43,281.00
             156.43,281.00 154.14,274.00 154.14,274.00
             154.14,274.00 138.51,237.99 138.51,237.99
             138.51,237.99 131.72,222.00 131.72,222.00
             131.72,222.00 120.17,199.00 120.17,199.00
             120.17,199.00 85.28,133.42 85.28,133.42
             85.28,133.42 64.15,99.00 64.15,99.00
             64.15,99.00 30.95,48.58 30.95,48.58
             30.95,48.58 9.00,19.00 9.00,19.00 Z" />
  <path id="Selection #1"
        fill="none" stroke="black" stroke-width="1"
        d="M 303.00,9.00
           C 303.00,9.00 304.00,21.00 304.00,21.00
             304.00,21.00 305.30,41.00 305.30,41.00
             305.30,41.00 306.98,49.00 306.98,49.00
             306.98,49.00 306.98,59.00 306.98,59.00
             306.98,59.00 309.12,68.00 309.12,68.00
             309.12,68.00 310.32,77.00 310.32,77.00
             310.32,77.00 312.04,84.00 312.04,84.00
             312.04,84.00 312.04,90.00 312.04,90.00
             312.04,90.00 314.45,97.00 314.45,97.00
             314.45,97.00 317.27,113.00 317.27,113.00
             317.27,113.00 319.80,121.00 319.80,121.00
             319.80,121.00 328.77,154.00 328.77,154.00
             328.77,154.00 333.26,166.53 333.26,166.53
             333.26,166.53 343.00,171.16 343.00,171.16
             343.00,171.16 371.00,179.00 371.00,179.00
             371.00,179.00 398.00,185.32 398.00,185.32
             398.00,185.32 406.00,187.74 406.00,187.74
             406.00,187.74 423.99,190.77 423.99,190.77
             423.99,190.77 431.17,192.99 431.17,192.99
             431.17,192.99 441.00,192.99 441.00,192.99
             441.00,192.99 448.00,194.81 448.00,194.81
             448.00,194.81 462.00,196.21 462.00,196.21
             462.00,196.21 475.00,198.00 475.00,198.00
             475.00,198.00 494.00,198.00 494.00,198.00
             494.00,198.00 494.00,9.00 494.00,9.00
             494.00,9.00 303.00,9.00 303.00,9.00 Z" />
  <path id="Selection"
        fill="none" stroke="black" stroke-width="1"
        d="M 16.00,9.00
           C 20.90,14.43 36.32,24.10 42.96,28.42
             42.96,28.42 80.00,52.81 80.00,52.81
             116.97,75.97 154.96,98.32 194.00,117.83
             194.00,117.83 228.00,133.49 228.00,133.49
             228.00,133.49 281.83,155.34 281.83,155.34
             288.47,157.89 303.89,164.57 310.00,165.00
             310.00,165.00 305.37,146.00 305.37,146.00
             305.37,146.00 295.60,107.00 295.60,107.00
             295.60,107.00 294.63,100.00 294.63,100.00
             294.63,100.00 289.98,79.00 289.98,79.00
             289.98,79.00 289.98,70.00 289.98,70.00
             289.98,70.00 288.25,64.00 288.25,64.00
             288.25,64.00 286.91,47.00 286.91,47.00
             286.91,47.00 285.00,33.00 285.00,33.00
             285.00,33.00 285.00,9.00 285.00,9.00
             285.00,9.00 16.00,9.00 16.00,9.00 Z" />
</svg>
