<?xml version="1.0" encoding="UTF-8" standalone="no"?>
<!DOCTYPE svg PUBLIC "-//W3C//DTD SVG 20010904//EN"
              "http://www.w3.org/TR/2001/REC-SVG-20010904/DTD/svg10.dtd">

<svg xmlns="http://www.w3.org/2000/svg"
     width="5.55556in" height="5.55556in"
     viewBox="0 0 500 500">
  <path id="Selection #26"
        fill="none" stroke="black" stroke-width="1"
        d="M 462.00,494.00
           C 462.00,494.00 493.00,494.00 493.00,494.00
             493.00,494.00 493.00,465.00 493.00,465.00
             482.53,465.58 471.75,472.97 466.60,482.00
             464.72,485.29 463.16,490.32 462.00,494.00 Z" />
  <path id="Selection #25"
        fill="none" stroke="black" stroke-width="1"
        d="M 158.00,493.00
           C 162.49,494.78 174.59,494.00 180.00,494.00
             180.00,494.00 227.00,494.00 227.00,494.00
             227.00,494.00 389.00,494.00 389.00,494.00
             389.00,494.00 448.00,494.00 448.00,494.00
             457.11,493.83 455.13,490.65 457.00,483.00
             457.00,483.00 423.00,469.08 423.00,469.08
             423.00,469.08 363.00,443.79 363.00,443.79
             356.07,440.93 335.16,430.83 329.00,430.74
             325.64,430.70 319.44,433.19 316.00,434.34
             316.00,434.34 286.00,445.67 286.00,445.67
             286.00,445.67 201.00,477.03 201.00,477.03
             201.00,477.03 158.00,493.00 158.00,493.00 Z" />
  <path id="Selection #24"
        fill="none" stroke="black" stroke-width="1"
        d="M 184.00,370.00
           C 184.00,370.00 199.96,384.33 199.96,384.33
             199.96,384.33 241.82,422.48 241.82,422.48
             246.54,426.69 261.53,441.59 266.00,443.09
             269.39,444.24 275.53,441.52 278.91,440.34
             278.91,440.34 304.00,430.75 304.00,430.75
             308.76,428.97 314.38,427.63 318.00,424.00
             318.00,424.00 281.58,409.64 281.58,409.64
             281.58,409.64 212.09,381.11 212.09,381.11
             212.09,381.11 184.00,370.00 184.00,370.00 Z" />
  <path id="Selection #23"
        fill="none" stroke="black" stroke-width="1"
        d="M 190.00,363.00
           C 190.00,363.00 234.00,381.85 234.00,381.85
             234.00,381.85 291.00,405.40 291.00,405.40
             291.00,405.40 320.00,417.00 320.00,417.00
             317.90,407.29 308.80,392.33 304.65,383.00
             303.44,380.28 299.44,370.43 297.45,369.02
             295.79,367.84 292.10,367.97 290.00,367.72
             290.00,367.72 273.00,366.00 273.00,366.00
             273.00,366.00 257.00,366.00 257.00,366.00
             257.00,366.00 226.00,364.00 226.00,364.00
             226.00,364.00 207.00,363.00 207.00,363.00
             207.00,363.00 190.00,363.00 190.00,363.00 Z" />
  <path id="Selection #22"
        fill="none" stroke="black" stroke-width="1"
        d="M 259.00,268.00
           C 259.00,268.00 274.83,303.04 274.83,303.04
             274.83,303.04 300.18,356.72 300.18,356.72
             300.18,356.72 309.93,376.00 309.93,376.00
             309.93,376.00 324.97,408.39 324.97,408.39
             324.97,408.39 333.21,422.44 333.21,422.44
             333.21,422.44 350.00,430.00 350.00,430.00
             350.00,430.00 378.00,441.81 378.00,441.81
             378.00,441.81 397.41,450.36 397.41,450.36
             397.41,450.36 436.75,466.70 436.75,466.70
             436.75,466.70 461.00,477.00 461.00,477.00
             464.98,470.18 461.97,469.64 453.67,461.33
             453.67,461.33 418.86,426.42 418.86,426.42
             418.86,426.42 314.00,322.00 314.00,322.00
             314.00,322.00 279.00,287.00 279.00,287.00
             273.45,281.45 265.01,272.30 259.00,268.00 Z" />
  <path id="Selection #21"
        fill="none" stroke="black" stroke-width="1"
        d="M 264.00,261.00
           C 264.00,261.00 304.58,302.28 304.58,302.28
             304.58,302.28 398.00,395.33 398.00,395.33
             398.00,395.33 422.48,419.68 422.48,419.68
             422.48,419.68 458.05,455.17 458.05,455.17
             467.85,464.76 466.91,466.86 474.00,464.00
             474.00,464.00 460.37,430.00 460.37,430.00
             460.37,430.00 449.76,404.00 449.76,404.00
             449.76,404.00 438.41,378.00 438.41,378.00
             438.41,378.00 426.60,350.00 426.60,350.00
             426.60,350.00 419.09,334.52 419.09,334.52
             419.09,334.52 405.00,327.54 405.00,327.54
             405.00,327.54 394.72,322.18 394.72,322.18
             394.72,322.18 372.04,311.83 372.04,311.83
             372.04,311.83 298.00,276.62 298.00,276.62
             298.00,276.62 264.00,261.00 264.00,261.00 Z" />
  <path id="Selection #20"
        fill="none" stroke="black" stroke-width="1"
        d="M 360.00,192.00
           C 360.00,192.00 361.00,209.00 361.00,209.00
             361.00,209.00 361.00,226.00 361.00,226.00
             361.00,226.00 363.00,250.00 363.00,250.00
             363.00,250.00 363.00,269.00 363.00,269.00
             363.00,269.00 364.92,286.00 364.92,286.00
             364.92,286.00 364.92,301.00 364.92,301.00
             364.92,301.00 415.00,323.00 415.00,323.00
             415.00,323.00 402.62,293.00 402.62,293.00
             402.62,293.00 382.42,243.97 382.42,243.97
             382.42,243.97 371.04,217.00 371.04,217.00
             371.04,217.00 360.00,192.00 360.00,192.00 Z" />
  <path id="Selection #19"
        fill="none" stroke="black" stroke-width="1"
        d="M 492.00,156.00
           C 492.00,156.00 478.66,193.09 478.66,193.09
             478.66,193.09 443.79,287.00 443.79,287.00
             443.79,287.00 433.32,314.72 433.32,314.72
             433.32,314.72 428.16,331.00 428.16,331.00
             428.16,331.00 435.00,351.00 435.00,351.00
             435.00,351.00 455.07,398.00 455.07,398.00
             455.07,398.00 466.21,425.00 466.21,425.00
             466.21,425.00 473.20,441.00 473.20,441.00
             473.20,441.00 481.30,457.96 481.30,457.96
             481.30,457.96 493.00,457.00 493.00,457.00
             493.00,457.00 493.00,245.00 493.00,245.00
             493.00,245.00 493.00,184.00 493.00,184.00
             493.00,184.00 492.00,156.00 492.00,156.00 Z" />
  <path id="Selection #18"
        fill="none" stroke="black" stroke-width="1"
        d="M 369.00,190.00
           C 369.41,196.32 376.42,209.22 378.96,215.99
             378.96,215.99 407.40,285.00 407.40,285.00
             407.40,285.00 416.79,307.00 416.79,307.00
             418.83,311.95 420.10,317.21 424.00,321.00
             424.60,312.51 434.17,292.12 437.33,283.00
             438.51,279.58 441.03,274.46 440.82,271.00
             440.47,265.43 427.41,252.41 423.04,247.76
             423.04,247.76 391.15,213.00 391.15,213.00
             385.72,206.82 375.26,194.49 369.00,190.00 Z" />
  <path id="Selection #17"
        fill="none" stroke="black" stroke-width="1"
        d="M 111.00,494.00
           C 111.00,494.00 130.00,494.00 130.00,494.00
             142.31,493.98 157.30,485.98 169.00,481.62
             169.00,481.62 224.01,461.30 224.01,461.30
             233.36,457.70 248.66,451.00 258.00,449.00
             256.19,442.49 243.30,432.97 238.04,428.18
             238.04,428.18 204.68,397.53 204.68,397.53
             204.68,397.53 186.48,381.24 186.48,381.24
             186.48,381.24 169.18,365.52 169.18,365.52
             167.24,363.78 163.30,360.90 163.87,357.93
             165.18,351.13 179.73,354.97 185.00,355.00
             185.00,355.00 215.00,356.00 215.00,356.00
             215.00,356.00 238.00,358.00 238.00,358.00
             238.00,358.00 259.00,358.00 259.00,358.00
             268.93,358.02 266.99,359.08 274.00,359.91
             274.00,359.91 294.00,359.91 294.00,359.91
             294.00,359.91 258.63,285.00 258.63,285.00
             258.63,285.00 247.63,262.00 247.63,262.00
             247.63,262.00 241.00,250.00 241.00,250.00
             241.00,250.00 246.09,245.44 246.09,245.44
             246.09,245.44 255.00,248.50 255.00,248.50
             255.00,248.50 271.00,256.20 271.00,256.20
             271.00,256.20 299.00,269.47 299.00,269.47
             299.00,269.47 357.00,297.00 357.00,297.00
             357.00,297.00 357.00,276.00 357.00,276.00
             357.00,276.00 355.00,256.00 355.00,256.00
             355.00,256.00 355.00,233.00 355.00,233.00
             355.00,233.00 353.00,213.00 353.00,213.00
             353.00,213.00 353.00,190.00 353.00,190.00
             353.00,190.00 351.00,167.00 351.00,167.00
             351.00,167.00 356.00,165.00 356.00,165.00
             356.00,165.00 371.02,181.00 371.02,181.00
             371.02,181.00 419.35,233.76 419.35,233.76
             425.46,240.39 439.09,257.73 446.00,261.00
             446.00,261.00 454.97,237.00 454.97,237.00
             454.97,237.00 474.43,185.00 474.43,185.00
             474.43,185.00 487.21,151.00 487.21,151.00
             490.50,142.14 492.98,139.75 493.00,130.00
             493.00,130.00 493.00,114.00 493.00,114.00
             493.00,114.00 483.00,114.00 483.00,114.00
             483.00,114.00 463.00,116.00 463.00,116.00
             451.21,116.02 439.59,118.45 428.00,120.54
             403.74,124.92 378.35,131.42 355.28,140.31
             355.28,140.31 343.00,145.95 343.00,145.95
             302.07,163.86 264.58,187.85 231.92,218.50
             181.19,266.11 143.42,328.83 125.43,396.00
             125.43,396.00 119.45,418.00 119.45,418.00
             119.45,418.00 116.63,435.00 116.63,435.00
             116.63,435.00 115.00,441.00 115.00,441.00
             115.00,441.00 115.00,449.00 115.00,449.00
             114.10,453.98 113.10,453.07 113.00,460.00
             113.00,460.00 111.00,494.00 111.00,494.00 Z" />
  <path id="Selection #16"
        fill="none" stroke="black" stroke-width="1"
        d="M 67.00,433.00
           C 67.00,433.00 64.92,444.00 64.92,444.00
             64.92,444.00 64.92,453.00 64.92,453.00
             64.92,453.00 63.00,466.00 63.00,466.00
             63.00,466.00 63.00,494.00 63.00,494.00
             63.00,494.00 105.00,494.00 105.00,494.00
             105.00,494.00 105.00,467.00 105.00,467.00
             105.00,467.00 107.00,446.00 107.00,446.00
             107.00,446.00 98.00,449.53 98.00,449.53
             90.05,451.52 81.06,449.55 75.17,443.81
             75.17,443.81 67.00,433.00 67.00,433.00 Z" />
  <path id="Selection #15"
        fill="none" stroke="black" stroke-width="1"
        d="M 89.00,409.61
           C 83.72,411.18 80.33,412.38 77.15,417.18
             69.64,428.51 76.64,441.59 90.00,442.68
             92.74,442.90 97.40,442.28 99.91,441.17
             115.29,434.41 109.20,406.92 89.00,409.61 Z" />
  <path id="Selection #14"
        fill="none" stroke="black" stroke-width="1"
        d="M 95.00,333.00
           C 88.27,349.58 82.25,366.72 77.59,384.00
             75.19,392.91 72.03,402.79 72.00,412.00
             75.41,409.13 77.78,406.19 82.01,404.36
             84.90,403.12 87.62,402.92 90.72,402.84
             101.05,402.57 105.84,405.88 112.00,414.00
             115.60,409.33 117.27,398.04 119.00,392.00
             119.00,392.00 126.53,368.00 126.53,368.00
             128.74,362.00 131.64,356.29 133.00,350.00
             115.86,356.58 102.61,350.85 97.00,333.00
             97.00,333.00 95.00,333.00 95.00,333.00 Z" />
  <path id="Selection #13"
        fill="none" stroke="black" stroke-width="1"
        d="M 117.00,312.61
           C 113.54,313.79 111.29,314.63 108.67,317.34
             96.47,329.97 108.68,350.24 127.00,344.54
             137.48,341.28 140.59,326.98 134.43,318.52
             130.59,313.24 123.10,311.50 117.00,312.61 Z" />
  <path id="Selection #12"
        fill="none" stroke="black" stroke-width="1"
        d="M 151.00,235.00
           C 151.00,235.00 144.97,243.32 144.97,243.32
             134.85,258.14 122.51,276.10 114.50,292.00
             111.64,297.67 107.45,303.92 106.00,310.00
             116.75,303.04 129.67,303.30 138.73,313.05
             141.76,316.32 143.18,320.03 145.00,324.00
             145.00,324.00 153.09,309.00 153.09,309.00
             153.09,309.00 162.16,293.91 162.16,293.91
             162.16,293.91 175.74,273.13 175.74,273.13
             175.74,273.13 185.00,259.78 185.00,259.78
             179.53,260.23 177.64,260.96 172.01,259.78
             159.71,256.51 154.58,246.71 153.00,235.00
             153.00,235.00 151.00,235.00 151.00,235.00 Z" />
  <path id="Selection #11"
        fill="none" stroke="black" stroke-width="1"
        d="M 171.00,220.85
           C 165.51,223.80 160.35,229.39 160.16,236.00
             159.84,246.82 172.65,256.70 183.00,252.52
             196.33,247.14 199.54,228.85 185.99,221.57
             181.75,219.30 175.49,219.62 171.00,220.85 Z" />
  <path id="Selection #10"
        fill="none" stroke="black" stroke-width="1"
        d="M 229.00,157.00
           C 214.89,167.45 195.24,184.62 183.74,197.68
             179.37,202.65 173.86,206.94 171.00,213.00
             173.54,212.67 176.49,212.05 179.00,212.21
             187.62,212.77 197.10,219.99 200.16,228.00
             201.45,231.37 201.18,237.33 201.00,241.00
             201.00,241.00 214.18,226.91 214.18,226.91
             223.09,217.59 244.26,197.24 255.00,191.00
             255.00,191.00 242.00,186.55 242.00,186.55
             235.33,183.13 228.94,174.57 228.13,167.00
             227.71,163.12 228.86,160.59 229.00,157.00 Z" />
  <path id="Selection #9"
        fill="none" stroke="black" stroke-width="1"
        d="M 245.01,150.08
           C 229.99,158.14 234.34,180.89 251.00,181.95
             270.82,183.20 275.03,157.61 261.00,150.08
             257.00,148.24 249.26,148.68 245.01,150.08 Z" />
  <path id="Selection #8"
        fill="none" stroke="black" stroke-width="1"
        d="M 251.00,140.00
           C 255.76,141.92 258.25,140.73 264.99,144.78
             275.39,151.04 279.14,162.96 275.00,174.00
             281.00,172.09 290.23,165.57 296.00,162.04
             304.77,156.67 334.32,140.95 343.00,139.00
             343.00,139.00 331.18,132.24 331.18,132.24
             320.00,123.07 321.09,113.21 325.00,101.00
             325.00,101.00 304.00,109.99 304.00,109.99
             304.00,109.99 270.00,128.17 270.00,128.17
             270.00,128.17 251.00,140.00 251.00,140.00 Z" />
  <path id="Selection #7"
        fill="none" stroke="black" stroke-width="1"
        d="M 340.00,97.84
           C 334.00,100.82 327.60,107.69 328.70,115.00
             330.18,124.86 336.33,130.00 346.00,130.00
             348.88,130.00 351.19,130.03 353.91,128.88
             362.86,125.10 366.89,110.41 357.67,101.26
             352.93,96.56 346.12,96.20 340.00,97.84 Z" />
  <path id="Selection #6"
        fill="none" stroke="black" stroke-width="1"
        d="M 352.00,91.00
           C 361.89,92.38 368.97,102.53 370.30,112.00
             371.18,118.22 367.19,123.60 365.00,129.00
             365.00,129.00 406.00,117.59 406.00,117.59
             406.00,117.59 426.00,113.26 426.00,113.26
             426.00,113.26 435.00,112.00 435.00,112.00
             435.00,112.00 435.00,110.00 435.00,110.00
             428.63,105.42 421.52,96.43 422.56,88.00
             423.36,81.42 426.87,76.57 430.00,71.00
             415.63,71.01 387.72,79.14 373.00,83.14
             366.83,84.82 356.50,86.53 352.00,91.00 Z" />
  <path id="Selection #5"
        fill="none" stroke="black" stroke-width="1"
        d="M 440.04,73.76
           C 420.76,82.25 431.74,111.36 452.00,105.49
             464.85,101.77 468.45,85.06 458.22,76.16
             453.68,72.21 445.56,72.44 440.04,73.76 Z" />
  <path id="Selection #4"
        fill="none" stroke="black" stroke-width="1"
        d="M 458.00,67.00
           C 465.00,74.04 470.98,78.11 470.99,89.00
             471.00,91.92 470.90,94.25 469.78,97.00
             468.42,100.35 465.04,104.74 463.00,108.00
             463.00,108.00 477.00,108.00 477.00,108.00
             477.00,108.00 493.00,107.00 493.00,107.00
             493.00,107.00 493.00,66.00 493.00,66.00
             493.00,66.00 477.00,66.00 477.00,66.00
             477.00,66.00 458.00,67.00 458.00,67.00 Z" />
  <path id="Selection #3"
        fill="none" stroke="black" stroke-width="1"
        d="M 170.00,42.00
           C 173.51,48.21 181.77,55.90 187.00,61.34
             187.00,61.34 203.00,79.00 203.00,79.00
             208.18,84.26 214.95,90.25 218.00,97.00
             206.61,99.56 208.52,98.98 197.00,99.00
             197.00,99.00 178.00,101.05 178.00,101.05
             178.00,101.05 165.00,101.05 165.00,101.05
             165.00,101.05 157.00,102.84 157.00,102.84
             157.00,102.84 145.00,102.84 145.00,102.84
             145.00,102.84 160.38,150.72 160.38,150.72
             162.49,157.29 166.11,163.01 165.00,170.00
             165.00,170.00 132.00,161.41 132.00,161.41
             132.00,161.41 96.00,152.00 96.00,152.00
             96.00,152.00 95.00,153.00 95.00,153.00
             95.00,153.00 98.37,171.00 98.37,171.00
             98.37,171.00 101.74,187.00 101.74,187.00
             101.74,187.00 102.45,193.00 102.45,193.00
             102.45,193.00 108.00,224.00 108.00,224.00
             102.13,222.05 90.41,213.06 84.99,208.98
             84.99,208.98 54.00,186.98 54.00,186.98
             54.00,186.98 40.67,177.54 40.67,177.54
             39.23,176.52 37.04,174.77 35.17,175.43
             32.56,176.36 28.40,186.22 26.98,189.00
             26.98,189.00 13.98,215.00 13.98,215.00
             10.84,221.03 7.11,226.07 7.00,233.00
             7.00,233.00 7.00,320.00 7.00,320.00
             7.00,320.00 7.00,494.00 7.00,494.00
             7.00,494.00 55.00,494.00 55.00,494.00
             55.00,494.00 55.00,477.00 55.00,477.00
             55.01,469.43 55.87,467.05 56.72,460.00
             56.72,460.00 58.17,444.00 58.17,444.00
             58.17,444.00 61.74,424.00 61.74,424.00
             83.14,298.09 158.98,188.10 268.00,121.46
             268.00,121.46 304.00,102.47 304.00,102.47
             336.38,87.35 346.91,82.49 382.00,73.56
             382.00,73.56 396.00,69.50 396.00,69.50
             396.00,69.50 421.00,64.74 421.00,64.74
             421.00,64.74 427.00,63.06 427.00,63.06
             427.00,63.06 435.00,63.06 435.00,63.06
             435.00,63.06 442.00,61.26 442.00,61.26
             442.00,61.26 467.00,58.96 467.00,58.96
             467.00,58.96 482.00,58.96 482.00,58.96
             482.00,58.96 493.00,58.00 493.00,58.00
             493.00,58.00 493.00,10.00 493.00,10.00
             493.00,10.00 233.00,10.00 233.00,10.00
             222.34,10.02 217.72,14.86 208.61,19.89
             208.61,19.89 170.00,42.00 170.00,42.00 Z" />
  <path id="Selection #2"
        fill="none" stroke="black" stroke-width="1"
        d="M 141.00,10.00
           C 141.00,10.00 139.29,22.00 139.29,22.00
             139.29,22.00 138.68,29.00 138.68,29.00
             133.10,63.02 112.53,96.01 84.83,116.33
             78.93,120.66 72.46,124.14 66.00,127.55
             52.09,134.90 45.43,137.25 30.00,140.30
             24.56,141.38 25.19,141.92 19.00,142.00
             19.00,142.00 14.00,142.00 14.00,142.00
             5.70,142.16 7.00,144.02 7.00,159.00
             7.00,159.00 7.00,213.00 7.00,213.00
             7.00,213.00 24.50,179.00 24.50,179.00
             25.93,176.14 29.69,167.36 32.34,166.15
             36.17,164.40 46.58,173.41 49.83,175.77
             49.83,175.77 74.73,193.37 74.73,193.37
             81.55,198.36 90.57,205.50 98.00,209.00
             97.82,201.88 95.44,194.98 94.26,188.00
             94.26,188.00 89.63,161.00 89.63,161.00
             89.04,157.96 85.92,146.85 87.78,144.60
             90.20,141.69 101.60,145.81 105.00,146.72
             105.00,146.72 156.00,160.00 156.00,160.00
             156.00,160.00 135.00,98.00 135.00,98.00
             144.26,95.59 148.40,95.02 158.00,95.00
             158.00,95.00 178.00,92.92 178.00,92.92
             178.00,92.92 191.00,92.92 191.00,92.92
             196.64,92.22 196.29,91.17 204.00,91.00
             204.00,91.00 159.00,40.00 159.00,40.00
             159.00,40.00 178.00,29.14 178.00,29.14
             178.00,29.14 211.00,11.00 211.00,11.00
             211.00,11.00 189.00,10.00 189.00,10.00
             189.00,10.00 141.00,10.00 141.00,10.00 Z" />
  <path id="Selection #1"
        fill="none" stroke="black" stroke-width="1"
        d="M 108.00,10.00
           C 107.99,17.82 106.44,25.46 104.41,33.00
             95.26,67.01 71.98,92.33 39.00,104.84
             22.68,111.03 20.50,108.58 7.00,111.00
             7.00,111.00 7.00,136.00 7.00,136.00
             7.00,136.00 27.00,133.87 27.00,133.87
             31.04,133.42 47.99,128.56 52.00,126.89
             61.13,123.08 78.14,113.38 85.82,107.14
             107.95,89.14 124.41,61.83 130.55,34.00
             130.55,34.00 131.26,28.00 131.26,28.00
             132.34,21.59 132.98,24.67 133.00,16.00
             133.00,16.00 133.00,10.00 133.00,10.00
             133.00,10.00 108.00,10.00 108.00,10.00 Z" />
  <path id="Selection"
        fill="none" stroke="black" stroke-width="1"
        d="M 7.00,10.00
           C 7.00,10.00 7.00,104.00 7.00,104.00
             15.20,103.92 13.16,103.03 19.00,102.21
             19.00,102.21 26.00,101.55 26.00,101.55
             33.75,99.87 41.01,96.66 48.00,93.02
             72.84,80.12 88.47,61.95 96.54,35.00
             99.00,26.81 100.97,18.58 101.00,10.00
             101.00,10.00 7.00,10.00 7.00,10.00 Z" />
</svg>
