<?xml version="1.0" encoding="UTF-8" standalone="no"?>
<!DOCTYPE svg PUBLIC "-//W3C//DTD SVG 20010904//EN"
              "http://www.w3.org/TR/2001/REC-SVG-20010904/DTD/svg10.dtd">

<svg xmlns="http://www.w3.org/2000/svg"
     width="5.55556in" height="5.55556in"
     viewBox="0 0 500 500">
     
<g transform="scale(0.5)" id="mosacacia4path" class="svg-menu__path__seleccion" class="clickable-path"  
 cursor="pointer" pointer-events="all">
 
  <path onclick="top.notify(evt)" id="Selection #9"
        fill="none" stroke="black" stroke-width="0.5"
        d="M 495.00,460.00
           C 495.00,460.00 471.22,470.65 471.22,470.65
             471.22,470.65 466.19,480.00 466.19,480.00
             466.19,480.00 460.00,496.00 460.00,496.00
             460.00,496.00 496.00,496.00 496.00,496.00
             496.00,496.00 496.00,473.00 496.00,473.00
             496.00,473.00 495.00,460.00 495.00,460.00 Z" />
  <path onclick="top.notify(evt)" id="Selection #8"
        fill="none" stroke="black" stroke-width="0.5"
        d="M 495.00,373.00
           C 495.00,373.00 475.00,388.21 475.00,388.21
             473.00,389.76 468.19,392.96 467.35,395.18
             466.25,398.08 469.01,403.33 470.23,406.00
             470.23,406.00 479.61,429.00 479.61,429.00
             480.87,436.18 478.05,442.01 470.02,440.97
             465.25,440.35 464.08,435.71 462.00,432.00
             462.00,432.00 453.25,415.00 453.25,415.00
             451.95,412.42 450.34,408.53 447.79,407.02
             445.86,405.89 443.17,406.02 441.00,406.00
             441.00,406.00 403.04,404.00 403.04,404.00
             403.04,404.00 403.04,421.00 403.04,421.00
             403.04,421.00 404.00,431.00 404.00,431.00
             404.05,435.31 403.59,446.14 406.01,449.51
             407.43,451.49 411.74,453.02 414.00,454.11
             414.00,454.11 433.98,463.88 433.98,463.88
             438.30,466.27 441.03,472.06 437.98,476.57
             435.38,480.41 428.78,479.85 425.00,478.64
             425.00,478.64 406.00,471.55 406.00,471.55
             402.99,470.33 398.19,467.72 395.04,467.61
             391.08,467.47 388.88,471.09 386.88,474.00
             381.93,481.22 375.85,488.14 372.00,496.00
             372.00,496.00 445.00,496.00 445.00,496.00
             445.00,496.00 452.53,494.98 452.53,494.98
             452.53,494.98 457.18,487.00 457.18,487.00
             457.18,487.00 465.70,467.27 465.70,467.27
             465.70,467.27 474.00,462.83 474.00,462.83
             474.00,462.83 496.00,454.00 496.00,454.00
             496.00,454.00 496.00,399.00 496.00,399.00
             496.00,399.00 495.00,373.00 495.00,373.00 Z" />
  <path onclick="top.notify(evt)" id="Selection #7"
        fill="none" stroke="black" stroke-width="0.5"
        d="M 495.00,312.00
           C 481.67,339.88 461.88,358.63 431.00,365.33
             422.19,367.24 413.93,367.10 405.00,367.00
             394.74,366.88 379.42,363.16 370.00,359.13
             370.00,359.13 347.00,349.00 347.00,349.00
             347.00,349.00 352.37,359.00 352.37,359.00
             357.70,369.10 362.18,379.79 364.55,391.00
             366.19,398.75 365.83,400.53 365.88,407.96
             365.88,407.96 365.88,425.00 365.88,425.00
             363.55,442.59 353.46,462.51 340.99,474.99
             330.99,484.98 323.08,488.73 311.00,495.00
             315.25,496.69 322.29,496.00 327.00,496.00
             327.00,496.00 358.00,496.00 358.00,496.00
             360.03,495.96 362.00,496.00 363.83,494.98
             366.67,493.40 369.63,488.67 371.55,486.00
             371.55,486.00 383.01,470.00 383.01,470.00
             384.60,467.81 388.72,461.44 391.21,460.81
             393.39,460.26 397.74,462.49 400.00,463.26
             400.00,463.26 423.00,471.21 423.00,471.21
             424.82,472.09 432.41,475.37 432.41,471.21
             432.41,468.19 426.14,466.25 424.00,465.20
             424.00,465.20 407.00,457.10 407.00,457.10
             404.73,455.95 401.45,454.71 399.98,452.61
             397.83,449.53 398.02,442.70 398.00,439.00
             398.00,439.00 397.00,424.00 397.00,424.00
             397.00,424.00 396.00,398.08 396.00,398.08
             396.00,398.08 407.00,398.08 407.00,398.08
             407.00,398.08 426.00,400.21 426.00,400.21
             426.00,400.21 439.00,400.21 439.00,400.21
             442.51,400.89 450.16,400.57 452.51,402.60
             454.57,404.38 463.19,422.16 465.22,426.00
             466.29,428.04 468.32,432.84 470.33,433.83
             475.80,436.54 472.59,426.53 472.00,425.00
             472.00,425.00 462.99,403.00 462.99,403.00
             461.78,400.07 459.21,396.18 460.81,393.09
             461.90,390.98 466.02,388.10 468.00,386.58
             468.00,386.58 486.00,373.12 486.00,373.12
             488.74,371.09 493.43,367.93 494.98,364.96
             496.10,362.82 495.98,360.34 496.00,358.00
             496.00,358.00 496.00,328.00 496.00,328.00
             496.00,323.29 496.69,316.25 495.00,312.00 Z" />
  <path onclick="top.notify(evt)" id="Selection #6" 
        fill="none" stroke="black" stroke-width="0.5"
        d="M 495.00,50.00
           C 495.00,50.00 458.00,56.33 458.00,56.33
             434.93,61.76 412.60,69.64 392.00,81.43
             357.75,101.02 329.63,135.03 321.21,174.00
             319.36,182.54 318.01,184.97 318.00,194.00
             318.00,194.00 318.00,211.00 318.00,211.00
             318.02,223.94 323.58,242.18 328.86,254.00
             333.19,263.68 341.99,277.81 348.88,285.83
             366.60,306.45 390.49,319.11 418.00,316.16
             431.25,314.75 440.94,311.10 450.71,301.57
             455.66,296.75 459.91,290.62 462.00,284.00
             452.70,283.99 441.69,282.10 433.00,278.77
             428.74,277.13 423.42,273.81 420.02,270.79
             397.45,250.81 411.97,214.96 436.00,203.54
             449.66,197.05 463.69,199.97 474.99,209.46
             483.96,217.00 489.31,228.01 495.00,238.00
             495.00,238.00 496.00,223.00 496.00,223.00
             496.00,223.00 496.00,195.00 496.00,195.00
             496.00,195.00 496.00,98.00 496.00,98.00
             496.00,98.00 496.00,66.00 496.00,66.00
             496.00,66.00 495.00,50.00 495.00,50.00 Z" />
  <path onclick="top.notify(evt)" id="Selection #5"
        fill="none" stroke="black" stroke-width="0.5"
        d="M 48.00,496.00
           C 48.00,496.00 237.00,496.00 237.00,496.00
             232.80,492.68 229.49,492.08 225.00,489.29
             212.23,481.38 196.25,466.59 197.52,450.00
             199.72,421.07 237.81,398.44 262.99,414.96
             275.96,423.47 278.94,436.93 281.28,451.00
             282.13,456.09 282.73,456.17 283.00,462.00
             289.74,459.53 294.57,456.44 299.71,451.42
             320.83,430.83 319.45,398.11 305.41,374.00
             299.16,363.28 288.06,352.09 278.00,344.91
             259.44,331.66 243.46,324.61 221.00,320.92
             215.85,320.07 210.19,319.06 205.00,319.00
             191.87,318.85 175.59,320.67 163.00,324.44
             101.78,342.74 65.19,400.05 53.20,460.00
             50.40,474.01 48.00,481.09 48.00,496.00 Z" />
  <path onclick="top.notify(evt)" id="Selection #4"
        fill="none" stroke="black" stroke-width="0.5"
        d="M 496.00,45.00
           C 496.00,45.00 496.00,6.00 496.00,6.00
             496.00,6.00 466.00,6.00 466.00,6.00
             452.23,6.02 425.28,16.15 412.00,21.55
             360.49,42.50 311.12,77.01 287.31,129.00
             274.64,156.67 268.95,181.55 269.00,212.00
             269.01,219.58 269.99,222.85 270.85,230.00
             271.74,237.48 273.08,247.88 275.21,255.00
             280.20,271.72 286.40,282.99 298.17,296.00
             298.17,296.00 313.00,310.00 313.00,310.00
             332.92,329.70 353.49,348.25 381.00,356.56
             390.17,359.33 399.52,359.97 409.00,360.68
             409.00,360.68 418.00,360.04 418.00,360.04
             451.74,358.52 480.38,335.69 491.34,304.00
             494.26,295.58 495.89,290.11 496.00,281.00
             496.25,259.54 492.28,240.48 479.22,223.00
             471.48,212.64 462.54,205.55 449.00,206.02
             426.03,206.81 405.08,241.38 419.94,262.00
             429.18,274.82 446.45,276.97 461.00,277.00
             463.21,277.00 467.72,276.67 469.19,278.60
             470.57,280.41 469.15,283.19 468.42,285.00
             466.25,290.34 462.91,296.39 459.24,300.83
             448.76,313.52 431.63,322.80 415.00,323.00
             415.00,323.00 409.00,323.00 409.00,323.00
             387.21,322.97 365.24,311.07 350.09,295.91
             343.51,289.33 336.92,279.93 331.95,272.00
             325.55,261.79 319.50,249.62 316.17,238.00
             314.30,231.47 313.66,224.69 312.72,218.00
             311.80,211.56 311.03,211.30 311.00,204.00
             310.95,193.96 311.46,195.88 312.72,187.00
             313.72,179.94 314.51,172.89 316.51,166.00
             325.62,134.62 349.42,103.47 376.00,84.77
             400.73,67.37 428.57,56.62 458.00,50.40
             470.68,47.71 482.92,45.01 496.00,45.00 Z" />
  <path onclick="top.notify(evt)" id="Selection #3"
        fill="none" stroke="black" stroke-width="0.5"
        d="M 3.00,496.00
           C 3.00,496.00 41.00,496.00 41.00,496.00
             41.00,496.00 44.00,475.00 44.00,475.00
             54.17,406.62 90.66,341.49 160.00,319.39
             170.98,315.89 182.37,313.14 194.00,313.00
             216.18,312.74 224.93,313.86 246.00,321.00
             261.37,326.22 277.84,336.62 290.00,347.29
             316.83,370.81 333.34,409.80 313.55,443.00
             309.96,449.02 305.25,454.20 300.00,458.82
             294.01,464.09 283.87,469.53 276.00,471.00
             276.00,453.74 275.99,431.00 260.00,419.99
             255.42,416.84 251.43,416.07 246.00,416.00
             240.72,415.94 237.15,415.87 232.00,417.44
             218.52,421.57 204.63,435.35 204.04,450.00
             203.54,462.34 210.65,471.68 220.00,478.98
             235.60,491.18 259.49,496.22 279.00,496.00
             287.60,495.90 293.95,494.23 302.00,491.61
             336.25,480.45 359.57,451.51 360.00,415.00
             360.49,373.22 339.76,343.19 310.17,315.59
             289.63,296.44 270.66,282.30 243.00,274.92
             236.93,273.31 228.32,272.42 222.00,271.92
             196.10,269.84 172.87,272.12 148.00,280.03
             101.22,294.91 60.61,331.71 36.50,374.00
             36.50,374.00 21.34,405.00 21.34,405.00
             21.34,405.00 8.97,438.00 8.97,438.00
             5.71,448.26 3.02,453.80 3.00,465.00
             3.00,465.00 3.00,496.00 3.00,496.00 Z" />
  <path onclick="top.notify(evt)" id="Selection #2"
        fill="none" stroke="black" stroke-width="0.5"
        d="M 231.00,53.00
           C 233.02,60.11 237.91,62.91 238.61,73.00
             238.82,75.90 237.87,79.19 237.12,82.00
             233.32,96.20 224.21,105.86 209.00,106.00
             209.00,106.00 209.91,95.00 209.91,95.00
             210.12,91.23 209.54,89.51 209.16,86.00
             208.03,75.40 205.83,64.53 196.98,57.20
             183.46,46.46 165.17,49.03 151.00,57.20
             148.09,58.64 143.77,60.83 141.65,63.33
             137.76,67.90 136.07,77.10 136.00,83.00
             135.93,89.68 135.53,98.70 137.30,105.00
             144.14,129.37 167.62,147.70 193.00,148.00
             213.85,148.24 221.32,146.45 240.00,137.04
             244.05,135.01 247.05,134.50 249.55,139.06
             255.08,149.16 243.99,164.25 236.00,169.78
             233.58,171.46 225.34,174.85 224.90,177.27
             224.90,177.27 229.85,191.00 229.85,191.00
             233.45,204.49 233.02,205.44 233.00,219.00
             232.99,225.07 231.76,235.04 227.44,239.61
             223.93,243.34 216.92,244.79 212.00,245.56
             203.38,246.91 180.98,243.12 173.00,239.48
             169.81,238.03 166.97,235.85 164.00,234.00
             157.19,246.25 152.26,257.07 137.00,260.33
             133.16,261.15 126.42,261.80 123.65,258.57
             121.07,255.84 122.30,252.81 123.65,250.00
             126.98,243.87 130.37,237.70 132.25,231.00
             137.52,212.24 136.18,192.76 125.91,176.00
             117.98,163.05 103.05,152.29 88.00,149.47
             88.00,149.47 76.00,148.32 76.00,148.32
             69.01,147.80 53.60,149.81 48.17,154.41
             37.18,163.74 30.75,188.89 37.76,202.00
             42.53,210.92 50.58,215.88 60.00,218.78
             62.87,219.67 76.89,221.06 80.00,220.96
             80.00,220.96 92.00,220.00 92.00,220.00
             91.97,223.19 92.03,225.95 90.86,229.00
             86.16,241.14 69.76,249.95 57.00,248.83
             45.51,247.81 46.11,244.76 38.00,241.00
             33.63,255.98 30.27,263.74 19.99,276.00
             5.25,293.56 3.02,287.04 3.00,299.00
             3.00,299.00 3.00,434.00 3.00,434.00
             3.00,434.00 15.86,403.00 15.86,403.00
             25.58,380.99 32.93,367.39 47.47,348.00
             78.00,307.30 118.64,278.45 169.00,268.91
             179.10,266.99 185.23,265.02 196.00,265.00
             196.00,265.00 215.00,265.00 215.00,265.00
             224.99,265.02 245.75,269.15 255.00,272.74
             255.00,272.74 282.00,285.00 282.00,285.00
             282.00,285.00 272.54,266.00 272.54,266.00
             272.54,266.00 269.34,254.00 269.34,254.00
             265.56,238.92 264.99,236.66 263.91,221.00
             263.91,221.00 263.00,211.00 263.00,211.00
             262.80,193.89 264.92,178.48 269.36,162.00
             269.36,162.00 272.54,150.00 272.54,150.00
             291.25,96.30 327.43,58.58 377.00,31.69
             391.20,23.99 403.81,18.24 419.00,12.72
             425.27,10.44 430.25,8.04 437.00,7.00
             432.88,5.36 427.44,6.00 423.00,6.00
             423.00,6.00 395.00,6.00 395.00,6.00
             395.00,6.00 298.00,6.00 298.00,6.00
             286.35,6.02 291.47,8.50 275.99,24.00
             265.56,34.43 245.49,49.60 231.00,53.00 Z" />
  <path onclick="top.notify(evt)" id="Selection #1"
        fill="none" stroke="black" stroke-width="0.5"
        d="M 53.00,6.00
           C 51.80,12.59 49.70,21.06 46.60,27.00
             38.24,43.01 21.17,54.60 3.00,55.00
             3.00,55.00 3.00,284.00 3.00,284.00
             14.44,278.59 24.90,260.46 29.72,249.00
             31.27,245.29 33.48,233.05 35.43,231.74
             39.88,228.77 41.04,237.34 49.00,240.78
             61.91,246.36 79.68,240.15 85.00,227.00
             67.23,227.00 48.34,224.95 36.38,210.00
             24.46,195.11 27.65,175.15 37.06,160.00
             39.22,156.53 43.76,150.02 47.09,147.85
             51.13,145.21 67.77,142.39 73.00,142.09
             76.97,141.87 82.04,142.86 86.00,143.61
             89.96,144.36 97.45,145.99 101.00,147.52
             122.45,156.79 140.96,181.24 141.00,205.00
             141.00,205.00 141.00,213.00 141.00,213.00
             140.97,230.35 134.52,239.86 128.00,255.00
             140.40,254.73 147.19,251.87 153.80,241.00
             155.72,237.83 160.64,225.17 163.09,224.45
             167.16,223.26 165.87,229.11 173.02,233.09
             179.87,236.90 192.13,238.99 200.00,239.00
             205.07,239.01 217.69,239.81 221.53,237.10
             225.22,234.50 225.97,230.14 226.57,226.00
             227.72,218.09 227.07,199.39 224.34,192.00
             223.50,189.71 221.56,184.97 220.15,183.14
             216.27,178.11 213.66,181.12 213.00,173.00
             225.33,171.10 241.06,162.99 244.44,150.00
             245.13,147.37 245.00,143.76 245.00,141.00
             245.00,141.00 234.00,146.54 234.00,146.54
             216.98,153.70 197.11,157.17 179.00,152.08
             160.02,146.74 142.19,132.40 134.46,114.00
             132.69,109.77 132.13,106.37 131.12,102.00
             130.04,97.32 128.89,92.85 129.04,88.00
             129.15,84.62 129.94,81.30 130.60,78.00
             131.38,74.13 133.12,65.24 135.09,62.17
             137.79,57.95 145.50,53.52 150.00,51.25
             166.89,42.73 188.13,40.34 202.57,55.18
             214.68,67.63 216.00,83.66 216.00,100.00
             219.11,98.25 222.21,96.44 224.67,93.82
             235.58,82.22 236.65,60.63 219.00,55.00
             219.66,53.11 219.86,51.99 221.42,50.51
             221.42,50.51 241.00,42.97 241.00,42.97
             253.54,36.24 261.85,30.10 272.00,20.00
             276.64,15.38 280.56,12.22 283.00,6.00
             283.00,6.00 53.00,6.00 53.00,6.00 Z" />
  <path onclick="top.notify(evt)" id="Selection"
        fill="none" stroke="black" stroke-width="0.5"
        d="M 3.00,6.00
           C 3.00,6.00 3.00,50.00 3.00,50.00
             7.96,49.00 15.48,47.18 20.00,45.10
             35.50,37.98 45.84,23.14 46.00,6.00
             46.00,6.00 3.00,6.00 3.00,6.00 Z" />
             
             </g>
</svg>
