<?xml version="1.0" encoding="UTF-8" standalone="no"?>
<!DOCTYPE svg PUBLIC "-//W3C//DTD SVG 20010904//EN"
              "http://www.w3.org/TR/2001/REC-SVG-20010904/DTD/svg10.dtd">

<svg xmlns="http://www.w3.org/2000/svg"
     width="5.55556in" height="5.55556in"
     viewBox="0 0 500 500">
  <path id="Selection #10"
        fill="none" stroke="black" stroke-width="1"
        d="M 0.00,0.00
           C 0.00,0.00 0.00,3.00 0.00,3.00
             0.00,3.00 500.00,3.00 500.00,3.00
             500.00,3.00 500.00,0.00 500.00,0.00
             500.00,0.00 0.00,0.00 0.00,0.00 Z" />
  <path id="Selection #9"
        fill="none" stroke="black" stroke-width="1"
        d="M 5.00,303.00
           C 5.00,303.00 5.00,496.00 5.00,496.00
             5.00,496.00 199.00,496.00 199.00,496.00
             194.41,492.36 191.74,492.33 187.00,489.46
             177.81,483.89 168.89,477.13 161.01,469.83
             156.57,465.71 152.17,459.89 148.53,455.00
             137.46,440.12 131.05,424.89 126.48,407.00
             126.48,407.00 124.00,395.00 124.00,395.00
             116.08,399.23 109.72,405.83 106.00,414.00
             113.69,418.38 122.19,422.15 125.87,431.00
             133.09,448.38 117.19,468.92 99.00,468.92
             88.36,468.92 83.07,462.41 75.00,457.00
             72.06,461.88 68.90,466.79 64.83,470.83
             50.79,484.76 34.46,486.00 16.00,486.00
             12.80,461.74 21.74,438.97 44.00,427.00
             40.28,419.11 28.87,411.21 33.04,397.00
             39.55,374.82 65.60,364.84 81.32,385.00
             84.20,388.70 85.72,391.52 87.00,396.00
             96.61,391.71 101.89,386.10 107.00,377.00
             97.34,376.56 90.98,374.51 82.00,371.51
             59.02,363.86 40.04,351.89 24.46,333.00
             19.23,326.65 15.61,321.04 11.45,314.00
             9.13,310.07 8.02,306.42 5.00,303.00 Z" />
  <path id="Selection #8"
        fill="none" stroke="black" stroke-width="1"
        d="M 494.00,303.00
           C 477.75,337.44 454.23,359.44 418.00,371.51
             409.02,374.51 402.66,376.56 393.00,377.00
             398.11,386.10 403.39,391.71 413.00,396.00
             415.70,386.57 423.98,376.40 434.00,374.47
             450.84,371.21 469.19,388.04 467.89,404.00
             467.02,414.84 459.40,419.80 456.00,427.00
             471.45,435.31 480.76,448.78 483.75,466.00
             484.51,470.38 486.80,482.07 482.57,484.98
             480.69,486.27 476.29,486.02 474.00,486.00
             451.74,485.75 436.35,475.82 425.00,457.00
             416.72,462.55 412.02,468.92 401.00,468.92
             382.81,468.92 366.91,448.38 374.13,431.00
             377.81,422.15 386.31,418.38 394.00,414.00
             390.28,405.83 383.92,399.23 376.00,395.00
             373.19,406.14 371.26,417.25 366.86,428.00
             354.49,458.19 331.02,482.27 301.00,495.00
             301.00,495.00 320.00,496.00 320.00,496.00
             320.00,496.00 359.00,496.00 359.00,496.00
             359.00,496.00 495.00,496.00 495.00,496.00
             495.00,496.00 495.00,361.00 495.00,361.00
             495.00,361.00 495.00,322.00 495.00,322.00
             495.00,322.00 494.00,303.00 494.00,303.00 Z" />
  <path id="Selection #7"
        fill="none" stroke="black" stroke-width="1"
        d="M 467.96,263.00
           C 455.46,277.37 434.86,285.08 416.00,285.00
             412.91,284.99 409.97,284.99 407.00,283.99
             399.73,281.52 381.31,268.20 368.00,267.00
             374.06,271.68 387.98,273.90 397.90,284.09
             402.80,289.12 405.19,296.13 406.04,303.00
             406.67,308.10 405.25,314.14 403.64,319.00
             402.12,323.61 400.12,327.36 396.82,330.96
             376.58,353.03 341.98,332.45 341.04,311.00
             340.73,303.95 342.20,300.95 345.74,295.00
             348.53,290.30 350.57,288.18 355.00,285.00
             356.61,289.69 359.94,293.36 365.00,294.46
             368.17,295.16 372.78,293.84 372.64,289.90
             372.46,284.89 366.04,281.64 362.00,280.07
             349.38,275.17 341.24,274.76 328.00,275.00
             316.98,275.21 318.48,285.53 310.00,285.90
             303.86,286.17 300.86,277.92 297.63,276.04
             293.61,273.69 283.60,278.89 280.46,281.63
             276.52,285.09 270.86,295.48 274.02,300.62
             275.86,303.61 286.75,308.01 282.13,315.99
             279.54,320.45 274.15,322.41 272.71,326.17
             271.22,329.51 272.49,335.46 272.71,339.00
             273.73,348.44 273.02,356.07 277.63,365.00
             279.47,368.57 282.47,374.27 287.00,374.51
             291.47,374.75 292.31,370.54 291.65,367.00
             290.69,361.83 287.33,359.33 283.00,357.00
             288.11,349.89 297.86,343.18 307.00,343.18
             323.24,343.18 337.34,360.52 337.96,376.00
             339.08,403.63 306.57,413.49 290.00,405.60
             274.89,398.41 267.51,378.13 263.00,363.00
             261.58,368.10 264.97,374.19 266.66,379.00
             268.97,385.59 271.95,391.88 275.31,398.00
             277.12,401.30 280.34,405.64 281.35,409.00
             282.24,411.95 282.01,417.73 282.00,421.00
             281.95,431.69 278.06,445.87 272.54,455.00
             272.54,455.00 261.00,471.00 261.00,471.00
             261.00,471.00 273.00,469.00 273.00,469.00
             284.09,466.74 295.67,461.76 305.00,455.41
             320.29,445.00 334.52,423.99 339.10,406.00
             341.12,398.09 341.54,391.03 342.09,383.00
             342.09,383.00 342.97,374.00 342.97,374.00
             342.97,374.00 342.09,365.00 342.09,365.00
             341.53,356.85 341.01,348.98 339.00,341.00
             382.99,349.01 430.52,344.41 456.68,303.00
             461.51,295.35 466.35,283.93 467.96,275.00
             468.67,270.68 469.66,267.19 467.96,263.00 Z" />
  <path id="Selection #6"
        fill="none" stroke="black" stroke-width="1"
        d="M 31.00,264.00
           C 31.09,274.29 33.02,280.59 36.80,290.00
             39.68,297.17 43.27,303.97 48.17,310.00
             76.85,345.28 119.21,348.61 161.00,341.00
             154.17,378.47 156.49,420.10 186.00,447.91
             191.94,453.50 198.78,458.18 206.00,461.96
             216.33,467.37 227.75,468.98 239.00,471.00
             239.00,471.00 227.12,455.00 227.12,455.00
             221.47,445.78 216.48,427.84 217.09,417.00
             217.22,414.74 218.05,409.02 218.84,407.00
             218.84,407.00 224.69,397.00 224.69,397.00
             228.85,389.43 236.54,372.33 237.00,364.00
             233.55,369.63 230.25,384.28 222.10,395.00
             216.80,401.96 210.76,406.46 202.00,407.72
             195.65,408.64 189.04,408.13 183.00,405.91
             178.63,404.30 173.41,401.07 170.02,397.90
             149.93,379.13 168.03,345.19 191.00,343.19
             196.56,342.70 202.29,345.13 207.00,347.88
             211.57,350.54 213.92,352.73 217.00,357.00
             213.03,358.82 209.70,360.42 208.43,365.00
             207.37,368.84 207.41,375.31 212.98,374.61
             217.51,374.04 219.91,368.66 221.73,365.00
             226.48,355.49 227.02,342.53 227.00,332.00
             227.00,329.78 227.26,326.50 226.01,324.60
             224.19,321.82 217.62,319.39 216.47,314.00
             214.79,306.14 224.82,303.94 226.00,298.96
             226.71,297.28 226.16,294.68 226.00,293.00
             223.82,284.92 219.41,280.65 212.00,277.31
             209.51,276.19 205.83,274.68 203.10,275.64
             199.03,277.07 196.87,284.60 191.00,285.78
             184.30,287.13 180.57,278.05 177.41,275.99
             175.48,274.74 172.24,275.00 170.00,275.00
             157.60,274.98 148.81,275.21 137.00,280.23
             133.11,281.89 127.31,285.02 127.28,289.91
             127.25,294.06 131.64,295.23 135.00,294.34
             140.24,292.95 142.84,289.63 145.00,285.00
             145.00,285.00 147.00,285.00 147.00,285.00
             151.60,293.63 159.75,299.89 158.81,311.00
             157.15,330.84 132.21,346.05 113.00,338.24
             100.87,333.30 94.21,319.48 93.19,307.00
             92.83,302.73 94.51,296.98 96.07,293.00
             98.31,287.29 102.90,282.31 108.00,278.96
             115.43,274.09 123.62,270.80 132.00,268.00
             126.65,266.24 120.81,270.03 116.00,272.14
             116.00,272.14 109.00,275.18 109.00,275.18
             103.99,277.74 96.21,283.23 91.00,284.47
             88.21,285.13 83.94,285.03 81.00,285.00
             68.78,284.85 52.06,279.26 42.00,272.41
             42.00,272.41 31.00,264.00 31.00,264.00 Z" />
  <path id="Selection #5"
        fill="none" stroke="black" stroke-width="1"
        d="M 241.00,169.00
           C 237.06,165.13 234.98,155.51 233.28,150.00
             229.79,138.63 224.90,123.70 218.10,114.00
             214.16,108.38 210.59,105.73 204.00,103.90
             197.60,102.16 195.36,102.22 189.00,103.90
             182.01,105.72 177.13,107.35 172.21,113.02
             161.31,125.57 168.90,147.15 183.00,153.74
             192.09,157.99 198.86,155.69 207.00,151.00
             205.51,146.29 201.61,140.82 201.65,136.00
             201.73,126.56 211.02,121.06 218.83,126.85
             225.28,131.63 229.77,143.31 231.49,151.00
             232.93,157.43 232.57,162.74 233.22,169.00
             233.53,172.75 234.80,178.30 233.22,181.87
             231.29,186.45 222.63,188.13 222.61,192.86
             222.59,195.78 227.70,198.37 229.85,200.46
             233.73,204.23 233.39,208.22 231.68,213.00
             227.88,223.61 221.33,231.60 210.00,234.64
             207.23,235.19 202.72,236.09 200.09,234.64
             197.12,233.31 193.03,226.87 191.00,224.00
             183.81,227.57 184.30,232.43 179.82,234.98
             177.66,236.21 174.44,236.00 172.00,236.00
             156.68,236.03 146.05,235.40 132.00,228.51
             126.00,225.57 119.46,219.46 121.66,212.02
             123.80,204.82 132.95,203.90 139.00,206.14
             141.34,207.01 144.46,209.44 146.89,208.68
             151.85,207.12 152.09,198.17 151.99,194.00
             151.52,175.01 124.86,163.36 110.02,174.85
             97.68,184.39 94.98,207.71 107.18,218.47
             121.12,230.77 149.37,236.23 167.00,242.00
             153.49,249.00 143.11,247.95 129.00,243.72
             123.06,241.94 120.83,241.55 115.00,238.74
             115.00,238.74 104.00,233.63 104.00,233.63
             94.48,228.79 94.84,226.57 83.00,226.57
             68.03,226.57 53.91,230.33 42.00,239.67
             38.88,242.11 32.22,247.93 31.74,252.00
             31.29,255.74 35.55,259.59 38.00,261.96
             45.58,269.30 55.77,274.38 66.00,277.11
             72.93,278.55 86.18,279.48 93.00,277.11
             93.00,277.11 105.00,271.25 105.00,271.25
             113.39,267.02 121.96,263.10 131.00,260.44
             145.55,256.15 153.03,258.32 167.00,262.00
             156.87,267.54 117.74,274.46 105.52,288.18
             93.58,301.58 99.60,329.88 118.00,334.32
             132.72,337.87 151.60,326.91 151.99,311.00
             152.19,302.42 151.34,301.20 147.00,294.00
             142.00,297.29 139.33,299.82 133.00,299.95
             124.07,300.12 118.52,293.42 122.57,285.00
             124.90,280.17 128.59,278.58 133.00,276.14
             144.91,269.58 159.61,268.91 173.00,269.00
             176.42,269.02 178.83,268.79 181.48,271.31
             183.54,273.27 185.67,277.84 188.18,278.83
             193.06,280.76 195.64,272.53 199.92,270.47
             206.97,267.08 220.97,274.71 225.47,280.09
             229.13,284.47 234.92,296.34 231.98,301.96
             229.54,306.61 221.20,308.78 223.17,313.90
             224.55,317.48 230.57,318.49 233.13,323.04
             234.79,326.46 233.72,331.35 233.13,335.00
             232.44,342.12 233.76,343.26 231.71,353.00
             230.06,360.87 225.47,373.30 218.91,378.20
             208.98,385.61 200.86,375.89 201.69,368.00
             202.20,363.09 205.52,358.69 207.00,354.00
             201.75,351.31 200.07,350.16 194.00,350.01
             190.65,349.93 187.17,349.94 184.00,351.14
             169.89,356.50 162.20,376.84 170.48,389.96
             177.24,400.68 192.36,403.56 204.00,400.98
             210.25,399.60 213.53,397.15 217.39,392.00
             223.81,383.46 229.71,367.40 232.71,357.00
             234.36,351.27 236.98,339.95 241.00,336.00
             243.56,354.18 246.31,359.12 239.46,378.00
             239.46,378.00 231.56,396.00 231.56,396.00
             229.70,399.40 224.32,407.98 223.25,411.00
             222.84,413.41 222.97,418.35 223.25,421.00
             223.16,433.75 229.76,451.43 238.18,461.00
             240.68,463.84 245.98,469.45 250.00,469.45
             254.44,469.45 259.79,463.19 262.38,460.00
             270.82,449.61 273.25,440.87 275.41,428.00
             275.98,424.63 276.94,420.33 276.68,417.00
             275.86,406.84 271.57,403.41 267.37,395.00
             262.01,384.28 258.30,373.76 256.00,362.00
             254.55,354.58 255.40,341.50 261.00,336.00
             262.83,348.97 268.70,362.78 273.32,375.00
             276.32,382.94 280.73,393.27 288.00,398.15
             301.54,407.24 334.34,400.67 332.48,376.00
             330.92,355.24 309.74,341.71 292.00,355.00
             294.57,359.27 296.90,362.88 297.45,368.00
             298.61,378.83 287.60,386.70 277.33,374.96
             267.33,363.53 265.74,342.58 266.00,328.00
             266.06,324.95 266.00,322.90 268.31,320.61
             270.47,318.47 275.72,316.47 276.83,313.81
             278.89,308.87 269.51,306.85 267.34,301.91
             264.69,295.88 270.54,284.60 274.38,280.04
             278.88,274.69 293.13,266.85 300.10,270.46
             303.62,272.28 306.04,279.37 310.00,279.37
             313.51,279.37 315.80,273.56 317.90,271.31
             320.50,268.53 323.49,269.01 327.00,269.00
             339.39,268.98 353.72,269.78 365.00,275.26
             368.91,277.16 373.54,279.37 376.00,283.09
             381.09,290.79 377.61,299.49 368.00,299.95
             361.03,300.29 358.08,297.23 352.00,295.00
             349.60,299.24 347.60,303.02 347.19,308.00
             345.96,322.63 360.42,334.07 374.00,334.91
             398.78,336.43 406.14,303.68 395.47,290.01
             387.57,279.90 364.43,272.15 352.00,268.44
             343.73,265.96 341.18,266.53 333.00,262.00
             346.25,257.59 356.39,256.69 370.00,260.77
             378.76,263.39 387.87,267.64 396.00,271.81
             396.00,271.81 406.00,277.30 406.00,277.30
             413.36,279.79 427.42,278.33 435.00,276.57
             444.29,274.41 455.09,268.45 461.98,261.91
             464.38,259.64 468.41,255.62 467.87,252.00
             467.35,248.45 460.80,242.08 457.99,239.82
             446.20,230.35 432.70,227.28 418.00,226.74
             415.70,226.66 409.07,226.93 407.00,227.50
             407.00,227.50 385.00,238.57 385.00,238.57
             380.24,240.83 376.88,241.64 372.00,243.19
             357.83,247.72 346.65,249.55 333.00,242.00
             350.23,236.36 381.35,230.02 393.82,216.91
             405.22,204.91 400.75,178.50 385.00,172.00
             369.64,165.67 348.63,176.83 347.19,194.00
             346.69,199.93 348.97,205.09 352.00,210.00
             358.21,207.73 362.92,203.93 370.00,205.34
             380.17,207.38 380.52,218.17 373.79,224.32
             361.78,235.29 341.36,236.10 326.00,236.00
             322.71,235.98 320.33,236.28 317.90,233.69
             315.91,231.56 313.19,225.20 310.00,225.20
             306.87,225.20 304.03,231.25 301.49,233.57
             298.02,236.72 294.12,235.54 290.00,234.57
             279.75,232.16 272.19,224.73 268.47,215.00
             267.29,211.93 266.14,206.21 267.48,203.10
             269.42,198.60 277.65,196.60 276.95,192.14
             276.45,189.00 270.48,186.56 268.31,184.39
             265.58,181.67 266.01,178.56 266.00,175.00
             265.97,162.17 266.71,153.10 271.32,141.00
             273.48,135.33 277.33,128.30 283.00,125.57
             291.15,121.65 297.63,127.69 297.66,136.00
             297.67,141.23 295.15,145.11 292.00,149.00
             305.80,165.24 330.82,151.11 332.48,129.00
             334.15,106.89 304.57,96.37 288.01,107.13
             280.98,111.71 276.20,122.35 273.32,130.00
             269.56,139.96 261.84,159.97 261.00,170.00
             257.34,166.08 255.08,155.42 255.08,150.00
             255.08,146.97 255.73,144.88 256.34,142.00
             258.80,130.40 261.52,121.64 266.98,111.00
             271.36,102.47 275.84,98.46 276.68,88.00
             276.94,84.67 275.98,80.37 275.41,77.00
             273.23,64.01 271.25,56.74 263.10,46.00
             260.48,42.55 254.69,35.83 250.00,35.83
             245.79,35.83 239.86,41.95 237.33,45.00
             228.92,55.13 223.06,72.86 223.00,86.00
             222.94,99.78 226.91,99.73 232.63,111.00
             232.63,111.00 238.94,126.00 238.94,126.00
             241.56,132.92 243.49,140.58 243.91,148.00
             244.27,154.42 241.90,162.58 241.00,169.00 Z" />
  <path id="Selection #4"
        fill="none" stroke="black" stroke-width="1"
        d="M 261.00,34.00
           C 261.00,34.00 273.65,52.00 273.65,52.00
             279.76,63.01 282.02,75.58 282.00,88.00
             281.98,100.81 279.66,98.66 274.48,109.00
             269.61,118.71 263.53,131.20 262.00,142.00
             264.97,137.85 265.57,133.65 267.45,129.00
             271.13,119.89 275.48,110.88 283.01,104.30
             297.91,91.30 325.30,96.88 334.92,114.00
             342.70,127.84 335.74,146.39 324.00,155.61
             320.48,158.37 312.48,161.38 308.00,161.80
             297.16,162.84 289.89,154.24 283.00,151.00
             283.00,151.00 283.00,148.00 283.00,148.00
             287.25,145.98 290.96,142.94 291.77,138.00
             292.27,134.93 291.69,131.14 287.95,130.76
             282.92,130.24 279.55,136.19 277.66,140.00
             273.03,149.31 273.85,157.39 272.87,167.00
             272.29,170.62 271.15,176.52 272.87,179.82
             275.12,183.52 283.52,186.73 283.24,193.00
             282.98,198.98 275.64,201.94 274.02,204.53
             272.47,206.92 273.29,210.47 274.02,213.00
             275.22,216.94 277.23,220.81 280.30,223.61
             283.59,226.61 293.27,230.38 297.62,228.43
             300.90,226.95 303.95,218.13 311.00,219.37
             316.33,220.30 319.64,227.30 322.37,228.98
             324.68,230.40 330.20,230.00 333.00,230.00
             341.75,229.99 356.30,228.18 364.00,224.11
             367.45,222.29 372.50,219.50 372.63,215.05
             372.76,210.74 368.31,210.08 365.00,210.72
             359.48,211.79 356.75,214.90 355.00,220.00
             346.78,214.10 340.59,204.36 341.04,194.00
             341.72,178.62 359.35,165.00 374.00,164.09
             397.93,162.62 412.98,192.38 402.67,214.00
             396.57,226.80 377.76,233.75 365.00,238.00
             370.04,239.41 375.42,236.35 380.00,234.42
             380.00,234.42 389.00,230.52 389.00,230.52
             389.00,230.52 406.00,221.42 406.00,221.42
             408.79,220.43 412.05,220.08 415.00,220.01
             429.35,219.69 445.02,224.67 457.00,232.44
             457.00,232.44 469.00,242.00 469.00,242.00
             468.99,231.44 467.70,226.81 464.05,217.00
             445.40,166.91 387.83,151.32 340.00,164.00
             340.00,164.00 342.11,147.00 342.11,147.00
             342.11,147.00 342.11,134.00 342.11,134.00
             342.11,134.00 342.11,125.00 342.11,125.00
             341.21,92.00 326.86,60.81 297.00,44.35
             290.22,40.61 278.69,36.99 271.00,35.61
             271.00,35.61 261.00,34.00 261.00,34.00 Z" />
  <path id="Selection #3"
        fill="none" stroke="black" stroke-width="1"
        d="M 161.00,164.00
           C 140.51,160.27 141.89,159.97 121.00,160.00
             111.83,160.01 114.10,160.62 106.00,162.08
             74.50,167.75 49.05,184.47 36.80,215.00
             33.02,224.41 31.09,230.71 31.00,241.00
             31.00,241.00 48.00,229.09 48.00,229.09
             58.39,223.00 80.14,217.83 92.00,221.06
             96.04,222.15 99.33,224.82 103.00,226.74
             111.08,230.97 126.18,238.26 135.00,239.00
             128.87,234.61 110.86,231.45 100.21,219.00
             85.15,201.38 96.31,170.64 118.00,164.92
             129.56,161.88 144.37,169.19 151.67,178.00
             155.27,182.34 158.34,188.31 158.81,194.00
             159.81,205.84 150.09,213.68 147.00,220.00
             147.00,220.00 145.00,220.00 145.00,220.00
             142.73,215.12 139.76,211.31 134.00,210.57
             128.31,209.85 124.92,214.77 128.74,219.39
             135.97,228.15 159.20,230.02 170.00,230.00
             172.24,230.00 175.48,230.26 177.41,229.01
             180.74,226.84 185.55,215.17 193.99,220.60
             195.36,221.49 196.61,222.79 197.68,224.02
             197.68,224.02 202.00,230.00 202.00,230.00
             213.11,227.20 221.96,226.03 225.51,213.00
             226.00,211.20 226.76,207.89 226.23,206.10
             224.96,201.80 214.40,198.32 216.64,191.00
             218.03,186.46 224.43,183.01 226.01,180.49
             227.16,178.64 226.99,176.10 227.00,174.00
             227.07,162.83 226.19,138.63 215.79,131.94
             209.74,128.04 207.30,133.75 208.23,139.00
             209.12,144.06 212.56,146.26 217.00,148.00
             211.65,155.00 202.20,161.75 193.00,161.82
             176.56,161.94 160.32,143.07 161.21,127.00
             161.43,122.88 163.41,115.41 165.70,112.00
             174.63,98.67 196.66,93.00 211.00,100.26
             223.38,106.53 233.01,127.91 236.00,141.00
             237.72,136.25 234.94,132.54 233.34,128.00
             230.79,120.71 227.81,113.80 224.10,107.00
             222.05,103.24 219.27,100.23 218.24,96.00
             214.74,81.71 220.44,61.34 227.93,49.00
             227.93,49.00 238.00,35.00 238.00,35.00
             228.13,35.03 221.09,36.94 212.00,40.55
             204.07,43.70 198.88,46.19 192.00,51.53
             156.82,78.80 153.63,123.55 161.00,164.00 Z" />
  <path id="Selection #2"
        fill="none" stroke="black" stroke-width="1"
        d="M 129.00,119.00
           C 116.45,112.88 100.74,100.43 98.00,86.00
             102.48,85.60 106.02,84.67 110.00,82.48
             112.69,81.00 115.25,79.18 117.24,76.82
             127.04,65.21 120.29,48.19 107.00,43.14
             98.98,40.10 90.36,42.40 84.04,47.77
             79.66,51.49 77.49,54.90 75.00,60.00
             69.68,52.48 70.29,48.46 63.11,40.17
             55.81,31.74 41.13,25.14 30.00,25.00
             30.00,25.00 21.00,25.00 21.00,25.00
             21.13,39.27 25.16,55.78 36.04,65.71
             42.88,71.95 47.78,73.51 56.00,77.00
             47.61,84.64 37.05,90.55 38.19,104.00
             39.46,119.13 57.51,129.70 70.96,122.09
             78.49,117.82 81.44,108.69 84.00,101.00
             96.32,106.89 99.97,108.81 108.71,120.00
             110.39,122.15 114.66,127.84 113.59,130.69
             112.87,132.59 110.70,132.75 108.99,132.98
             108.99,132.98 96.00,135.15 96.00,135.15
             79.46,139.46 62.78,145.49 49.00,155.90
             32.13,168.65 18.76,185.35 10.80,205.00
             6.69,215.15 5.02,215.50 5.00,227.00
             5.00,227.00 5.00,278.00 5.00,278.00
             5.02,289.42 10.30,300.12 15.70,310.00
             29.72,335.69 47.19,351.15 74.00,362.58
             85.54,367.50 90.16,367.99 102.00,370.65
             104.31,371.17 112.04,372.08 113.19,373.60
             115.31,376.40 110.85,381.86 109.18,384.00
             102.29,392.85 94.62,401.18 83.00,403.00
             82.24,397.65 81.60,395.68 78.79,391.00
             64.76,367.60 31.89,386.31 39.22,409.00
             40.42,412.71 42.58,415.94 45.30,418.71
             48.52,421.99 51.74,424.33 56.00,426.00
             56.00,426.00 56.00,428.00 56.00,428.00
             38.03,433.13 27.42,445.10 23.13,463.00
             22.41,466.00 20.20,476.04 22.03,478.40
             24.38,481.45 34.58,479.04 38.00,478.40
             58.67,474.42 66.32,463.12 74.00,445.00
             79.46,451.65 84.05,459.65 93.00,462.35
             109.04,467.19 124.92,450.78 121.61,436.00
             120.06,429.09 114.27,424.12 108.00,421.46
             104.94,420.17 98.72,419.27 99.30,414.95
             99.57,413.01 102.89,407.76 104.09,406.00
             110.01,397.31 119.41,390.16 129.00,386.00
             129.00,386.00 134.91,416.00 134.91,416.00
             140.34,434.48 151.92,453.78 166.00,466.91
             178.53,478.60 188.35,484.57 204.00,491.01
             212.94,494.69 214.02,495.98 224.00,496.00
             224.00,496.00 250.00,496.00 250.00,496.00
             250.00,496.00 276.00,496.00 276.00,496.00
             286.47,495.98 287.66,494.38 297.00,490.60
             313.26,484.03 326.89,474.91 338.91,462.00
             353.47,446.37 363.00,426.75 367.58,406.00
             367.58,406.00 371.00,386.00 371.00,386.00
             380.59,390.16 389.99,397.31 395.91,406.00
             397.11,407.76 400.43,413.01 400.70,414.95
             401.28,419.27 395.06,420.17 392.00,421.46
             385.73,424.12 379.94,429.09 378.39,436.00
             375.08,450.78 390.96,467.19 407.00,462.35
             415.95,459.65 420.54,451.65 426.00,445.00
             433.68,463.12 441.33,474.42 462.00,478.40
             465.44,479.05 475.59,481.45 477.98,478.40
             480.00,475.82 477.64,466.18 476.87,463.00
             472.55,445.10 461.99,433.13 444.00,428.00
             444.00,428.00 444.00,426.00 444.00,426.00
             448.26,424.33 451.48,421.99 454.70,418.71
             457.42,415.94 459.58,412.71 460.78,409.00
             468.11,386.31 435.24,367.60 421.21,391.00
             418.40,395.68 417.76,397.65 417.00,403.00
             405.93,401.26 397.48,392.50 390.82,384.00
             389.14,381.86 384.69,376.40 386.81,373.60
             387.96,372.08 395.69,371.17 398.00,370.65
             409.84,367.99 414.46,367.50 426.00,362.58
             452.84,351.13 469.36,336.39 483.85,311.00
             489.42,301.24 494.98,289.35 495.00,278.00
             495.00,278.00 495.00,227.00 495.00,227.00
             494.98,215.40 493.53,216.07 489.68,206.00
             482.14,186.24 467.78,168.58 451.00,155.90
             437.17,145.45 420.59,139.47 404.00,135.15
             404.00,135.15 391.01,132.98 391.01,132.98
             389.30,132.75 387.13,132.59 386.41,130.69
             385.34,127.84 389.61,122.15 391.29,120.00
             400.03,108.81 403.68,106.89 416.00,101.00
             418.50,108.48 421.78,117.98 429.04,122.09
             442.49,129.70 460.54,119.13 461.81,104.00
             462.97,90.34 452.48,84.71 444.00,77.00
             448.94,74.90 454.67,72.80 459.00,69.70
             473.73,59.17 478.84,42.45 479.00,25.09
             479.00,25.09 466.00,25.09 466.00,25.09
             456.31,26.36 443.28,32.79 436.89,40.17
             431.17,46.78 429.31,52.20 426.00,60.00
             421.04,53.58 417.82,47.41 410.00,43.72
             394.82,36.55 377.14,49.75 378.04,66.00
             378.43,72.95 383.25,78.46 389.00,81.91
             393.26,84.45 397.11,85.56 402.00,86.00
             399.26,100.43 383.55,112.88 371.00,119.00
             371.00,119.00 366.10,92.00 366.10,92.00
             362.71,78.66 352.46,58.54 343.68,48.00
             331.74,33.68 316.19,22.08 299.00,14.99
             289.72,11.16 286.35,9.02 276.00,9.00
             276.00,9.00 249.00,9.00 249.00,9.00
             249.00,9.00 224.00,9.00 224.00,9.00
             205.98,9.03 182.09,23.39 169.00,35.17
             152.73,49.81 140.71,69.03 134.44,90.00
             134.44,90.00 129.00,119.00 129.00,119.00 Z
           M 347.00,156.00
           C 347.00,156.00 370.00,154.00 370.00,154.00
             388.09,153.97 406.56,156.29 423.00,164.37
             440.24,172.84 455.33,186.06 464.69,203.00
             470.42,213.39 475.94,232.12 476.00,244.00
             476.00,244.00 476.00,261.00 476.00,261.00
             475.96,270.39 474.59,272.48 472.38,281.00
             471.27,285.27 470.28,289.97 468.49,294.00
             462.88,306.62 454.35,317.72 444.00,326.82
             426.61,342.10 399.00,350.96 376.00,351.00
             376.00,351.00 347.00,349.00 347.00,349.00
             348.00,353.08 348.95,360.79 349.00,365.00
             349.32,392.72 347.72,409.46 333.08,434.00
             318.70,458.08 294.27,472.26 267.00,476.56
             267.00,476.56 252.00,477.68 252.00,477.68
             252.00,477.68 243.00,476.93 243.00,476.93
             243.00,476.93 235.00,476.93 235.00,476.93
             219.77,475.31 201.02,467.90 189.00,458.48
             166.72,441.04 151.34,410.42 151.00,382.00
             150.88,371.46 150.51,359.21 153.00,349.00
             153.00,349.00 124.00,351.00 124.00,351.00
             101.16,350.96 73.17,342.14 56.00,326.83
             39.13,311.79 32.29,299.43 26.72,278.00
             25.10,271.80 24.08,268.60 24.00,262.00
             23.90,253.01 23.46,241.67 25.09,233.00
             30.82,202.57 48.62,177.78 77.00,164.49
             94.52,156.28 110.88,153.97 130.00,154.00
             130.00,154.00 153.00,156.00 153.00,156.00
             150.65,142.91 150.98,137.92 151.00,125.00
             151.04,96.91 164.91,65.27 187.09,47.73
             199.74,37.73 216.95,30.26 233.00,28.10
             233.00,28.10 242.00,28.10 242.00,28.10
             242.00,28.10 250.00,27.08 250.00,27.08
             250.00,27.08 258.00,28.10 258.00,28.10
             258.00,28.10 267.00,28.10 267.00,28.10
             283.71,30.34 300.88,38.08 314.00,48.51
             323.80,56.30 331.35,66.94 336.96,78.00
             349.44,102.58 351.85,129.02 347.00,156.00 Z" />
  <path id="Selection #1"
        fill="none" stroke="black" stroke-width="1"
        d="M 302.00,9.00
           C 302.00,9.00 315.00,16.54 315.00,16.54
             323.89,22.19 332.40,28.82 340.01,36.09
             357.78,53.05 367.72,75.64 373.84,99.00
             373.84,99.00 376.00,110.00 376.00,110.00
             383.46,105.02 391.36,98.93 394.00,90.00
             385.63,87.08 377.98,82.51 374.21,74.00
             366.72,57.06 382.04,37.89 398.00,35.80
             409.86,34.24 416.45,41.90 425.00,48.00
             436.09,28.84 451.78,19.25 474.00,19.00
             476.29,18.98 480.69,18.73 482.57,20.02
             486.74,22.89 484.45,34.62 483.72,39.00
             480.85,56.16 470.88,69.38 456.00,78.00
             459.43,85.27 470.35,93.66 467.40,106.00
             463.52,122.26 445.68,136.62 429.00,128.60
             420.96,124.73 415.86,117.18 413.00,109.00
             405.12,112.02 396.08,119.60 394.00,128.00
             437.28,131.51 477.03,162.61 494.00,202.00
             494.00,202.00 495.00,183.00 495.00,183.00
             495.00,183.00 495.00,144.00 495.00,144.00
             495.00,144.00 495.00,9.00 495.00,9.00
             495.00,9.00 302.00,9.00 302.00,9.00 Z" />
  <path id="Selection"
        fill="none" stroke="black" stroke-width="1"
        d="M 5.00,9.00
           C 5.00,9.00 5.00,202.00 5.00,202.00
             9.32,196.57 13.49,185.18 23.46,173.00
             43.10,149.00 74.77,130.53 106.00,128.00
             103.92,119.60 94.88,112.02 87.00,109.00
             84.14,117.18 79.04,124.73 71.00,128.60
             54.34,136.61 36.46,122.18 32.60,106.00
             29.65,93.66 40.57,85.27 44.00,78.00
             27.54,68.47 18.51,54.82 15.87,36.00
             15.37,32.45 14.83,29.66 15.04,26.00
             15.15,24.13 15.35,22.02 16.74,20.60
             19.48,17.80 30.25,19.19 34.00,19.73
             53.51,22.52 65.15,30.97 75.00,48.00
             83.55,41.90 90.14,34.24 102.00,35.80
             117.96,37.89 133.28,57.06 125.79,74.00
             122.02,82.51 114.37,87.08 106.00,90.00
             108.45,98.30 116.13,105.66 124.00,109.00
             124.00,109.00 125.90,100.00 125.90,100.00
             125.90,100.00 133.43,76.00 133.43,76.00
             145.76,46.93 168.87,22.55 198.00,10.00
             198.00,10.00 179.00,9.00 179.00,9.00
             179.00,9.00 140.00,9.00 140.00,9.00
             140.00,9.00 5.00,9.00 5.00,9.00 Z" />
</svg>
