<?xml version="1.0" encoding="UTF-8" standalone="no"?>
<!DOCTYPE svg PUBLIC "-//W3C//DTD SVG 20010904//EN"
              "http://www.w3.org/TR/2001/REC-SVG-20010904/DTD/svg10.dtd">

<svg xmlns="http://www.w3.org/2000/svg"
     width="5.55556in" height="5.55556in"
     viewBox="0 0 500 500">
  <path id="Selection9"
        fill="none" stroke="black" stroke-width="1"
        d="M 494.00,392.00
           C 494.00,392.00 420.85,464.95 420.85,464.95
             420.85,464.95 392.00,494.00 392.00,494.00
             392.00,494.00 495.00,494.00 495.00,494.00
             495.00,494.00 495.00,424.00 495.00,424.00
             495.00,417.55 495.88,396.73 494.00,392.00 Z" />
  <path id="Selection #8"
        fill="none" stroke="black" stroke-width="1"
        d="M 495.00,381.00
           C 495.00,381.00 495.00,119.00 495.00,119.00
             476.23,119.00 458.98,122.44 442.00,130.64
             421.56,140.51 404.09,153.36 390.59,172.00
             377.79,189.68 371.84,204.81 367.60,226.00
             366.05,233.75 365.01,236.90 365.00,245.00
             365.00,245.00 365.00,255.00 365.00,255.00
             365.01,263.10 366.05,266.25 367.60,274.00
             371.79,294.94 378.74,313.02 392.12,330.00
             406.86,348.71 420.82,359.13 442.00,369.36
             458.98,377.56 476.23,381.00 495.00,381.00 Z" />
  <path id="Selection #7"
        fill="none" stroke="black" stroke-width="1"
        d="M 117.00,494.00
           C 117.00,494.00 382.00,494.00 382.00,494.00
             381.61,475.99 377.30,456.15 369.25,440.00
             359.01,419.48 345.75,402.98 327.00,389.56
             271.06,349.52 192.03,359.15 147.75,412.00
             138.18,423.43 130.75,434.89 125.69,449.00
             120.49,463.51 117.05,478.49 117.00,494.00 Z" />
  <path id="Selection #6"
        fill="none" stroke="black" stroke-width="1"
        d="M 4.00,392.00
           C 4.00,392.00 4.00,494.00 4.00,494.00
             4.00,494.00 106.00,494.00 106.00,494.00
             106.00,494.00 87.00,474.00 87.00,474.00
             87.00,474.00 55.00,442.00 55.00,442.00
             55.00,442.00 23.00,410.00 23.00,410.00
             23.00,410.00 4.00,392.00 4.00,392.00 Z" />
  <path id="Selection #5"
        fill="none" stroke="black" stroke-width="1"
        d="M 392.00,6.00
           C 392.00,6.00 407.72,22.27 407.72,22.27
             407.72,22.27 442.00,56.01 442.00,56.01
             442.00,56.01 475.00,89.00 475.00,89.00
             475.00,89.00 495.00,108.00 495.00,108.00
             495.00,108.00 495.00,6.00 495.00,6.00
             495.00,6.00 392.00,6.00 392.00,6.00 Z" />
  <path id="Selection #4"
        fill="none" stroke="black" stroke-width="1"
        d="M 184.00,186.00
           C 185.59,191.82 186.90,192.99 188.91,198.00
             188.91,198.00 195.58,219.00 195.58,219.00
             200.42,240.67 200.34,264.52 194.51,286.00
             191.78,296.08 187.06,305.44 183.00,315.00
             187.86,314.02 199.55,307.84 205.00,305.50
             205.00,305.50 230.00,298.44 230.00,298.44
             249.17,295.39 268.68,297.82 287.00,304.00
             287.00,304.00 304.00,310.45 304.00,310.45
             304.00,310.45 315.00,315.00 315.00,315.00
             300.35,288.48 292.21,260.31 299.23,230.00
             299.23,230.00 305.45,208.00 305.45,208.00
             305.45,208.00 315.00,185.00 315.00,185.00
             315.00,185.00 291.00,194.99 291.00,194.99
             267.26,203.40 244.96,207.45 220.00,201.10
             204.52,197.17 197.41,191.56 184.00,186.00 Z" />
  <path id="Selection #3"
        fill="none" stroke="black" stroke-width="1"
        d="M 110.00,11.00
           C 110.00,11.00 40.00,80.72 40.00,80.72
             32.92,87.84 12.97,105.67 9.00,113.00
             22.72,113.00 38.23,117.00 51.00,121.94
             87.21,135.94 117.13,165.58 130.94,202.00
             130.94,202.00 134.43,214.00 134.43,214.00
             136.43,221.04 137.80,225.58 138.90,233.00
             138.90,233.00 138.90,241.00 138.90,241.00
             138.90,241.00 139.96,251.00 139.96,251.00
             139.96,251.00 138.94,258.00 138.94,258.00
             138.94,258.00 138.94,267.00 138.94,267.00
             137.79,274.54 133.61,290.95 130.94,298.00
             118.53,330.73 93.16,357.71 62.00,373.25
             46.87,380.79 25.96,387.00 9.00,387.00
             9.00,387.00 20.87,400.42 20.87,400.42
             20.87,400.42 40.87,420.15 40.87,420.15
             40.87,420.15 84.00,463.00 84.00,463.00
             84.00,463.00 111.00,489.00 111.00,489.00
             111.36,472.75 116.25,456.81 122.57,442.00
             128.85,427.30 134.57,419.09 145.00,407.00
             199.18,344.24 296.83,342.88 352.15,405.00
             362.73,416.88 371.21,429.20 377.20,444.00
             382.75,457.73 387.32,474.15 388.00,489.00
             388.00,489.00 411.00,467.00 411.00,467.00
             411.00,467.00 451.15,427.00 451.15,427.00
             451.15,427.00 477.15,401.05 477.15,401.05
             477.15,401.05 490.00,387.00 490.00,387.00
             472.51,387.00 449.33,380.23 434.00,371.86
             400.60,353.60 376.75,326.63 365.57,290.00
             363.63,283.64 362.94,283.32 361.61,276.00
             349.66,210.22 384.81,147.23 447.00,122.27
             459.67,117.18 476.33,113.00 490.00,113.00
             490.00,113.00 476.28,98.05 476.28,98.05
             476.28,98.05 443.99,65.96 443.99,65.96
             443.99,65.96 408.00,30.00 408.00,30.00
             408.00,30.00 388.00,11.00 388.00,11.00
             387.73,23.17 382.66,42.69 378.01,54.00
             369.69,74.23 357.28,91.82 340.91,106.41
             297.94,144.73 234.56,151.28 184.00,124.60
             155.04,109.33 130.18,80.81 119.09,50.00
             119.09,50.00 112.61,26.00 112.61,26.00
             111.73,21.05 111.92,15.68 110.00,11.00 Z
           M 169.00,330.00
           C 170.21,324.04 173.00,321.31 175.74,316.00
             179.26,309.20 183.35,300.20 185.91,293.00
             188.58,285.50 192.96,266.75 193.00,259.00
             193.00,259.00 193.00,242.00 193.00,242.00
             192.96,233.77 190.80,225.94 188.87,218.00
             186.17,206.91 182.32,197.03 176.86,187.00
             175.47,184.45 171.95,178.22 174.64,175.65
             177.21,173.19 181.75,176.89 184.00,178.31
             192.45,183.63 201.70,188.42 211.00,192.07
             231.30,200.05 258.28,198.92 279.00,193.08
             279.00,193.08 295.00,186.94 295.00,186.94
             295.00,186.94 317.00,176.33 317.00,176.33
             319.23,175.20 323.19,173.32 324.87,176.33
             326.13,178.58 324.25,181.98 323.22,184.00
             323.22,184.00 314.78,201.00 314.78,201.00
             307.89,215.79 301.62,242.74 303.17,259.00
             305.01,278.37 308.73,290.82 318.08,308.00
             319.84,311.23 327.38,321.32 324.36,324.36
             321.61,327.12 315.59,322.87 313.00,321.42
             304.51,316.67 288.51,310.78 279.00,307.75
             262.60,302.51 236.66,302.66 220.00,306.90
             220.00,306.90 201.00,313.86 201.00,313.86
             201.00,313.86 169.00,330.00 169.00,330.00 Z" />
  <path id="Selection #2"
        fill="none" stroke="black" stroke-width="1"
        d="M 4.00,119.00
           C 4.00,119.00 4.00,381.00 4.00,381.00
             21.56,381.00 40.16,377.72 56.00,369.86
             56.00,369.86 66.00,365.13 66.00,365.13
             85.74,354.03 103.97,336.46 115.55,317.00
             139.24,277.18 139.24,222.82 115.55,183.00
             101.48,159.36 81.54,142.50 57.00,130.64
             40.03,122.44 22.77,119.00 4.00,119.00 Z" />
  <path id="Selection #1"
        fill="none" stroke="black" stroke-width="1"
        d="M 117.00,6.00
           C 117.15,22.12 120.65,38.02 126.43,53.00
             131.82,66.99 138.97,77.60 148.59,89.00
             163.30,106.44 185.17,121.51 207.00,128.54
             207.00,128.54 227.00,132.92 227.00,132.92
             235.06,134.31 234.22,134.99 243.00,135.00
             243.00,135.00 256.00,135.00 256.00,135.00
             264.70,134.99 263.18,134.47 271.00,133.08
             296.52,128.57 317.12,119.75 337.00,102.70
             350.50,91.13 361.52,75.92 369.26,60.00
             377.37,43.31 381.59,24.54 382.00,6.00
             382.00,6.00 117.00,6.00 117.00,6.00 Z" />
  <path id="Selection"
        fill="none" stroke="black" stroke-width="1"
        d="M 4.00,6.00
           C 4.00,6.00 4.00,108.00 4.00,108.00
             4.00,108.00 26.00,87.00 26.00,87.00
             26.00,87.00 63.00,50.00 63.00,50.00
             63.00,50.00 91.00,22.00 91.00,22.00
             91.00,22.00 106.00,6.00 106.00,6.00
             106.00,6.00 4.00,6.00 4.00,6.00 Z" />
</svg>
