<?xml version="1.0" encoding="UTF-8" standalone="no"?>
<!DOCTYPE svg PUBLIC "-//W3C//DTD SVG 20010904//EN"
              "http://www.w3.org/TR/2001/REC-SVG-20010904/DTD/svg10.dtd">

<svg xmlns="http://www.w3.org/2000/svg"
     width="5.55556in" height="5.55556in"
     viewBox="0 0 500 500">
  <path id="Selection #8"
        fill="none" stroke="black" stroke-width="1"
        d="M 447.00,496.00
           C 447.00,496.00 495.00,496.00 495.00,496.00
             495.00,496.00 495.00,448.00 495.00,448.00
             490.20,448.87 483.39,449.78 479.00,451.47
             457.60,459.68 449.92,474.36 447.00,496.00 Z" />
  <path id="Selection #7"
        fill="none" stroke="black" stroke-width="1"
        d="M 253.00,495.00
           C 253.00,495.00 309.00,495.00 309.00,495.00
             309.00,495.00 324.00,496.00 324.00,496.00
             324.00,496.00 441.00,496.00 441.00,496.00
             442.67,475.38 453.66,456.58 473.00,447.90
             473.00,447.90 481.00,445.26 481.00,445.26
             487.09,443.31 488.33,442.55 495.00,442.00
             495.00,442.00 495.00,253.00 495.00,253.00
             495.00,253.00 467.00,256.12 467.00,256.12
             437.67,262.24 410.46,274.59 400.33,305.00
             398.27,311.21 397.08,317.44 397.00,324.00
             396.85,337.24 400.17,351.58 404.69,364.00
             410.76,380.65 421.37,399.35 431.34,414.00
             436.85,422.09 444.64,426.82 435.82,435.83
             433.52,438.17 429.54,441.70 426.00,440.85
             423.10,440.14 409.69,429.92 406.00,427.54
             395.36,420.68 377.76,410.74 366.00,406.44
             352.99,401.67 339.87,398.71 326.00,398.10
             323.08,397.97 311.04,399.40 308.00,400.13
             265.92,410.21 255.98,458.16 253.00,495.00 Z" />
  <path id="Selection #6"
        fill="none" stroke="black" stroke-width="1"
        d="M 82.00,495.00
           C 82.00,495.00 153.00,495.00 153.00,495.00
             153.00,475.89 158.31,451.74 165.45,434.00
             165.45,434.00 177.00,409.00 177.00,409.00
             169.15,411.88 159.16,419.17 152.00,423.93
             133.79,436.03 117.44,450.68 102.95,467.00
             95.81,475.04 86.63,485.39 82.00,495.00 Z" />
  <path id="Selection #5"
        fill="none" stroke="black" stroke-width="1"
        d="M 494.00,80.00
           C 481.08,90.01 467.73,99.56 456.01,111.04
             447.18,119.70 436.08,133.93 428.53,144.00
             422.77,151.68 411.54,167.13 409.00,176.00
             409.00,176.00 426.00,167.87 426.00,167.87
             442.12,160.97 469.53,153.03 487.00,153.00
             487.00,153.00 495.00,153.00 495.00,153.00
             495.00,153.00 495.00,103.00 495.00,103.00
             495.00,103.00 494.00,80.00 494.00,80.00 Z" />
  <path id="Selection #4"
        fill="none" stroke="black" stroke-width="1"
        d="M 213.00,495.00
           C 213.00,495.00 247.00,495.00 247.00,495.00
             247.03,486.49 248.46,480.21 249.92,472.00
             255.94,437.95 269.75,405.11 306.00,394.44
             312.07,392.65 319.68,391.97 326.00,392.00
             338.08,392.05 352.63,395.65 364.00,399.70
             381.77,406.02 398.38,415.91 414.00,426.33
             418.95,429.63 426.36,437.90 431.68,431.85
             436.26,426.65 428.60,419.57 425.50,415.00
             416.69,402.04 405.50,382.72 400.34,368.00
             400.34,368.00 395.13,352.00 395.13,352.00
             391.17,337.19 390.35,315.53 395.13,301.00
             406.56,268.50 441.01,254.91 472.00,249.86
             479.79,248.59 487.02,247.02 495.00,247.00
             495.00,247.00 495.00,213.00 495.00,213.00
             487.52,213.02 480.39,214.84 473.00,215.87
             452.90,218.67 437.50,221.76 418.00,227.56
             418.00,227.56 388.00,237.06 388.00,237.06
             354.21,249.98 322.43,269.35 296.00,294.09
             296.00,294.09 285.92,305.00 285.92,305.00
             248.32,345.87 228.15,395.88 218.75,450.00
             216.17,464.86 213.33,479.86 213.00,495.00 Z" />
  <path id="Selection #3"
        fill="none" stroke="black" stroke-width="1"
        d="M 11.00,495.00
           C 11.00,495.00 67.00,495.00 67.00,495.00
             69.24,495.00 72.55,495.25 74.47,494.01
             76.25,492.86 78.57,488.87 79.91,487.00
             79.91,487.00 89.74,474.00 89.74,474.00
             100.01,460.56 121.45,440.09 135.00,429.65
             145.87,421.27 157.32,413.72 169.00,406.53
             172.22,404.55 179.20,400.35 182.36,404.33
             184.29,406.76 182.84,409.60 181.74,412.00
             181.74,412.00 174.06,428.00 174.06,428.00
             165.30,450.00 159.00,471.08 159.00,495.00
             159.00,495.00 207.00,495.00 207.00,495.00
             207.01,484.93 208.51,480.40 209.72,471.00
             209.72,471.00 216.35,432.00 216.35,432.00
             216.35,432.00 219.73,417.00 219.73,417.00
             219.73,417.00 223.04,407.00 223.04,407.00
             223.04,407.00 233.87,376.00 233.87,376.00
             250.57,337.02 277.56,300.22 311.00,274.01
             334.53,255.58 364.82,239.14 393.00,229.09
             393.00,229.09 425.00,219.71 425.00,219.71
             425.00,219.71 434.00,216.90 434.00,216.90
             451.38,212.48 477.07,208.45 495.00,207.00
             495.00,207.00 495.00,158.00 495.00,158.00
             487.17,158.02 486.32,158.65 479.00,159.73
             457.21,162.94 448.51,165.19 428.00,173.55
             428.00,173.55 421.00,176.37 421.00,176.37
             421.00,176.37 411.00,181.75 411.00,181.75
             408.78,182.38 405.51,183.38 403.32,181.75
             400.03,179.85 401.97,175.65 403.32,173.00
             407.38,165.04 412.32,157.34 417.41,150.00
             432.66,128.02 449.27,108.61 470.00,91.58
             476.25,86.45 487.79,76.81 495.00,74.00
             495.00,74.00 495.00,9.00 495.00,9.00
             495.00,9.00 480.13,22.58 480.13,22.58
             480.13,22.58 449.00,54.00 449.00,54.00
             449.00,54.00 348.00,155.00 348.00,155.00
             348.00,155.00 277.00,227.00 277.00,227.00
             277.00,227.00 123.73,380.72 123.73,380.72
             123.73,380.72 43.91,461.04 43.91,461.04
             43.91,461.04 11.00,495.00 11.00,495.00 Z" />
  <path id="Selection #2"
        fill="none" stroke="black" stroke-width="1"
        d="M 6.00,490.00
           C 6.00,490.00 36.17,460.91 36.17,460.91
             36.17,460.91 79.00,418.00 79.00,418.00
             79.00,418.00 169.97,326.97 169.97,326.97
             169.97,326.97 228.00,268.00 228.00,268.00
             228.00,268.00 405.00,90.00 405.00,90.00
             405.00,90.00 461.00,34.00 461.00,34.00
             461.00,34.00 490.00,4.00 490.00,4.00
             490.00,4.00 371.00,4.00 371.00,4.00
             360.64,4.02 360.02,7.48 352.87,14.58
             352.87,14.58 334.73,32.95 334.73,32.95
             334.73,32.95 253.00,115.00 253.00,115.00
             253.00,115.00 67.00,302.00 67.00,302.00
             67.00,302.00 22.00,347.00 22.00,347.00
             18.48,350.52 8.07,360.00 6.60,364.00
             5.88,365.94 6.00,368.91 6.00,371.00
             6.00,371.00 6.00,490.00 6.00,490.00 Z" />
  <path id="Selection #1"
        fill="none" stroke="black" stroke-width="1"
        d="M 74.00,28.00
           C 74.00,28.00 29.00,28.00 29.00,28.00
             29.00,28.00 29.00,50.00 29.00,50.00
             29.00,50.00 30.00,63.00 30.00,63.00
             30.02,65.41 29.62,70.54 31.02,72.44
             32.65,74.64 40.14,75.81 43.00,76.75
             49.99,79.04 62.59,84.69 69.00,88.33
             82.58,96.06 97.96,110.60 104.48,125.00
             104.48,125.00 107.72,135.00 107.72,135.00
             109.69,141.59 110.91,144.92 111.00,152.00
             111.55,199.36 75.90,237.37 45.58,269.91
             37.98,278.06 27.97,286.58 19.00,293.22
             7.55,301.69 6.02,297.84 6.00,309.00
             6.00,309.00 6.00,355.00 6.00,355.00
             6.00,355.00 32.01,329.00 32.01,329.00
             32.01,329.00 72.87,288.28 72.87,288.28
             72.87,288.28 179.00,182.00 179.00,182.00
             179.00,182.00 212.80,147.46 212.80,147.46
             212.80,147.46 307.00,53.00 307.00,53.00
             307.00,53.00 337.00,23.00 337.00,23.00
             337.00,23.00 355.00,4.00 355.00,4.00
             355.00,4.00 309.00,4.00 309.00,4.00
             297.15,4.02 301.65,6.32 290.98,20.00
             280.17,33.86 267.89,46.04 255.00,57.92
             231.51,79.55 194.30,108.61 161.00,109.00
             146.10,109.17 138.81,109.24 125.00,102.64
             117.91,99.25 112.89,95.65 107.04,90.42
             99.03,83.26 92.88,74.27 87.58,65.00
             81.64,54.63 76.36,39.75 74.00,28.00 Z" />
  <path id="Selection"
        fill="none" stroke="black" stroke-width="1"
        d="M 6.00,4.00
           C 6.00,4.00 6.00,294.00 6.00,294.00
             12.81,291.83 18.60,286.95 24.00,282.41
             35.69,272.58 42.71,265.01 52.98,254.00
             52.98,254.00 68.39,236.00 68.39,236.00
             74.14,228.92 85.71,213.58 90.13,206.00
             105.01,180.43 112.04,145.14 94.53,119.00
             83.60,102.68 66.31,91.36 48.00,84.69
             48.00,84.69 31.00,79.20 31.00,79.20
             28.58,78.45 25.50,78.00 24.02,75.70
             22.79,73.79 23.00,70.24 23.00,68.00
             23.00,68.00 23.00,22.00 23.00,22.00
             23.00,22.00 69.00,22.00 69.00,22.00
             71.60,22.01 75.41,21.67 77.42,23.60
             79.08,25.20 80.45,32.27 81.43,35.00
             85.34,45.84 86.82,51.48 92.26,62.00
             100.23,77.42 113.46,92.49 130.00,98.88
             130.00,98.88 143.00,102.20 143.00,102.20
             148.09,103.23 151.72,104.17 157.00,103.96
             170.00,103.46 189.40,97.51 201.00,91.63
             207.24,88.47 217.15,81.05 223.00,76.73
             237.80,65.79 251.99,54.01 265.00,41.00
             273.34,32.66 290.55,14.93 294.00,4.00
             294.00,4.00 6.00,4.00 6.00,4.00 Z" />
</svg>
