<?xml version="1.0" encoding="UTF-8" standalone="no"?>
<!DOCTYPE svg PUBLIC "-//W3C//DTD SVG 20010904//EN"
              "http://www.w3.org/TR/2001/REC-SVG-20010904/DTD/svg10.dtd">

<svg xmlns="http://www.w3.org/2000/svg"
     width="5.55556in" height="5.55556in"
     viewBox="0 0 500 500">
  <path id="Selection #14"
        fill="none" stroke="black" stroke-width="1"
        d="M 460.00,492.00
           C 460.00,492.00 491.00,492.00 491.00,492.00
             491.00,492.00 491.00,461.00 491.00,461.00
             476.51,461.41 461.44,477.98 460.00,492.00 Z" />
  <path id="Selection #13"
        fill="none" stroke="black" stroke-width="1"
        d="M 449.00,450.00
           C 449.00,472.22 446.18,472.92 437.00,492.00
             437.00,492.00 445.00,492.00 445.00,492.00
             457.60,491.92 449.48,487.69 460.65,473.00
             466.06,465.90 470.85,461.04 479.00,457.04
             483.48,454.84 485.84,455.00 487.87,454.00
             491.42,452.24 490.98,449.45 491.00,446.00
             491.00,446.00 491.00,439.00 491.00,439.00
             491.00,439.00 474.00,446.11 474.00,446.11
             464.34,449.63 459.02,450.00 449.00,450.00 Z" />
  <path id="Selection #12"
        fill="none" stroke="black" stroke-width="1"
        d="M 473.00,409.00
           C 476.14,419.50 469.41,429.34 458.00,428.20
             449.24,427.33 446.04,420.67 442.83,419.06
             440.91,418.10 429.56,419.88 426.01,420.02
             424.25,420.08 422.31,420.10 420.87,421.29
             418.19,423.51 419.17,429.73 418.91,433.00
             418.69,435.78 416.97,440.57 417.66,442.70
             418.71,445.89 422.99,447.11 425.60,452.09
             429.57,459.68 427.37,469.80 418.96,473.16
             416.70,474.06 414.39,473.98 412.00,474.00
             412.00,474.00 408.00,474.00 408.00,474.00
             408.00,474.00 400.00,491.84 400.00,491.84
             400.00,491.84 426.00,491.84 426.00,491.84
             428.04,491.17 429.18,490.38 430.62,488.85
             435.11,484.10 440.35,470.62 440.96,464.00
             440.96,464.00 442.02,448.00 442.02,448.00
             442.40,446.45 443.01,445.41 444.18,444.31
             447.64,441.08 454.48,442.06 459.00,442.00
             466.88,441.89 475.04,438.78 482.04,435.31
             484.50,434.09 488.54,432.05 489.98,429.67
             491.13,427.77 490.98,425.15 491.00,423.00
             491.00,423.00 491.00,402.00 491.00,402.00
             491.00,402.00 473.00,409.00 473.00,409.00 Z" />
  <path id="Selection #11"
        fill="none" stroke="black" stroke-width="1"
        d="M 490.00,333.00
           C 484.13,351.17 477.13,358.34 461.04,368.26
             444.32,378.56 428.65,383.03 409.00,383.00
             400.58,382.99 400.41,382.20 393.00,381.29
             385.03,380.30 386.71,380.96 378.00,379.00
             380.36,390.07 379.09,385.84 380.18,395.00
             381.12,402.84 382.14,399.08 382.00,411.00
             381.91,418.28 380.81,417.73 380.18,423.00
             380.18,423.00 379.55,433.00 379.55,433.00
             377.03,444.67 371.96,454.21 365.33,464.00
             361.52,469.63 355.38,477.49 350.00,481.53
             345.62,484.81 334.43,489.25 329.00,491.00
             333.35,492.73 342.05,492.00 347.00,492.00
             347.00,492.00 385.00,492.00 385.00,492.00
             386.93,491.99 389.74,492.12 391.45,491.18
             393.58,490.00 394.53,487.09 395.54,484.99
             397.27,481.36 401.87,470.47 404.26,468.32
             409.32,463.75 417.94,470.26 419.97,461.95
             420.97,457.86 419.35,453.59 415.81,451.30
             413.92,450.07 411.18,449.71 410.23,447.69
             409.39,445.91 410.70,442.15 411.04,440.00
             411.04,440.00 411.04,431.00 411.04,431.00
             411.04,431.00 412.82,423.00 412.82,423.00
             413.12,420.60 412.75,417.44 414.60,415.60
             416.46,413.74 419.59,414.14 422.00,413.79
             422.00,413.79 430.00,411.95 430.00,411.95
             430.00,411.95 440.00,411.95 440.00,411.95
             442.47,411.46 445.52,410.00 447.85,411.12
             450.74,412.51 450.75,415.89 452.00,417.77
             454.06,420.87 458.61,421.51 461.98,420.57
             470.98,418.05 463.98,409.56 467.44,405.41
             470.99,401.17 487.98,397.42 490.40,391.79
             491.07,390.25 490.99,387.69 491.00,386.00
             491.00,386.00 491.00,351.00 491.00,351.00
             491.00,346.05 491.73,337.35 490.00,333.00 Z" />
  <path id="Selection #10"
        fill="none" stroke="black" stroke-width="1"
        d="M 445.00,283.00
           C 438.30,298.46 423.22,309.43 406.00,309.54
             393.38,309.63 376.36,291.70 376.34,279.00
             376.33,266.50 387.34,253.98 397.00,247.35
             427.37,226.50 471.21,241.41 490.00,271.00
             490.00,271.00 491.00,250.00 491.00,250.00
             491.00,250.00 491.00,207.00 491.00,207.00
             491.00,207.00 491.00,56.00 491.00,56.00
             491.00,56.00 487.00,56.00 487.00,56.00
             478.57,56.04 479.24,57.16 473.00,57.83
             473.00,57.83 463.00,58.37 463.00,58.37
             405.60,69.09 358.30,115.89 335.35,168.00
             329.56,181.13 324.20,194.69 321.96,209.00
             321.96,209.00 321.96,217.00 321.96,217.00
             320.46,226.64 319.88,225.14 320.00,236.00
             320.08,242.14 321.01,243.59 321.96,249.00
             321.96,249.00 321.96,257.00 321.96,257.00
             321.96,257.00 324.42,267.72 324.42,267.72
             330.42,291.11 348.12,313.52 368.00,326.66
             378.42,333.53 388.11,339.98 401.00,340.00
             401.00,340.00 407.00,340.00 407.00,340.00
             422.54,339.79 441.19,330.14 449.88,317.17
             454.44,310.36 456.45,293.99 451.23,287.19
             449.34,284.72 447.75,284.09 445.00,283.00 Z" />
  <path id="Selection #9"
        fill="none" stroke="black" stroke-width="1"
        d="M 52.00,492.00
           C 52.00,492.00 270.00,492.00 270.00,492.00
             266.83,488.39 265.38,487.82 262.00,484.82
             255.39,478.94 246.89,470.13 242.84,462.20
             234.43,445.73 232.39,421.93 240.55,405.00
             243.31,399.29 247.53,394.43 252.00,390.00
             258.91,383.16 267.81,377.36 278.00,377.96
             284.19,378.33 289.20,380.70 294.00,384.52
             297.31,387.15 299.35,389.62 301.84,393.00
             305.00,397.29 309.33,403.40 308.59,409.00
             307.29,418.78 300.42,432.47 292.68,438.67
             292.68,438.67 281.00,446.00 281.00,446.00
             284.74,453.29 288.77,454.86 297.00,455.00
             316.24,455.30 327.22,442.32 334.69,426.00
             337.41,420.06 338.62,413.46 339.40,407.00
             339.80,403.62 338.63,401.30 338.18,398.00
             335.91,381.25 324.02,365.98 312.68,353.95
             299.51,339.98 277.75,328.59 259.00,324.52
             259.00,324.52 253.00,323.63 253.00,323.63
             246.41,322.32 248.58,322.01 241.00,322.00
             241.00,322.00 222.00,322.00 222.00,322.00
             209.92,322.02 180.52,330.06 169.00,334.82
             169.00,334.82 158.00,340.22 158.00,340.22
             98.34,368.91 52.00,423.52 52.00,492.00 Z" />
  <path id="Selection #8"
        fill="none" stroke="black" stroke-width="1"
        d="M 18.00,492.00
           C 18.00,492.00 45.00,492.00 45.00,492.00
             45.00,492.00 45.00,481.00 45.00,481.00
             45.02,471.33 45.88,474.50 47.02,468.00
             47.02,468.00 47.02,462.00 47.02,462.00
             49.25,449.94 54.01,437.97 59.32,427.04
             79.96,384.55 112.77,354.42 155.00,333.99
             155.00,333.99 170.00,326.81 170.00,326.81
             187.08,320.02 215.69,313.97 234.00,314.00
             241.77,314.01 241.78,314.50 249.00,315.57
             274.54,319.36 296.20,328.93 315.24,346.66
             315.24,346.66 326.33,359.49 326.33,359.49
             334.68,369.38 345.82,386.73 346.00,400.00
             346.00,400.00 346.00,411.00 346.00,411.00
             345.79,428.10 331.60,448.73 317.00,457.22
             313.15,459.46 303.37,462.60 299.00,462.88
             295.72,463.09 294.03,462.37 291.00,461.57
             282.20,459.26 275.94,455.80 273.94,446.00
             272.36,438.29 280.97,439.01 287.28,434.15
             293.56,429.32 300.10,417.98 300.87,410.00
             302.16,396.54 283.58,381.33 270.42,385.70
             259.37,389.37 248.23,402.52 244.69,413.42
             244.69,413.42 243.55,421.00 243.55,421.00
             242.92,423.91 242.28,424.63 242.05,428.00
             241.52,435.81 242.59,435.54 243.75,442.00
             246.79,458.89 253.21,467.87 266.05,479.00
             270.45,482.81 276.29,488.09 282.00,489.79
             287.24,490.85 294.65,490.45 300.00,489.79
             300.00,489.79 309.83,489.79 309.83,489.79
             316.43,488.61 340.06,479.86 345.61,476.30
             350.61,473.10 353.82,467.92 357.33,463.28
             372.98,442.60 374.33,425.94 374.00,401.00
             373.90,394.10 372.90,394.98 371.95,390.00
             371.95,390.00 371.95,383.00 371.95,383.00
             371.27,380.01 369.63,377.50 371.95,374.78
             374.89,371.23 379.95,372.91 384.00,373.00
             392.77,373.18 391.67,374.88 399.00,375.00
             399.00,375.00 420.00,375.00 420.00,375.00
             436.99,374.97 465.03,361.82 475.25,348.07
             480.71,340.72 486.22,323.09 488.42,314.00
             490.12,307.01 490.96,307.77 491.00,300.00
             491.00,300.00 491.00,293.00 491.00,293.00
             490.72,272.04 464.11,250.82 445.00,246.53
             445.00,246.53 431.00,244.63 431.00,244.63
             431.00,244.63 422.00,245.99 422.00,245.99
             408.11,246.56 386.45,259.33 384.21,274.00
             382.44,285.60 388.40,293.71 398.01,299.29
             399.95,300.42 402.79,302.08 405.00,302.43
             407.09,302.76 415.71,300.74 417.96,299.95
             424.74,297.60 431.17,293.04 435.13,287.00
             437.86,282.83 438.40,277.76 441.30,276.36
             443.33,275.37 446.99,276.47 449.00,277.25
             457.59,280.58 461.85,289.21 462.00,298.00
             462.00,298.00 462.00,302.00 462.00,302.00
             461.87,309.97 458.87,315.74 454.22,322.00
             444.35,335.28 432.21,343.00 416.00,346.24
             411.09,347.22 411.84,347.90 406.00,348.00
             399.46,348.10 393.21,347.06 387.00,344.95
             374.33,340.65 351.37,324.54 342.55,314.28
             342.55,314.28 338.20,308.27 338.20,308.27
             325.95,291.97 319.33,280.27 315.75,260.00
             314.90,255.19 314.11,256.16 314.00,250.00
             314.00,250.00 313.32,234.00 313.32,234.00
             313.32,234.00 314.00,218.00 314.00,218.00
             314.02,209.33 314.66,212.41 315.74,206.00
             318.11,192.05 320.35,186.03 325.60,173.00
             345.23,124.26 382.08,81.84 431.00,61.19
             445.39,55.11 445.15,54.60 461.00,51.75
             465.83,50.88 464.91,50.10 471.00,49.95
             471.00,49.95 481.00,49.95 481.00,49.95
             481.00,49.95 490.00,49.00 490.00,49.00
             490.00,49.00 491.00,23.00 491.00,23.00
             491.00,23.00 480.00,23.00 480.00,23.00
             471.34,23.02 474.39,23.67 468.00,24.74
             468.00,24.74 462.00,25.37 462.00,25.37
             462.00,25.37 441.00,31.46 441.00,31.46
             395.51,45.48 355.58,76.58 327.59,114.72
             315.87,130.69 304.77,149.48 297.98,168.17
             294.07,178.92 291.58,191.76 289.54,203.00
             288.03,211.31 287.02,210.37 287.00,220.00
             287.00,220.00 287.00,241.00 287.00,241.00
             287.01,250.00 292.17,273.01 295.01,282.00
             296.46,286.56 300.68,294.50 296.61,298.43
             292.11,302.76 285.84,298.27 281.00,296.74
             281.00,296.74 273.00,294.70 273.00,294.70
             266.36,292.92 253.59,290.01 247.00,290.00
             247.00,290.00 211.00,290.00 211.00,290.00
             202.33,290.02 205.41,290.66 199.00,291.74
             176.32,295.60 159.46,301.18 138.96,311.92
             138.96,311.92 117.00,324.46 117.00,324.46
             91.75,341.67 62.36,372.00 46.68,398.39
             46.68,398.39 39.69,412.00 39.69,412.00
             30.98,428.92 23.35,448.13 20.04,467.00
             20.04,467.00 20.04,475.00 20.04,475.00
             18.83,483.27 18.00,481.88 18.00,492.00 Z" />
  <path id="Selection #7"
        fill="none" stroke="black" stroke-width="1"
        d="M 175.00,179.00
           C 180.44,191.17 185.97,211.77 186.00,225.00
             186.00,225.00 186.99,242.00 186.99,242.00
             186.99,242.00 186.00,255.00 186.00,255.00
             185.96,264.30 183.28,279.28 180.00,288.00
             180.00,288.00 197.00,284.37 197.00,284.37
             197.00,284.37 205.00,283.70 205.00,283.70
             205.00,283.70 219.00,282.00 219.00,282.00
             219.00,282.00 241.00,282.00 241.00,282.00
             241.00,282.00 254.00,283.79 254.00,283.79
             254.00,283.79 262.00,284.45 262.00,284.45
             262.00,284.45 290.00,292.00 290.00,292.00
             290.00,292.00 284.44,271.00 284.44,271.00
             282.04,261.18 279.02,243.96 279.00,234.00
             278.98,222.16 280.15,210.62 282.37,199.00
             282.37,199.00 286.00,183.00 286.00,183.00
             286.00,183.00 264.00,187.68 264.00,187.68
             264.00,187.68 252.00,188.29 252.00,188.29
             246.38,188.98 244.20,189.92 238.00,190.00
             229.59,190.09 207.26,187.26 199.00,185.25
             192.14,183.58 181.16,179.42 175.00,179.00 Z" />
  <path id="Selection #6"
        fill="none" stroke="black" stroke-width="1"
        d="M 5.00,492.00
           C 5.00,492.00 11.00,492.00 11.00,492.00
             11.00,492.00 12.32,472.00 12.32,472.00
             18.81,431.91 37.74,393.90 64.26,363.32
             64.26,363.32 78.67,348.67 78.67,348.67
             87.19,340.15 97.38,330.67 107.00,323.48
             118.19,315.11 137.05,304.57 150.00,299.21
             154.95,297.16 170.34,291.74 172.69,287.87
             175.57,283.12 177.65,267.85 178.09,262.00
             178.61,255.12 179.98,256.55 179.92,246.00
             179.92,246.00 179.92,230.00 179.92,230.00
             179.92,230.00 178.17,220.00 178.17,220.00
             177.79,216.22 178.32,215.09 177.29,211.00
             177.29,211.00 171.12,187.00 171.12,187.00
             170.16,184.22 167.40,178.70 167.92,176.01
             168.40,173.54 171.34,170.94 173.00,169.00
             180.36,173.38 197.38,178.33 206.00,179.98
             206.00,179.98 213.00,179.98 213.00,179.98
             219.46,181.11 216.33,181.98 226.00,182.00
             226.00,182.00 251.00,182.00 251.00,182.00
             251.00,182.00 274.00,178.37 274.00,178.37
             277.72,177.63 283.47,177.23 286.66,175.02
             289.86,172.80 294.61,158.42 296.63,154.00
             302.97,140.09 312.03,124.28 321.14,112.04
             356.43,64.65 408.05,27.83 467.00,17.46
             467.00,17.46 476.00,16.72 476.00,16.72
             476.00,16.72 491.00,15.00 491.00,15.00
             491.00,15.00 491.00,10.16 491.00,10.16
             491.00,10.16 336.00,10.16 336.00,10.16
             336.00,10.16 329.32,10.16 329.32,10.16
             329.32,10.16 316.00,22.65 316.00,22.65
             316.00,22.65 299.00,39.00 299.00,39.00
             299.00,39.00 215.67,121.96 215.67,121.96
             215.67,121.96 178.00,159.00 178.00,159.00
             178.00,159.00 56.00,280.00 56.00,280.00
             56.00,280.00 19.00,317.00 19.00,317.00
             19.00,317.00 5.60,332.00 5.60,332.00
             5.60,332.00 5.00,339.00 5.00,339.00
             5.00,339.00 5.00,492.00 5.00,492.00 Z" />
  <path id="Selection #5"
        fill="none" stroke="black" stroke-width="1"
        d="M 5.00,321.00
           C 5.00,321.00 31.67,294.67 31.67,294.67
             31.67,294.67 41.00,285.99 41.00,285.99
             41.00,285.99 74.00,253.00 74.00,253.00
             74.00,253.00 201.00,127.00 201.00,127.00
             201.00,127.00 281.00,48.00 281.00,48.00
             281.00,48.00 318.00,10.00 318.00,10.00
             318.00,10.00 299.00,10.00 299.00,10.00
             299.00,10.00 292.00,10.60 292.00,10.60
             292.00,10.60 274.85,26.05 274.85,26.05
             274.85,26.05 230.67,69.98 230.67,69.98
             230.67,69.98 193.01,107.04 193.01,107.04
             193.01,107.04 136.00,163.99 136.00,163.99
             136.00,163.99 64.00,235.00 64.00,235.00
             64.00,235.00 20.00,279.00 20.00,279.00
             20.00,279.00 5.60,295.00 5.60,295.00
             5.60,295.00 5.00,302.00 5.00,302.00
             5.00,302.00 5.00,321.00 5.00,321.00 Z" />
  <path id="Selection #4"
        fill="none" stroke="black" stroke-width="1"
        d="M 5.00,179.00
           C 5.00,179.00 5.00,284.00 5.00,284.00
             5.00,284.00 48.28,241.42 48.28,241.42
             48.28,241.42 154.98,135.91 154.98,135.91
             154.98,135.91 162.04,128.34 162.04,128.34
             162.04,128.34 234.91,56.18 234.91,56.18
             234.91,56.18 255.98,35.91 255.98,35.91
             255.98,35.91 263.04,28.34 263.04,28.34
             263.04,28.34 281.00,10.00 281.00,10.00
             281.00,10.00 184.00,10.00 184.00,10.00
             174.23,10.02 175.06,10.98 175.00,21.00
             174.95,28.07 174.27,26.37 173.25,32.00
             169.74,51.49 161.46,69.45 150.66,86.00
             129.69,118.11 109.04,137.95 76.00,157.23
             60.28,166.40 43.96,173.24 26.00,176.63
             26.00,176.63 19.00,177.30 19.00,177.30
             11.84,178.33 13.66,178.97 5.00,179.00 Z" />
  <path id="Selection #3"
        fill="none" stroke="black" stroke-width="1"
        d="M 145.00,10.00
           C 144.93,17.73 144.37,15.73 143.32,22.00
             142.35,27.80 141.59,33.33 139.82,39.00
             132.22,63.36 110.43,93.43 91.42,110.25
             84.20,116.65 76.19,121.76 68.11,126.96
             55.70,134.93 42.24,140.67 28.00,144.51
             28.00,144.51 16.00,146.91 16.00,146.91
             13.84,147.07 9.02,146.76 7.31,147.60
             4.45,149.00 5.01,153.32 5.00,156.00
             5.00,156.00 5.00,171.00 5.00,171.00
             5.00,171.00 12.00,171.00 12.00,171.00
             19.76,170.99 17.43,170.61 24.00,169.37
             24.00,169.37 31.00,168.55 31.00,168.55
             39.15,166.78 47.32,163.63 55.00,160.42
             93.35,144.41 126.87,113.80 147.71,78.00
             158.86,58.86 164.30,46.10 167.42,24.00
             167.42,24.00 169.00,10.00 169.00,10.00
             169.00,10.00 145.00,10.00 145.00,10.00 Z" />
  <path id="Selection #2"
        fill="none" stroke="black" stroke-width="1"
        d="M 5.00,141.00
           C 12.00,140.78 10.22,140.04 15.00,139.26
             15.00,139.26 25.00,138.40 25.00,138.40
             47.72,132.97 75.31,117.13 91.96,100.91
             98.87,94.18 108.67,82.02 114.28,74.00
             125.47,57.98 136.97,34.90 137.00,15.00
             137.00,15.00 137.00,10.00 137.00,10.00
             133.63,10.00 123.78,9.44 121.30,11.02
             119.06,12.44 117.95,16.36 116.40,18.71
             113.11,23.73 107.93,27.27 102.00,28.29
             89.49,30.46 74.78,18.18 64.00,17.84
             57.77,17.64 52.50,22.60 53.27,29.00
             54.37,38.22 63.80,37.38 72.00,42.15
             79.82,46.69 94.07,58.70 95.65,68.01
             96.38,72.35 94.17,80.03 92.26,83.96
             91.15,86.26 88.57,89.96 86.73,91.71
             81.37,96.82 68.16,100.96 61.00,98.15
             53.64,95.26 42.45,82.90 38.58,76.00
             33.10,66.23 33.85,58.74 25.00,57.57
             18.05,56.65 14.21,60.26 14.02,67.00
             13.61,81.07 26.57,89.20 23.79,107.00
             22.93,112.49 17.70,118.12 13.00,120.78
             10.99,121.91 7.28,122.82 6.02,124.56
             4.40,126.78 5.00,137.74 5.00,141.00 Z" />
  <path id="Selection #1"
        fill="none" stroke="black" stroke-width="1"
        d="M 5.00,117.00
           C 7.61,115.81 10.75,114.60 12.89,112.70
             25.04,101.95 8.26,79.69 6.26,72.83
             6.02,71.09 5.94,68.79 6.26,67.00
             6.59,58.35 13.22,51.03 22.00,50.13
             28.37,49.48 35.29,53.59 38.45,59.04
             38.45,59.04 41.67,67.00 41.67,67.00
             45.87,76.98 55.10,90.80 67.00,91.00
             70.78,91.06 74.35,91.21 77.83,89.45
             86.50,85.07 91.55,71.23 85.57,63.00
             82.66,58.99 74.34,50.94 69.83,48.53
             61.53,44.09 54.14,44.65 48.27,35.58
             43.10,27.58 48.08,16.40 56.00,12.31
             59.04,10.75 62.66,10.95 66.00,11.00
             78.83,11.21 98.10,30.95 109.21,16.90
             110.86,14.81 111.93,12.40 113.00,10.00
             113.00,10.00 54.00,10.00 54.00,10.00
             51.88,10.01 49.20,9.87 47.34,11.02
             42.62,13.93 40.07,24.78 40.00,30.00
             39.95,33.71 40.66,38.68 37.77,41.49
             35.42,43.78 32.77,42.78 29.00,43.52
             22.88,44.70 8.43,45.89 5.57,52.34
             4.86,53.93 5.00,57.20 5.00,59.00
             5.00,59.00 5.00,117.00 5.00,117.00 Z" />
  <path id="Selection"
        fill="none" stroke="black" stroke-width="1"
        d="M 5.00,10.00
           C 5.00,10.00 5.00,43.00 5.00,43.00
             18.59,37.16 17.26,37.00 32.00,37.00
             32.00,37.00 35.05,18.01 35.05,18.01
             35.05,18.01 38.00,10.00 38.00,10.00
             38.00,10.00 5.00,10.00 5.00,10.00 Z" />
</svg>
