<?xml version="1.0" encoding="UTF-8" standalone="no"?>
<!DOCTYPE svg PUBLIC "-//W3C//DTD SVG 20010904//EN"
              "http://www.w3.org/TR/2001/REC-SVG-20010904/DTD/svg10.dtd">

<svg xmlns="http://www.w3.org/2000/svg" >
  <path id="Selection #7"
        fill="none" stroke="black" stroke-width="1"
        d="M 494.00,227.00
           C 478.74,238.58 472.01,266.46 472.01,285.00
             472.01,285.00 474.08,305.98 474.08,305.98
             472.71,312.39 458.25,314.95 455.73,320.33
             453.71,324.65 463.23,333.59 466.12,336.57
             467.56,338.06 470.02,340.06 469.71,342.39
             469.15,346.54 454.35,355.25 454.15,361.00
             454.07,363.61 457.81,367.89 459.37,370.00
             463.28,375.28 467.97,382.98 470.57,389.00
             470.57,389.00 475.54,401.00 475.54,401.00
             480.35,416.11 480.05,434.46 478.00,450.00
             452.86,436.71 440.20,422.88 430.44,396.00
             430.44,396.00 424.00,370.00 424.00,370.00
             424.00,370.00 406.00,371.98 406.00,371.98
             403.27,371.89 400.83,371.68 399.60,368.85
             398.58,366.52 399.52,349.15 395.28,346.01
             390.54,342.50 377.86,351.92 373.30,349.22
             373.30,349.22 359.00,332.00 359.00,332.00
             347.80,320.81 339.17,316.43 324.00,312.99
             317.38,311.49 318.18,311.07 311.00,311.00
             311.01,331.05 320.13,349.73 335.04,363.00
             339.56,367.02 345.22,371.16 351.00,373.00
             351.00,373.00 345.27,389.00 345.27,389.00
             344.92,390.92 343.71,394.46 345.27,396.26
             346.65,398.47 356.21,398.96 359.00,399.16
             360.89,399.02 365.34,398.88 366.95,399.16
             373.48,401.08 371.23,412.77 370.58,418.00
             370.28,420.36 369.58,423.23 371.60,425.07
             373.54,426.83 382.05,427.71 385.00,428.26
             391.49,429.48 399.82,432.86 406.00,435.46
             424.59,443.30 440.38,461.09 449.00,479.00
             443.12,480.43 443.21,479.67 438.00,480.17
             407.96,483.04 384.11,472.74 361.00,454.00
             355.58,457.16 353.52,459.30 349.42,464.00
             347.76,465.91 344.61,470.03 342.00,470.38
             339.62,470.69 337.58,468.44 336.00,466.98
             333.38,464.55 325.41,456.37 322.01,456.34
             314.88,456.27 312.89,473.01 305.96,474.67
             305.96,474.67 294.00,474.00 294.00,474.00
             274.16,473.77 268.24,473.42 249.00,480.00
             240.61,482.88 231.35,488.04 227.00,496.00
             227.00,496.00 495.00,496.00 495.00,496.00
             495.00,496.00 495.00,307.00 495.00,307.00
             495.00,307.00 495.00,252.00 495.00,252.00
             495.00,252.00 494.00,227.00 494.00,227.00 Z" />
  <path id="Selection #6"
        fill="none" stroke="black" stroke-width="1"
        d="M 267.00,267.00
           C 266.75,278.62 259.93,303.28 256.44,315.00
             241.84,364.01 220.39,404.20 183.00,439.96
             167.75,454.54 150.22,465.75 133.00,477.72
             125.93,482.63 115.97,487.42 113.00,496.00
             113.00,496.00 212.00,496.00 212.00,496.00
             226.68,495.97 220.03,488.47 238.00,478.79
             256.50,468.84 284.66,464.12 305.00,470.00
             308.00,463.64 309.90,459.60 314.51,454.02
             316.12,452.08 318.80,449.09 321.58,449.22
             325.48,449.40 337.91,460.97 341.00,464.00
             345.56,460.73 355.71,448.87 360.00,448.28
             363.06,447.87 366.68,451.35 369.00,453.12
             374.36,457.19 380.93,461.94 387.00,464.81
             402.67,472.23 410.94,473.40 428.00,474.68
             428.00,474.68 440.00,474.00 440.00,474.00
             426.49,450.50 408.41,440.43 383.00,433.73
             383.00,433.73 362.00,430.00 362.00,430.00
             364.68,420.83 365.97,414.64 366.00,405.00
             358.98,405.00 351.68,405.68 345.00,403.12
             341.95,401.95 339.07,400.57 338.60,396.98
             337.83,391.12 344.19,379.51 341.36,375.30
             339.74,372.90 331.66,368.12 325.42,360.99
             309.76,343.07 305.00,328.46 305.00,305.00
             325.60,305.19 343.29,310.75 358.99,324.43
             358.99,324.43 375.29,342.22 375.29,342.22
             381.08,345.63 393.32,334.47 399.72,340.33
             404.84,345.00 404.00,360.33 404.00,367.00
             404.00,367.00 416.00,365.68 416.00,365.68
             416.00,365.68 430.00,363.00 430.00,363.00
             430.09,372.80 431.93,379.74 434.57,389.00
             434.57,389.00 437.44,399.00 437.44,399.00
             443.69,415.81 457.47,433.51 474.00,441.00
             474.00,441.00 474.00,428.00 474.00,428.00
             473.95,418.13 469.71,399.79 465.40,391.00
             461.96,384.01 457.97,377.32 453.41,371.00
             451.44,368.28 447.55,364.46 447.55,361.00
             447.55,355.80 458.89,345.94 463.00,343.00
             460.23,337.13 448.72,327.48 448.73,322.00
             448.74,313.58 466.39,308.79 467.69,303.79
             468.23,301.71 467.25,297.37 467.05,295.00
             467.05,295.00 467.05,278.00 467.05,278.00
             467.17,264.03 472.06,246.67 479.66,235.00
             483.81,228.62 487.45,223.57 495.00,221.00
             495.00,221.00 495.00,113.00 495.00,113.00
             485.49,115.79 479.53,128.16 474.33,136.00
             460.99,156.14 451.90,169.13 435.00,186.83
             402.45,220.93 361.57,242.20 317.00,255.88
             304.98,259.57 278.98,266.45 267.00,267.00 Z" />
  <path id="Selection #5"
        fill="none" stroke="black" stroke-width="1"
        d="M 237.00,237.00
           C 231.90,299.98 209.56,359.76 166.83,407.00
             150.38,425.20 127.26,444.00 106.00,456.33
             106.00,456.33 90.00,465.58 90.00,465.58
             87.92,466.76 84.29,468.40 83.02,470.39
             81.78,472.34 82.00,475.73 82.00,478.00
             82.00,478.00 82.00,496.00 82.00,496.00
             82.00,496.00 107.00,496.00 107.00,496.00
             110.59,483.83 126.03,475.93 136.00,469.12
             158.00,454.09 178.07,439.63 195.41,419.00
             225.23,383.52 235.20,361.07 249.92,318.00
             249.92,318.00 259.00,281.00 259.00,281.00
             259.88,276.44 260.26,267.50 263.31,264.27
             267.05,260.32 275.76,259.66 281.00,258.75
             281.00,258.75 316.00,250.56 316.00,250.56
             347.95,241.01 378.34,226.13 405.00,206.13
             425.66,190.63 446.97,167.59 461.14,146.00
             461.14,146.00 480.01,118.00 480.01,118.00
             484.54,112.23 487.75,108.14 495.00,106.00
             495.00,106.00 495.00,81.00 495.00,81.00
             495.00,81.00 477.00,81.00 477.00,81.00
             474.81,81.00 471.46,80.75 469.61,81.99
             467.24,83.58 458.70,100.20 456.39,104.00
             443.79,124.70 426.70,147.43 409.00,163.91
             369.94,200.30 327.76,220.19 276.00,231.21
             263.17,233.94 250.15,236.40 237.00,237.00 Z" />
  <path id="Selection #4"
        fill="none" stroke="black" stroke-width="1"
        d="M 266.00,142.00
           C 277.33,138.13 279.98,126.67 280.00,116.00
             280.01,113.07 279.58,108.75 281.60,106.43
             283.78,103.92 287.92,104.07 291.00,103.10
             297.55,101.03 303.02,97.29 306.00,91.00
             295.92,91.46 288.72,95.11 278.00,91.96
             266.18,88.48 257.55,79.88 247.00,73.75
             225.37,61.18 199.72,53.75 177.00,68.35
             171.19,72.08 164.85,76.82 160.29,82.00
             155.29,87.68 149.98,95.88 147.38,103.00
             143.63,113.32 142.62,124.14 143.38,135.00
             143.61,138.27 143.34,140.97 139.89,142.40
             137.68,143.32 128.90,143.00 126.00,143.00
             119.35,143.01 112.30,143.85 106.00,146.09
             83.08,154.23 64.13,175.38 61.18,200.00
             59.02,218.02 70.00,240.25 79.43,255.00
             83.34,261.11 88.83,267.22 91.76,274.00
             95.72,284.59 92.88,295.15 91.76,306.00
             97.37,303.45 101.44,298.74 103.20,293.00
             104.38,289.14 103.73,284.50 107.28,281.74
             110.41,279.30 116.14,280.18 120.00,279.91
             130.42,279.18 139.43,275.58 143.00,265.00
             121.09,265.00 102.29,254.05 102.00,230.00
             101.92,222.67 102.04,216.86 105.19,210.00
             116.36,185.63 146.63,180.69 169.00,191.32
             188.11,200.42 199.76,223.38 200.00,244.00
             200.00,244.00 200.00,258.00 200.00,258.00
             199.98,269.05 197.80,277.44 195.42,288.00
             186.46,327.81 160.71,366.32 130.91,393.73
             111.13,411.93 94.02,423.31 70.00,435.03
             70.00,435.03 55.00,441.25 55.00,441.25
             52.98,442.03 49.30,442.83 48.02,444.56
             46.77,446.27 47.00,449.91 47.00,452.00
             47.00,452.00 47.00,496.00 47.00,496.00
             47.00,496.00 76.00,496.00 76.00,496.00
             76.00,496.00 76.00,475.00 76.00,475.00
             76.00,472.69 75.79,469.27 77.02,467.27
             78.34,465.14 83.67,462.56 86.00,461.31
             86.00,461.31 106.00,449.99 106.00,449.99
             133.75,432.27 158.34,411.63 178.00,385.00
             200.44,354.61 213.95,323.46 223.11,287.00
             223.11,287.00 229.83,252.00 229.83,252.00
             230.29,248.10 230.67,236.93 232.74,234.28
             236.30,229.70 251.22,229.37 257.00,228.58
             277.13,225.79 297.94,221.10 317.00,213.94
             356.44,199.11 392.92,176.21 420.58,144.00
             431.81,130.92 447.26,110.16 455.25,95.00
             457.00,91.69 463.94,77.39 466.22,76.02
             468.26,74.80 471.66,75.00 474.00,75.00
             474.00,75.00 495.00,75.00 495.00,75.00
             495.00,75.00 495.00,47.00 495.00,47.00
             495.00,47.00 451.00,47.00 451.00,47.00
             448.85,47.00 445.29,46.77 443.51,48.02
             440.87,49.87 437.26,62.37 435.79,66.00
             429.98,80.38 419.78,96.59 410.47,109.00
             372.21,160.02 313.84,200.77 248.00,200.00
             222.37,199.70 198.63,188.16 189.32,163.00
             187.05,156.86 186.08,154.69 186.00,148.00
             185.85,135.28 188.84,123.88 197.46,114.09
             210.47,99.32 235.25,96.00 251.00,108.39
             263.55,118.26 262.66,128.31 266.00,142.00 Z" />
  <path id="Selection #3"
        fill="none" stroke="black" stroke-width="1"
        d="M 5.00,279.00
           C 5.00,279.00 5.00,386.00 5.00,386.00
             15.25,381.42 20.51,375.86 23.57,365.00
             25.01,359.91 24.76,353.06 27.70,349.11
             31.10,344.54 36.08,345.09 41.00,343.56
             45.82,342.06 47.41,340.38 51.00,337.00
             51.00,337.00 37.48,321.00 37.48,321.00
             28.73,309.24 21.68,293.81 21.00,279.00
             21.00,279.00 5.00,279.00 5.00,279.00 Z" />
  <path id="Selection #2"
        fill="none" stroke="black" stroke-width="1"
        d="M 279.00,4.00
           C 279.00,4.00 279.00,20.00 279.00,20.00
             301.35,20.49 320.56,35.27 336.00,50.00
             340.30,46.56 342.66,42.28 344.22,37.00
             345.27,33.46 345.08,29.23 348.28,26.74
             350.56,24.95 358.49,24.23 362.00,23.26
             373.20,20.15 380.66,15.33 385.00,4.00
             385.00,4.00 279.00,4.00 279.00,4.00 Z" />
  <path id="Selection #1"
        fill="none" stroke="black" stroke-width="1"
        d="M 135.00,4.00
           C 132.50,12.48 123.57,20.99 115.00,23.24
             111.81,24.08 103.54,24.60 101.39,26.02
             99.64,27.17 95.78,34.53 93.98,37.00
             89.61,43.03 84.17,47.87 78.00,52.00
             75.47,45.70 75.07,44.27 70.27,39.09
             54.88,22.50 32.23,37.75 32.34,54.00
             32.39,60.72 36.92,67.30 42.01,71.32
             45.66,74.20 47.50,75.14 52.00,76.00
             50.35,83.76 42.60,90.78 36.00,94.80
             33.70,96.19 29.28,98.05 27.57,99.90
             24.59,103.14 27.55,108.18 23.10,118.00
             20.93,122.77 17.18,127.31 13.00,130.45
             11.01,131.93 7.23,133.57 6.02,135.41
             4.78,137.32 5.00,140.76 5.00,143.00
             5.00,143.00 5.00,273.00 5.00,273.00
             8.65,273.00 21.17,272.36 23.69,274.02
             26.63,275.97 26.86,283.59 27.75,287.00
             30.37,296.92 33.89,306.52 39.77,315.00
             42.77,319.32 48.60,325.96 52.28,329.83
             54.12,331.77 57.31,333.99 56.96,336.98
             56.30,342.68 45.05,348.67 40.00,350.07
             38.20,350.57 34.91,350.96 33.51,352.01
             29.91,354.71 32.41,359.44 28.55,369.00
             26.04,375.22 22.80,380.64 17.57,384.96
             7.78,393.04 5.02,387.96 5.00,400.00
             5.00,400.00 5.00,496.00 5.00,496.00
             5.00,496.00 42.00,496.00 42.00,496.00
             42.00,496.00 42.00,448.00 42.00,448.00
             42.00,445.75 41.78,442.32 43.02,440.39
             45.23,436.97 55.81,434.89 60.00,433.26
             75.23,427.33 89.72,418.91 103.00,409.44
             142.49,381.31 177.40,337.70 189.34,290.00
             192.84,275.99 194.16,261.39 194.00,247.00
             193.67,219.19 178.81,192.36 148.00,192.00
             138.51,191.89 129.98,192.92 122.00,198.63
             106.43,209.79 101.46,233.72 114.39,248.91
             125.39,261.84 140.82,257.28 152.00,260.00
             147.08,270.44 143.07,279.97 131.00,283.95
             127.29,285.17 122.90,285.88 119.00,285.99
             116.99,286.04 113.35,285.72 111.73,286.99
             110.38,288.06 107.96,296.44 106.60,299.00
             102.28,307.14 93.18,314.50 84.00,316.00
             84.00,316.00 88.00,290.00 88.00,290.00
             88.20,272.55 81.23,267.61 72.21,254.00
             72.21,254.00 65.48,242.00 65.48,242.00
             60.51,232.46 55.70,217.79 55.09,207.00
             54.02,188.13 65.67,168.50 79.00,156.09
             86.20,149.38 93.69,144.48 103.00,141.33
             115.77,137.02 123.42,135.21 137.00,137.00
             137.00,122.37 136.38,116.11 142.00,102.00
             146.31,91.18 149.36,85.79 157.42,77.09
             181.63,50.96 212.75,49.06 243.00,65.31
             243.00,65.31 261.00,76.09 261.00,76.09
             272.63,83.95 274.16,87.16 289.00,87.00
             289.00,87.00 316.00,84.00 316.00,84.00
             313.55,92.56 306.84,101.57 299.00,105.93
             293.66,108.90 288.72,108.40 287.02,110.59
             285.11,113.05 286.73,119.72 285.39,125.00
             281.78,139.27 273.33,147.73 259.00,151.00
             259.00,138.85 260.02,124.76 250.67,115.32
             237.99,102.52 214.22,104.73 202.30,117.17
             194.52,125.29 191.76,135.99 192.01,147.00
             192.44,165.92 205.05,183.47 223.00,189.76
             229.66,192.09 244.90,193.92 252.00,193.92
             252.00,193.92 261.00,193.04 261.00,193.04
             303.08,191.19 344.51,169.31 375.00,140.91
             387.44,129.32 400.34,113.85 410.27,100.00
             419.39,87.29 426.71,73.49 432.55,59.00
             434.37,54.47 436.19,43.33 440.14,41.02
             442.23,39.80 445.62,40.00 448.00,40.00
             448.00,40.00 495.00,40.00 495.00,40.00
             495.00,40.00 495.00,4.00 495.00,4.00
             495.00,4.00 399.00,4.00 399.00,4.00
             387.36,4.02 392.98,5.71 384.53,16.00
             381.02,20.28 376.06,24.19 371.00,26.48
             367.07,28.26 363.22,28.94 359.00,29.57
             356.76,29.91 353.48,29.88 351.85,31.60
             350.19,33.36 349.91,37.59 349.24,40.00
             347.81,45.15 342.32,54.10 337.16,56.01
             334.44,57.01 332.73,54.69 330.96,52.97
             326.82,48.95 324.66,46.67 320.00,43.01
             303.09,29.74 293.59,27.72 273.00,25.00
             273.00,25.00 273.00,4.00 273.00,4.00
             273.00,4.00 135.00,4.00 135.00,4.00 Z" />
  <path id="Selection"
        fill="none" stroke="black" stroke-width="1"
        d="M 5.00,4.00
           C 5.00,4.00 5.00,128.00 5.00,128.00
             13.45,124.88 17.86,118.80 19.62,110.00
             20.50,105.64 19.07,101.06 21.89,97.21
             24.11,94.18 27.91,93.24 31.00,91.40
             36.30,88.24 41.32,84.66 44.00,79.00
             33.32,72.76 25.39,62.93 27.30,50.00
             28.12,44.46 30.09,41.26 33.62,37.01
             43.19,25.51 57.75,21.56 70.00,31.47
             74.44,35.06 77.13,38.09 80.00,43.00
             91.22,37.68 92.56,24.81 98.21,20.60
             101.62,18.06 105.65,19.60 111.00,18.52
             119.45,16.82 125.48,11.80 129.00,4.00
             129.00,4.00 5.00,4.00 5.00,4.00 Z" />
</svg>
