<?xml version="1.0" encoding="UTF-8" standalone="no"?>
<!DOCTYPE svg PUBLIC "-//W3C//DTD SVG 20010904//EN"
              "http://www.w3.org/TR/2001/REC-SVG-20010904/DTD/svg10.dtd">

<svg xmlns="http://www.w3.org/2000/svg"
     width="28.5327mm" height="28.1941mm"
     viewBox="0 0 337 333">
  <path id="Selection #8"
        fill="none" stroke="black" stroke-width="1"
        d="M 171.00,169.00
           C 171.00,169.00 171.00,232.00 171.00,232.00
             171.02,243.22 176.28,245.28 184.00,253.00
             184.00,253.00 220.00,288.00 220.00,288.00
             220.00,288.00 220.00,225.00 220.00,225.00
             219.98,213.78 214.72,211.72 207.00,204.00
             207.00,204.00 171.00,169.00 171.00,169.00 Z" />
  <path id="Selection #7"
        fill="none" stroke="black" stroke-width="1"
        d="M 168.00,169.00
           C 168.00,169.00 133.00,204.00 133.00,204.00
             133.00,204.00 119.60,219.00 119.60,219.00
             119.60,219.00 119.00,226.00 119.00,226.00
             119.00,226.00 119.00,289.00 119.00,289.00
             119.00,289.00 156.00,253.00 156.00,253.00
             163.72,245.28 168.98,243.22 169.00,232.00
             169.00,232.00 169.00,189.00 169.00,189.00
             169.00,183.85 169.74,173.38 168.00,169.00 Z" />
  <path id="Selection #6"
        fill="none" stroke="black" stroke-width="1"
        d="M 172.00,167.00
           C 172.00,167.00 208.00,204.00 208.00,204.00
             215.72,211.72 217.78,216.98 229.00,217.00
             229.00,217.00 292.00,217.00 292.00,217.00
             292.00,217.00 256.00,180.00 256.00,180.00
             248.28,172.28 246.22,167.02 235.00,167.00
             235.00,167.00 172.00,167.00 172.00,167.00 Z" />
  <path id="Selection #5"
        fill="none" stroke="black" stroke-width="1"
        d="M 48.00,217.00
           C 48.00,217.00 111.00,217.00 111.00,217.00
             122.22,216.98 124.28,211.72 132.00,204.00
             132.00,204.00 168.00,167.00 168.00,167.00
             168.00,167.00 105.00,167.00 105.00,167.00
             93.78,167.02 91.72,172.28 84.00,180.00
             84.00,180.00 48.00,217.00 48.00,217.00 Z" />
  <path id="Selection #4"
        fill="none" stroke="black" stroke-width="1"
        d="M 172.00,166.00
           C 172.00,166.00 235.00,166.00 235.00,166.00
             246.22,165.98 248.28,160.72 256.00,153.00
             256.00,153.00 292.00,116.00 292.00,116.00
             292.00,116.00 229.00,116.00 229.00,116.00
             217.78,116.02 215.72,121.28 208.00,129.00
             208.00,129.00 172.00,166.00 172.00,166.00 Z" />
  <path id="Selection #3"
        fill="none" stroke="black" stroke-width="1"
        d="M 48.00,116.00
           C 48.00,116.00 83.00,152.00 83.00,152.00
             90.72,159.72 92.78,164.98 104.00,165.00
             104.00,165.00 167.00,165.00 167.00,165.00
             167.00,165.00 132.00,129.00 132.00,129.00
             124.28,121.28 122.22,116.02 111.00,116.00
             111.00,116.00 48.00,116.00 48.00,116.00 Z" />
  <path id="Selection #2"
        fill="none" stroke="black" stroke-width="1"
        d="M 219.00,45.00
           C 219.00,45.00 184.00,80.00 184.00,80.00
             176.28,87.72 171.02,89.78 171.00,101.00
             171.00,101.00 171.00,164.00 171.00,164.00
             171.00,164.00 207.00,129.00 207.00,129.00
             214.72,121.28 219.98,119.22 220.00,108.00
             220.00,108.00 220.00,65.00 220.00,65.00
             220.00,59.85 220.74,49.38 219.00,45.00 Z" />
  <path id="Selection #1"
        fill="none" stroke="black" stroke-width="1"
        d="M 9.00,5.00
           C 9.00,5.00 9.00,328.00 9.00,328.00
             9.00,328.00 331.00,328.00 331.00,328.00
             331.00,328.00 331.00,5.00 331.00,5.00
             331.00,5.00 9.00,5.00 9.00,5.00 Z
           M 118.00,41.00
           C 118.00,41.00 155.00,77.00 155.00,77.00
             157.60,79.60 166.82,89.96 170.00,89.96
             173.18,89.96 182.40,79.60 185.00,77.00
             185.00,77.00 208.00,54.00 208.00,54.00
             212.63,49.37 217.02,43.83 223.00,41.00
             223.00,41.00 222.00,67.00 222.00,67.00
             222.00,67.00 222.00,114.00 222.00,114.00
             222.00,114.00 295.00,114.00 295.00,114.00
             292.01,120.33 283.17,127.83 278.00,133.00
             270.80,140.20 250.70,161.21 244.00,166.00
             244.00,166.00 278.00,200.00 278.00,200.00
             283.17,205.17 292.01,212.67 295.00,219.00
             295.00,219.00 222.00,219.00 222.00,219.00
             222.00,219.00 222.00,266.00 222.00,266.00
             222.00,266.00 223.00,292.00 223.00,292.00
             217.02,289.17 212.63,283.63 208.00,279.00
             208.00,279.00 185.00,256.00 185.00,256.00
             182.40,253.40 173.18,243.04 170.00,243.04
             166.82,243.04 157.60,253.40 155.00,256.00
             155.00,256.00 132.00,279.00 132.00,279.00
             127.37,283.63 122.98,289.17 117.00,292.00
             117.00,292.00 118.00,266.00 118.00,266.00
             118.00,266.00 118.00,219.00 118.00,219.00
             118.00,219.00 45.00,219.00 45.00,219.00
             47.99,212.67 56.83,205.17 62.00,200.00
             69.20,192.80 89.30,171.79 96.00,167.00
             96.00,167.00 62.00,133.00 62.00,133.00
             56.83,127.83 47.99,120.33 45.00,114.00
             45.00,114.00 118.00,114.00 118.00,114.00
             118.00,114.00 118.00,65.00 118.00,65.00
             118.00,65.00 118.00,41.00 118.00,41.00 Z" />
  <path id="Selection"
        fill="none" stroke="black" stroke-width="1"
        d="M 119.00,44.00
           C 119.00,44.00 119.00,107.00 119.00,107.00
             119.02,118.22 124.28,120.28 132.00,128.00
             132.00,128.00 169.00,164.00 169.00,164.00
             169.00,164.00 169.00,101.00 169.00,101.00
             168.98,89.78 163.72,87.72 156.00,80.00
             156.00,80.00 119.00,44.00 119.00,44.00 Z" />
</svg>
