<?xml version="1.0" encoding="UTF-8" standalone="no"?>
<!DOCTYPE svg PUBLIC "-//W3C//DTD SVG 20010904//EN"
              "http://www.w3.org/TR/2001/REC-SVG-20010904/DTD/svg10.dtd">

<svg xmlns="http://www.w3.org/2000/svg"
     width="28.4481mm" height="28.2787mm"
     viewBox="0 0 336 334">
  <path id="Selection #1"
        fill="none" stroke="black" stroke-width="1"
        d="M 167.00,114.00
           C 167.00,114.00 160.00,147.00 160.00,147.00
             160.00,147.00 131.00,129.00 131.00,129.00
             131.00,129.00 149.00,159.00 149.00,159.00
             149.00,159.00 114.00,166.00 114.00,166.00
             114.00,166.00 149.00,174.00 149.00,174.00
             149.00,174.00 130.00,205.00 130.00,205.00
             130.00,205.00 160.00,186.00 160.00,186.00
             160.00,186.00 167.00,219.00 167.00,219.00
             167.00,219.00 169.00,219.00 169.00,219.00
             169.00,219.00 176.00,186.00 176.00,186.00
             176.00,186.00 205.00,204.00 205.00,204.00
             205.00,204.00 187.00,174.00 187.00,174.00
             187.00,174.00 222.00,167.00 222.00,167.00
             222.00,167.00 187.00,159.00 187.00,159.00
             187.00,159.00 205.00,129.00 205.00,129.00
             205.00,129.00 176.00,147.00 176.00,147.00
             176.00,147.00 169.00,114.00 169.00,114.00
             169.00,114.00 167.00,114.00 167.00,114.00 Z" />
  <path id="Selection"
        fill="none" stroke="black" stroke-width="1"
        d="M 7.00,5.00
           C 7.00,5.00 7.00,328.00 7.00,328.00
             7.00,328.00 329.00,328.00 329.00,328.00
             329.00,328.00 329.00,5.00 329.00,5.00
             329.00,5.00 7.00,5.00 7.00,5.00 Z
           M 169.00,107.00
           C 169.00,107.00 177.00,145.00 177.00,145.00
             177.00,145.00 210.00,124.00 210.00,124.00
             210.00,124.00 190.00,158.00 190.00,158.00
             190.00,158.00 217.00,163.35 217.00,163.35
             221.40,164.35 224.41,164.01 227.00,168.00
             227.00,168.00 190.00,175.00 190.00,175.00
             190.00,175.00 210.00,209.00 210.00,209.00
             210.00,209.00 177.00,188.00 177.00,188.00
             177.00,188.00 171.88,213.00 171.88,213.00
             171.88,213.00 168.00,226.00 168.00,226.00
             168.00,226.00 164.12,213.00 164.12,213.00
             164.12,213.00 159.00,188.00 159.00,188.00
             159.00,188.00 126.00,209.00 126.00,209.00
             126.00,209.00 146.00,175.00 146.00,175.00
             146.00,175.00 109.00,167.00 109.00,167.00
             109.00,167.00 121.00,162.88 121.00,162.88
             121.00,162.88 146.00,158.00 146.00,158.00
             146.00,158.00 126.00,124.00 126.00,124.00
             126.00,124.00 159.00,145.00 159.00,145.00
             159.00,145.00 167.00,107.00 167.00,107.00
             167.00,107.00 169.00,107.00 169.00,107.00 Z" />
</svg>
