<?xml version="1.0" encoding="UTF-8" standalone="no"?>
<!DOCTYPE svg PUBLIC "-//W3C//DTD SVG 20010904//EN"
              "http://www.w3.org/TR/2001/REC-SVG-20010904/DTD/svg10.dtd">

<svg xmlns="http://www.w3.org/2000/svg"
     width="28.4481mm" height="28.4481mm"
     viewBox="0 0 336 336">
  <path id="Selection #8"
        fill="none" stroke="black" stroke-width="1"
        d="M 198.00,6.00
           C 198.00,6.00 216.00,10.86 216.00,10.86
             225.25,13.49 234.39,17.06 243.00,21.37
             275.41,37.58 301.17,64.77 317.25,97.00
             323.04,108.62 330.40,128.08 331.00,141.00
             331.00,141.00 332.00,127.00 332.00,127.00
             332.00,127.00 332.00,100.00 332.00,100.00
             332.00,100.00 332.00,6.00 332.00,6.00
             332.00,6.00 198.00,6.00 198.00,6.00 Z" />
  <path id="Selection #7"
        fill="none" stroke="black" stroke-width="1"
        d="M 172.00,6.00
           C 172.00,70.24 209.71,128.22 269.00,153.57
             290.30,162.68 309.01,166.00 332.00,166.00
             332.00,166.00 331.09,154.00 331.09,154.00
             325.03,71.08 255.24,6.06 172.00,6.00 Z" />
  <path id="Selection #6"
        fill="none" stroke="black" stroke-width="1"
        d="M 10.00,166.00
           C 32.99,166.00 51.70,162.68 73.00,153.57
             132.08,128.31 170.00,70.06 170.00,6.00
             170.00,6.00 158.00,6.91 158.00,6.91
             79.21,12.67 16.67,75.18 10.91,154.00
             10.91,154.00 10.00,166.00 10.00,166.00 Z" />
  <path id="Selection #5"
        fill="none" stroke="black" stroke-width="1"
        d="M 10.00,6.00
           C 10.00,6.00 10.00,141.00 10.00,141.00
             10.00,141.00 15.72,119.00 15.72,119.00
             18.99,108.26 23.97,97.85 29.31,88.00
             45.63,57.88 75.61,31.26 107.00,17.72
             117.31,13.27 132.87,7.91 144.00,7.00
             144.00,7.00 130.00,6.00 130.00,6.00
             130.00,6.00 103.00,6.00 103.00,6.00
             103.00,6.00 10.00,6.00 10.00,6.00 Z" />
  <path id="Selection #4"
        fill="none" stroke="black" stroke-width="1"
        d="M 170.00,27.00
           C 169.36,40.94 163.07,59.31 157.30,72.00
             138.88,112.54 103.37,145.49 61.00,159.67
             50.65,163.13 37.93,166.76 27.00,167.00
             27.00,167.00 44.00,170.42 44.00,170.42
             52.74,172.35 65.90,176.60 74.00,180.31
             111.91,197.67 142.19,227.59 158.72,266.00
             163.72,277.62 169.42,295.41 170.00,308.00
             170.00,308.00 172.00,308.00 172.00,308.00
             172.56,295.82 178.05,278.26 182.85,267.00
             198.75,229.69 226.79,200.82 263.00,182.75
             276.57,175.99 299.86,168.14 315.00,168.00
             315.00,168.00 298.00,164.58 298.00,164.58
             289.27,162.65 276.09,158.39 268.00,154.69
             230.20,137.38 199.76,107.28 183.28,69.00
             178.28,57.38 172.58,39.59 172.00,27.00
             172.00,27.00 170.00,27.00 170.00,27.00 Z" />
  <path id="Selection #3"
        fill="none" stroke="black" stroke-width="1"
        d="M 331.00,194.00
           C 330.35,207.96 322.50,227.50 316.25,240.00
             299.43,273.63 271.22,300.75 237.00,316.30
             226.07,321.27 209.93,327.02 198.00,328.00
             198.00,328.00 212.00,329.00 212.00,329.00
             212.00,329.00 239.00,329.00 239.00,329.00
             239.00,329.00 332.00,329.00 332.00,329.00
             332.00,329.00 332.00,235.00 332.00,235.00
             332.00,235.00 332.00,208.00 332.00,208.00
             332.00,208.00 331.00,194.00 331.00,194.00 Z" />
  <path id="Selection #2"
        fill="none" stroke="black" stroke-width="1"
        d="M 172.00,329.00
           C 172.00,329.00 184.00,328.09 184.00,328.09
             262.66,322.34 325.34,259.70 331.09,181.00
             331.09,181.00 332.00,169.00 332.00,169.00
             309.01,169.00 290.30,172.32 269.00,181.43
             209.71,206.78 172.00,264.76 172.00,329.00 Z" />
  <path id="Selection #1"
        fill="none" stroke="black" stroke-width="1"
        d="M 10.00,168.00
           C 10.06,251.75 74.28,321.97 158.00,328.09
             158.00,328.09 170.00,329.00 170.00,329.00
             170.00,264.75 132.30,206.78 73.00,181.43
             61.83,176.65 46.03,171.99 34.00,170.28
             34.00,170.28 10.00,168.00 10.00,168.00 Z" />
  <path id="Selection"
        fill="none" stroke="black" stroke-width="1"
        d="M 10.00,194.00
           C 10.00,194.00 10.00,329.00 10.00,329.00
             10.00,329.00 144.00,329.00 144.00,329.00
             144.00,329.00 122.00,322.98 122.00,322.98
             110.81,319.49 100.15,314.40 90.00,308.57
             59.98,291.35 35.02,262.78 21.43,231.00
             18.19,223.44 15.83,216.96 13.73,209.00
             13.73,209.00 10.00,194.00 10.00,194.00 Z" />
</svg>
