<?xml version="1.0" encoding="UTF-8" standalone="no"?>
<!DOCTYPE svg PUBLIC "-//W3C//DTD SVG 20010904//EN"
              "http://www.w3.org/TR/2001/REC-SVG-20010904/DTD/svg10.dtd">

<svg xmlns="http://www.w3.org/2000/svg"
     width="28.7021mm" height="28.2787mm"
     viewBox="0 0 339 334">
  <path id="Selection #12"
        fill="none" stroke="black" stroke-width="1"
        d="M 225.00,34.00
           C 225.00,34.00 190.00,69.00 190.00,69.00
             182.28,76.72 177.02,78.78 177.00,90.00
             177.00,90.00 177.00,154.00 177.00,154.00
             177.00,154.00 213.00,119.00 213.00,119.00
             220.72,111.28 225.98,109.22 226.00,98.00
             226.00,98.00 226.00,55.00 226.00,55.00
             226.00,49.72 226.76,38.44 225.00,34.00 Z" />
  <path id="Selection #11"
        fill="none" stroke="black" stroke-width="1"
        d="M 116.00,34.00
           C 116.00,34.00 116.00,98.00 116.00,98.00
             116.02,109.22 121.28,111.28 129.00,119.00
             129.00,119.00 165.00,154.00 165.00,154.00
             165.00,154.00 165.00,90.00 165.00,90.00
             164.98,78.78 159.72,76.72 152.00,69.00
             152.00,69.00 116.00,34.00 116.00,34.00 Z" />
  <path id="Selection #10"
        fill="none" stroke="black" stroke-width="1"
        d="M 183.00,161.00
           C 183.00,161.00 247.00,161.00 247.00,161.00
             257.93,160.98 259.48,156.55 267.00,149.00
             267.00,149.00 285.00,130.00 285.00,130.00
             290.44,124.56 298.73,116.97 303.00,111.00
             303.00,111.00 239.00,111.00 239.00,111.00
             228.03,111.02 226.55,115.45 219.00,123.00
             219.00,123.00 183.00,161.00 183.00,161.00 Z" />
  <path id="Selection #9"
        fill="none" stroke="black" stroke-width="1"
        d="M 39.00,111.00
           C 43.40,117.15 51.46,124.40 57.00,130.00
             57.00,130.00 75.00,149.00 75.00,149.00
             82.55,156.55 84.03,160.98 95.00,161.00
             95.00,161.00 159.00,161.00 159.00,161.00
             154.60,154.85 146.54,147.60 141.00,142.00
             141.00,142.00 123.00,123.00 123.00,123.00
             115.45,115.45 113.97,111.02 103.00,111.00
             103.00,111.00 39.00,111.00 39.00,111.00 Z" />
  <path id="Selection #8"
        fill="none" stroke="black" stroke-width="1"
        d="M 183.00,172.00
           C 187.28,177.97 195.56,185.56 201.00,191.00
             201.00,191.00 219.00,210.00 219.00,210.00
             226.55,217.55 228.04,221.98 239.00,222.00
             239.00,222.00 303.00,222.00 303.00,222.00
             298.60,215.85 292.33,210.45 287.01,205.00
             287.01,205.00 267.00,184.00 267.00,184.00
             259.45,176.45 257.97,172.02 247.00,172.00
             247.00,172.00 183.00,172.00 183.00,172.00 Z" />
  <path id="Selection #7"
        fill="none" stroke="black" stroke-width="1"
        d="M 39.00,222.00
           C 39.00,222.00 103.00,222.00 103.00,222.00
             113.67,221.98 115.74,217.55 122.96,210.00
             122.96,210.00 132.01,200.00 132.01,200.00
             138.83,193.02 154.09,178.86 159.00,172.00
             159.00,172.00 95.00,172.00 95.00,172.00
             83.78,172.02 81.72,177.28 74.00,185.00
             74.00,185.00 39.00,222.00 39.00,222.00 Z" />
  <path id="Selection #6"
        fill="none" stroke="black" stroke-width="1"
        d="M 177.00,179.00
           C 177.00,179.00 177.00,243.00 177.00,243.00
             177.02,254.22 182.28,256.28 190.00,264.00
             190.00,264.00 226.00,299.00 226.00,299.00
             226.00,299.00 226.00,235.00 226.00,235.00
             225.98,223.78 220.72,221.72 213.00,214.00
             213.00,214.00 177.00,179.00 177.00,179.00 Z" />
  <path id="Selection #5"
        fill="none" stroke="black" stroke-width="1"
        d="M 164.00,179.00
           C 164.00,179.00 129.00,214.00 129.00,214.00
             121.28,221.72 116.02,223.78 116.00,235.00
             116.00,235.00 116.00,299.00 116.00,299.00
             116.00,299.00 152.00,264.00 152.00,264.00
             159.72,256.28 164.98,254.22 165.00,243.00
             165.00,243.00 165.00,200.00 165.00,200.00
             165.00,194.72 165.76,183.44 164.00,179.00 Z" />
  <path id="Selection #4"
        fill="none" stroke="black" stroke-width="1"
        d="M 252.00,5.00
           C 252.00,5.00 292.00,46.00 292.00,46.00
             292.00,46.00 332.00,85.00 332.00,85.00
             332.00,85.00 332.00,5.00 332.00,5.00
             332.00,5.00 252.00,5.00 252.00,5.00 Z" />
  <path id="Selection #3"
        fill="none" stroke="black" stroke-width="1"
        d="M 10.00,5.00
           C 10.00,5.00 10.00,85.00 10.00,85.00
             10.00,85.00 51.00,45.00 51.00,45.00
             51.00,45.00 90.00,5.00 90.00,5.00
             90.00,5.00 10.00,5.00 10.00,5.00 Z" />
  <path id="Selection #2"
        fill="none" stroke="black" stroke-width="1"
        d="M 92.00,6.02
           C 86.27,9.83 75.45,21.55 70.00,27.00
             70.00,27.00 29.00,68.00 29.00,68.00
             25.16,71.84 12.11,83.88 10.60,88.00
             9.88,89.94 10.00,92.91 10.00,95.00
             10.00,95.00 10.00,238.00 10.00,238.00
             10.02,248.97 14.45,250.45 22.00,258.00
             22.00,258.00 44.00,280.00 44.00,280.00
             44.00,280.00 79.00,315.00 79.00,315.00
             86.72,322.72 88.78,327.98 100.00,328.00
             100.00,328.00 242.00,328.00 242.00,328.00
             252.97,327.98 254.45,323.55 262.00,316.00
             262.00,316.00 287.00,291.00 287.00,291.00
             287.00,291.00 319.00,259.00 319.00,259.00
             326.72,251.28 331.98,249.22 332.00,238.00
             332.00,238.00 332.00,95.00 332.00,95.00
             331.98,84.03 327.55,82.55 320.00,75.00
             320.00,75.00 293.00,48.00 293.00,48.00
             293.00,48.00 263.00,18.00 263.00,18.00
             255.28,10.28 253.22,5.02 242.00,5.00
             242.00,5.00 139.00,5.00 139.00,5.00
             139.00,5.00 109.00,5.00 109.00,5.00
             103.43,5.00 97.32,4.24 92.00,6.02 Z
           M 115.00,31.00
           C 115.00,31.00 154.00,69.00 154.00,69.00
             161.72,76.72 166.98,78.78 167.00,90.00
             167.00,90.00 167.00,133.00 167.00,133.00
             167.00,140.38 166.33,151.12 168.00,158.00
             163.48,156.52 161.32,153.33 158.00,150.00
             158.00,150.00 144.00,136.00 144.00,136.00
             144.00,136.00 125.00,117.00 125.00,117.00
             117.62,109.62 114.02,108.66 114.00,98.00
             114.00,98.00 114.00,53.00 114.00,53.00
             114.00,47.59 113.22,35.49 115.00,31.00 Z
           M 228.00,31.00
           C 228.00,31.00 228.00,98.00 228.00,98.00
             227.98,108.66 224.38,109.62 217.00,117.00
             217.00,117.00 197.00,137.00 197.00,137.00
             192.08,141.92 179.70,156.13 174.00,158.00
             175.67,151.12 175.00,140.38 175.00,133.00
             175.00,133.00 175.00,90.00 175.00,90.00
             175.02,79.34 178.62,78.38 186.00,71.00
             186.00,71.00 212.00,45.00 212.00,45.00
             216.77,40.23 221.93,33.87 228.00,31.00 Z
           M 162.00,163.00
           C 162.00,163.00 95.00,163.00 95.00,163.00
             92.91,163.00 89.94,163.12 88.00,162.40
             83.34,160.69 76.33,151.87 72.83,148.00
             72.83,148.00 35.00,109.00 35.00,109.00
             35.00,109.00 102.00,109.00 102.00,109.00
             115.39,109.02 117.58,115.87 126.09,125.00
             126.09,125.00 148.00,147.00 148.00,147.00
             152.77,151.77 159.13,156.93 162.00,163.00 Z
           M 307.00,109.00
           C 307.00,109.00 268.00,149.00 268.00,149.00
             259.76,157.34 259.14,162.98 247.00,163.00
             247.00,163.00 180.00,163.00 180.00,163.00
             182.87,156.93 189.23,151.77 194.00,147.00
             194.00,147.00 212.83,128.00 212.83,128.00
             216.93,123.47 226.76,111.74 232.00,109.74
             234.28,108.87 237.55,109.00 240.00,109.00
             240.00,109.00 307.00,109.00 307.00,109.00 Z
           M 162.00,170.00
           C 159.17,175.98 153.63,180.37 149.00,185.00
             149.00,185.00 123.00,211.00 123.00,211.00
             114.73,219.28 114.19,223.98 102.00,224.00
             102.00,224.00 35.00,224.00 35.00,224.00
             39.27,218.03 47.56,210.44 53.00,205.00
             53.00,205.00 75.00,182.00 75.00,182.00
             82.47,174.44 84.12,170.02 95.00,170.00
             95.00,170.00 162.00,170.00 162.00,170.00 Z
           M 307.00,224.00
           C 307.00,224.00 240.00,224.00 240.00,224.00
             226.76,223.98 226.68,218.91 217.99,210.00
             217.99,210.00 194.00,186.00 194.00,186.00
             189.23,181.23 182.87,176.07 180.00,170.00
             180.00,170.00 247.00,170.00 247.00,170.00
             249.09,170.00 252.06,169.88 254.00,170.60
             258.71,172.33 266.57,182.02 270.17,186.00
             270.17,186.00 307.00,224.00 307.00,224.00 Z
           M 168.00,175.00
           C 166.33,181.88 167.00,192.62 167.00,200.00
             167.00,200.00 167.00,243.00 167.00,243.00
             166.98,253.66 163.38,254.62 156.00,262.00
             156.00,262.00 130.00,288.00 130.00,288.00
             125.23,292.77 120.07,299.13 114.00,302.00
             114.00,302.00 114.00,235.00 114.00,235.00
             114.00,235.00 114.60,228.00 114.60,228.00
             114.60,228.00 128.00,213.00 128.00,213.00
             128.00,213.00 165.00,175.00 165.00,175.00
             165.00,175.00 168.00,175.00 168.00,175.00 Z
           M 175.00,175.00
           C 179.26,177.38 185.30,184.30 189.00,188.00
             189.00,188.00 216.00,215.00 216.00,215.00
             223.55,222.55 227.98,224.03 228.00,235.00
             228.00,235.00 228.00,302.00 228.00,302.00
             221.93,299.13 216.77,292.77 212.00,288.00
             212.00,288.00 186.00,262.00 186.00,262.00
             178.62,254.62 175.02,253.66 175.00,243.00
             175.00,243.00 175.00,197.00 175.00,197.00
             175.00,197.00 175.00,175.00 175.00,175.00 Z" />
  <path id="Selection #1"
        fill="none" stroke="black" stroke-width="1"
        d="M 331.00,248.00
           C 331.00,248.00 279.00,300.00 279.00,300.00
             279.00,300.00 252.00,328.00 252.00,328.00
             252.00,328.00 332.00,328.00 332.00,328.00
             332.00,328.00 332.00,273.00 332.00,273.00
             332.00,273.00 331.00,248.00 331.00,248.00 Z" />
  <path id="Selection"
        fill="none" stroke="black" stroke-width="1"
        d="M 10.00,248.00
           C 10.00,248.00 10.00,328.00 10.00,328.00
             10.00,328.00 90.00,328.00 90.00,328.00
             90.00,328.00 51.00,288.00 51.00,288.00
             51.00,288.00 10.00,248.00 10.00,248.00 Z" />
</svg>
