<?xml version="1.0" standalone="no"?>
<!DOCTYPE svg PUBLIC "-//W3C//DTD SVG 20010904//EN"
 "http://www.w3.org/TR/2001/REC-SVG-20010904/DTD/svg10.dtd">
<svg version="1.0" xmlns="http://www.w3.org/2000/svg"
 width="331.000000pt" height="329.000000pt" viewBox="0 0 331.000000 329.000000"
 preserveAspectRatio="xMidYMid meet">

<g transform="translate(0.000000,329.000000) scale(0.100000,-0.100000)"
fill="#000000" stroke="none">
<path d="M50 1635 l0 -1625 1620 0 1620 0 0 1625 0 1625 -1620 0 -1620 0 0
-1625z m135 1589 c221 -46 383 -121 491 -228 115 -114 162 -230 171 -418 l6
-118 -24 0 c-46 0 -205 39 -293 71 -253 91 -411 290 -455 571 -24 151 -24 149
1 144 13 -3 59 -12 103 -22z m1320 10 c-259 -62 -440 -166 -539 -311 -46 -69
-96 -192 -96 -241 0 -37 -8 -23 -25 44 -28 108 -82 202 -162 281 -61 60 -93
83 -186 128 -73 36 -154 66 -227 85 l-115 29 705 0 c634 -1 699 -2 645 -15z
m150 -41 c-38 -318 -160 -514 -389 -627 -93 -46 -234 -88 -340 -101 l-59 -8 6
109 c10 195 58 315 172 430 108 108 270 182 510 233 50 11 94 20 99 20 4 1 5
-25 1 -56z m195 20 c210 -50 342 -115 445 -218 113 -113 161 -234 172 -429 l6
-109 -59 8 c-106 13 -247 55 -340 101 -229 113 -351 309 -389 626 l-7 58 33
-6 c19 -3 81 -17 139 -31z m1225 7 c-194 -50 -317 -113 -420 -215 -78 -77
-132 -172 -160 -279 -17 -67 -25 -81 -25 -44 0 48 -49 172 -95 240 -100 145
-281 250 -540 312 -54 13 11 14 645 15 l705 0 -110 -29z m199 -32 c-19 -177
-92 -365 -181 -467 -60 -68 -165 -142 -260 -181 -77 -32 -265 -80 -317 -80
l-29 0 6 118 c9 190 55 303 171 418 111 110 272 183 511 234 50 10 94 19 98
19 4 1 5 -27 1 -61z m-1586 -113 c47 -251 185 -432 408 -537 38 -18 124 -46
191 -63 l122 -31 -85 -17 c-341 -70 -555 -263 -625 -563 -30 -126 -30 -126
-44 -53 -66 337 -278 542 -639 616 l-85 17 122 31 c273 69 434 189 533 400 39
85 74 199 74 245 0 43 16 17 28 -45z m-1558 -192 c103 -223 277 -349 575 -418
55 -13 88 -24 74 -24 -64 -2 -231 -54 -328 -102 -144 -71 -238 -163 -305 -299
-25 -52 -55 -129 -66 -170 l-19 -75 0 650 0 650 20 -75 c11 -41 33 -103 49
-137z m3149 -440 l0 -648 -19 75 c-54 206 -181 373 -355 462 -105 53 -163 73
-283 97 l-87 18 49 7 c215 33 416 134 526 266 61 74 125 203 148 297 9 40 18
73 20 73 1 0 2 -291 1 -647z m-2432 -121 c-15 -344 -195 -536 -594 -637 -55
-14 -121 -28 -147 -31 l-48 -7 5 29 c3 16 9 54 13 84 3 30 17 93 31 140 84
292 295 460 658 524 44 8 82 15 84 15 2 1 1 -52 -2 -117z m156 91 c338 -65
547 -248 621 -546 13 -50 27 -121 30 -156 l7 -63 -48 6 c-186 27 -427 121
-535 209 -58 48 -133 152 -161 223 -26 68 -47 189 -47 272 l0 79 28 -4 c15 -3
62 -11 105 -20z m1453 -191 c-42 -225 -137 -347 -351 -452 -96 -48 -267 -100
-378 -116 l-49 -7 7 59 c17 151 64 293 131 399 102 162 329 285 594 323 l55 7
3 -68 c2 -38 -4 -103 -12 -145z m167 191 c257 -49 455 -178 549 -358 41 -78
82 -210 92 -295 4 -30 10 -68 13 -84 l5 -29 -48 7 c-82 11 -246 56 -331 90
-269 110 -398 291 -411 577 l-5 117 29 -5 c16 -2 64 -11 107 -20z m-133 -216
c1 -39 48 -158 85 -214 109 -165 274 -260 565 -327 58 -14 95 -25 84 -25 -43
-2 -251 -59 -326 -91 -213 -88 -359 -246 -399 -430 -14 -62 -29 -87 -29 -49 0
33 -30 119 -65 189 -40 79 -172 207 -260 252 -91 47 -196 83 -322 111 l-103
23 87 18 c127 26 277 81 367 134 146 87 257 235 288 384 11 55 28 70 28 25z
m-1612 -42 c17 -69 64 -161 110 -217 119 -142 281 -226 552 -286 l85 -19 -48
-7 c-96 -15 -264 -68 -357 -113 -80 -39 -109 -60 -180 -132 -93 -93 -137 -168
-161 -274 -14 -58 -29 -76 -29 -34 -1 43 -50 162 -95 228 -98 143 -257 238
-503 300 -63 16 -124 29 -136 30 -11 0 16 9 60 19 308 70 478 166 589 333 38
57 84 176 85 217 0 35 14 13 28 -45z m-624 -571 c398 -100 578 -292 593 -635
l6 -117 -29 5 c-269 43 -418 107 -544 233 -110 110 -183 268 -204 440 -4 30
-10 68 -13 84 l-5 29 48 -7 c26 -3 93 -18 148 -32z m1400 -26 c-22 -202 -95
-370 -213 -488 -126 -126 -276 -190 -545 -233 l-29 -5 6 107 c19 351 189 538
582 641 115 30 145 36 183 39 22 1 23 -1 16 -61z m219 27 c270 -69 440 -182
521 -346 48 -100 66 -174 73 -300 l6 -107 -29 5 c-379 60 -584 192 -689 443
-29 68 -60 195 -70 284 l-7 59 48 -7 c26 -3 92 -17 147 -31z m1403 8 c-3 -16
-8 -53 -12 -83 -21 -172 -94 -330 -204 -440 -126 -126 -275 -190 -544 -233
l-29 -5 5 117 c6 125 34 231 84 316 87 149 259 257 509 319 137 34 136 34 168
35 26 1 28 -2 23 -26z m-1588 -145 c7 -40 27 -109 45 -153 99 -243 291 -390
591 -452 l85 -17 -124 -31 c-328 -82 -513 -257 -590 -560 -8 -32 -15 -70 -15
-82 0 -13 -4 -23 -10 -23 -5 0 -10 9 -10 20 0 50 -36 163 -81 258 -97 202
-264 325 -527 388 l-120 28 97 22 c252 57 420 167 530 348 39 65 87 201 97
275 4 28 10 51 13 51 4 0 13 -33 19 -72z m-1542 -216 c66 -135 164 -231 306
-301 97 -48 264 -100 327 -102 14 0 -19 -11 -74 -24 -350 -81 -546 -254 -624
-555 l-20 -75 0 650 0 650 19 -75 c11 -41 40 -117 66 -168z m3133 -409 l0
-648 -20 73 c-82 306 -273 476 -624 557 -55 13 -88 24 -74 24 63 2 230 54 327
102 142 70 240 166 306 301 26 51 54 126 64 165 9 40 18 73 20 73 1 0 2 -291
1 -647z m-2432 -130 c-9 -189 -56 -305 -171 -419 -52 -51 -95 -82 -161 -116
-120 -61 -200 -86 -432 -134 -22 -4 -22 -2 -17 43 21 181 68 323 143 430 81
115 182 189 329 243 89 33 235 68 286 69 l29 1 -6 -117z m233 81 c338 -87 518
-296 571 -662 6 -46 10 -85 7 -87 -2 -2 -46 5 -98 16 -245 51 -405 123 -515
234 -114 113 -162 234 -172 429 l-6 109 59 -8 c32 -4 102 -18 154 -31z m1387
-71 c-3 -60 -13 -135 -22 -168 -58 -212 -208 -356 -460 -440 -82 -28 -296 -77
-303 -70 -6 6 17 161 34 230 8 33 35 102 60 153 77 160 211 275 397 340 78 27
225 60 271 61 l29 1 -6 -107z m158 88 c388 -81 584 -284 640 -661 9 -56 14
-104 12 -106 -1 -2 -47 6 -100 17 -239 48 -401 122 -513 233 -116 115 -162
228 -171 419 l-6 117 24 0 c13 0 65 -9 114 -19z m-1726 -316 c74 -212 280
-361 606 -439 54 -13 -11 -14 -645 -15 l-705 0 95 24 c315 78 514 235 583 460
8 28 19 64 23 80 l7 30 8 -40 c4 -22 17 -67 28 -100z m1596 69 c64 -250 262
-416 595 -499 l95 -24 -705 0 -705 0 90 23 c253 66 416 164 512 309 46 69 93
188 93 235 0 37 8 23 25 -44z"/>
</g>
</svg>
