<?xml version="1.0" standalone="no"?>
<!DOCTYPE svg PUBLIC "-//W3C//DTD SVG 20010904//EN"
 "http://www.w3.org/TR/2001/REC-SVG-20010904/DTD/svg10.dtd">
<svg version="1.0" xmlns="http://www.w3.org/2000/svg"
 width="420.000000pt" height="600.000000pt" viewBox="0 0 420.000000 600.000000"
 preserveAspectRatio="xMidYMid meet">

<g transform="translate(0.000000,600.000000) scale(0.100000,-0.100000)"
fill="#000000" stroke="none">
<path d="M117 1663 c-10 -19 -8 -113 2 -113 6 0 11 11 11 24 0 39 20 42 49 7
32 -38 46 -41 27 -3 -10 19 -11 32 -3 43 18 29 1 49 -42 49 -22 0 -42 -3 -44
-7z m71 -25 c3 -14 -3 -18 -27 -18 -29 0 -41 17 -24 34 13 13 48 1 51 -16z"/>
<path d="M339 1663 c-1 -5 -1 -11 0 -15 0 -5 -4 -8 -10 -8 -5 0 -7 -5 -3 -12
4 -6 7 -26 6 -45 -1 -18 3 -33 8 -33 6 0 11 17 12 38 2 51 2 55 11 70 5 8 3
12 -7 12 -9 0 -17 -3 -17 -7z"/>
<path d="M540 1650 c-20 -16 -22 -20 -7 -20 13 0 17 -8 17 -34 0 -19 5 -38 10
-41 6 -4 10 17 10 54 0 34 -1 61 -2 61 -2 0 -14 -9 -28 -20z"/>
<path d="M611 1647 c-5 -13 -6 -39 -2 -58 5 -26 13 -35 30 -37 13 -2 28 2 32
10 13 20 11 82 -3 96 -19 19 -48 14 -57 -11z m49 -37 c0 -47 -16 -60 -32 -26
-8 20 -8 32 0 52 16 34 32 21 32 -26z"/>
<path d="M720 1650 c-20 -16 -22 -20 -7 -20 13 0 17 -9 17 -40 0 -22 5 -40 10
-40 6 0 10 27 10 60 0 33 -1 60 -2 60 -2 0 -14 -9 -28 -20z"/>
<path d="M813 1630 c-28 -48 -28 -50 -3 -50 11 0 20 -7 20 -15 0 -21 13 -19
28 5 7 12 8 20 2 20 -5 0 -10 18 -10 40 0 22 -3 40 -7 40 -5 0 -18 -18 -30
-40z m13 -37 c-10 -10 -19 5 -10 18 6 11 8 11 12 0 2 -7 1 -15 -2 -18z"/>
<path d="M890 1655 c-12 -14 -11 -16 13 -10 21 6 27 4 27 -9 0 -9 -6 -16 -12
-16 -7 0 -5 -5 5 -11 9 -5 17 -17 17 -26 0 -12 -7 -14 -31 -9 -27 5 -30 4 -19
-9 16 -19 59 -20 66 -1 3 8 2 34 -3 58 -9 47 -38 63 -63 33z"/>
<path d="M236 1628 c-3 -7 -6 -20 -9 -28 -11 -37 49 -71 68 -39 10 16 -3 23
-18 11 -8 -7 -17 -9 -20 -5 -14 13 -6 23 19 23 21 0 25 4 22 23 -2 16 -11 23
-31 25 -16 2 -29 -2 -31 -10z m44 -19 c0 -5 -10 -9 -21 -9 -18 0 -19 2 -9 15
12 15 30 12 30 -6z"/>
<path d="M120 1405 c-16 -19 -16 -71 1 -91 16 -20 66 -18 79 4 10 16 10 16 20
0 17 -27 58 -23 66 6 10 41 1 61 -29 64 -21 3 -29 -2 -36 -20 -11 -29 -62 -60
-81 -48 -18 11 -17 69 1 80 9 6 22 3 37 -6 22 -15 24 -14 20 3 -4 24 -60 30
-78 8z m150 -60 c0 -32 -16 -40 -30 -15 -9 16 -8 25 0 36 16 18 30 9 30 -21z"/>
<path d="M301 1360 c1 -33 6 -60 10 -60 5 0 9 27 9 60 0 34 -4 60 -10 60 -6 0
-10 -26 -9 -60z"/>
<path d="M750 1360 l0 -61 43 3 42 3 0 55 0 55 -42 3 -43 3 0 -61z m68 27 c3
-12 -3 -17 -22 -17 -25 0 -35 18 -19 34 12 12 38 2 41 -17z m0 -50 c4 -20 -25
-34 -40 -19 -15 15 -1 44 19 40 10 -2 19 -11 21 -21z"/>
<path d="M341 1368 c-13 -36 2 -63 35 -63 27 0 29 3 29 40 0 36 -3 40 -28 43
-21 3 -29 -2 -36 -20z m47 -29 c-3 -26 -18 -29 -32 -6 -7 10 -5 21 4 32 17 20
33 6 28 -26z"/>
<path d="M422 1368 c-4 -49 7 -68 38 -66 28 2 30 5 30 45 0 53 -18 57 -22 6
-2 -21 -7 -38 -13 -38 -5 0 -11 17 -13 38 -3 41 -16 50 -20 15z"/>
<path d="M502 1345 c1 -50 18 -63 18 -15 0 18 6 33 15 36 24 9 17 24 -10 24
-23 0 -25 -3 -23 -45z"/>
<path d="M563 1374 c-4 -11 3 -24 18 -36 l24 -20 -27 6 c-22 5 -26 3 -21 -9 9
-24 57 -15 61 11 2 16 -4 23 -23 28 -14 4 -23 11 -20 17 5 7 12 6 21 -2 16
-13 30 -6 19 10 -10 17 -45 13 -52 -5z"/>
<path d="M123 604 c-8 -23 9 -48 36 -52 14 -2 21 -9 19 -19 -4 -23 -23 -26
-42 -7 -21 20 -34 11 -16 -11 8 -10 25 -15 44 -13 25 2 32 8 34 29 3 22 -2 29
-27 37 -31 11 -39 26 -22 37 5 3 17 -2 26 -11 20 -20 33 -11 15 11 -17 20 -59
19 -67 -1z"/>
<path d="M215 610 c3 -5 8 -10 11 -10 2 0 4 5 4 10 0 6 -5 10 -11 10 -5 0 -7
-4 -4 -10z"/>
<path d="M577 614 c-4 -4 -7 -14 -7 -22 0 -12 4 -12 20 3 18 16 20 16 26 1 4
-10 -5 -29 -25 -51 -17 -20 -31 -38 -31 -40 0 -3 19 -4 43 -4 31 2 35 3 13 6
l-28 5 27 28 c34 35 32 74 -5 78 -14 2 -29 0 -33 -4z"/>
<path d="M664 609 c-4 -6 -7 -28 -7 -49 0 -21 3 -43 7 -49 11 -17 53 -13 60 5
10 26 7 79 -6 92 -15 15 -45 16 -54 1z m46 -48 c0 -47 -14 -61 -30 -30 -14 26
-5 69 15 69 11 0 15 -11 15 -39z"/>
<path d="M837 614 c-4 -4 -7 -14 -7 -22 0 -13 3 -13 18 1 19 17 32 14 32 -7 0
-6 -15 -26 -32 -45 -29 -33 -31 -33 -44 -16 -12 16 -12 22 1 42 13 20 13 23 1
23 -8 0 -17 -6 -20 -12 -5 -10 -7 -10 -12 0 -3 6 -12 12 -20 12 -13 0 -13 -3
0 -21 13 -19 13 -24 -1 -45 -16 -25 -6 -33 15 -12 9 9 15 9 24 0 7 -7 35 -11
63 -11 31 1 39 4 21 6 l-28 5 27 28 c34 35 32 74 -5 78 -14 2 -29 0 -33 -4z"/>
<path d="M924 609 c-4 -6 -7 -28 -7 -49 0 -21 3 -43 7 -49 11 -17 53 -13 60 5
10 26 7 79 -6 92 -15 15 -45 16 -54 1z m46 -49 c0 -43 -23 -57 -35 -20 -9 27
3 60 21 60 10 0 14 -12 14 -40z"/>
<path d="M212 545 c-1 -25 3 -45 8 -45 6 0 10 20 10 45 0 25 -4 45 -9 45 -5 0
-9 -20 -9 -45z"/>
<path d="M268 583 c27 -5 27 -8 2 -40 -28 -36 -25 -43 18 -43 25 0 33 3 23 9
-8 5 -21 6 -30 3 -11 -4 -7 7 12 30 15 20 27 39 27 42 0 3 -17 5 -37 5 -24 -1
-29 -3 -15 -6z"/>
<path d="M341 568 c-5 -13 -5 -32 -1 -43 8 -22 47 -32 63 -16 15 15 0 26 -16
13 -8 -7 -17 -9 -20 -5 -14 13 -6 23 19 23 21 0 25 4 22 23 -5 33 -55 37 -67
5z m49 -9 c0 -5 -10 -9 -21 -9 -18 0 -19 2 -9 15 12 15 30 12 30 -6z"/>
<path d="M1011 568 c-15 -41 1 -63 48 -64 39 -2 41 0 41 26 0 15 7 33 15 40
13 11 15 7 15 -29 0 -48 17 -56 22 -9 4 46 28 49 28 4 0 -20 5 -36 11 -36 6 0
9 17 7 43 l-3 42 -55 1 c-30 1 -58 -4 -62 -10 -5 -8 -8 -7 -8 2 0 22 -50 14
-59 -10z m72 -30 c3 -10 1 -15 -4 -12 -6 3 -16 1 -24 -6 -19 -16 -42 25 -25
45 14 17 46 1 53 -27z"/>
<path d="M108 155 c-2 -19 0 -41 4 -48 5 -7 8 2 9 23 l1 35 10 -32 c6 -18 15
-33 20 -33 5 0 15 15 23 33 l13 32 5 -35 c3 -30 4 -28 5 13 2 56 -10 61 -30
12 l-14 -35 -13 35 c-16 45 -28 45 -33 0z"/>
<path d="M232 178 c-15 -15 -15 -51 0 -66 15 -15 51 -15 66 0 28 28 7 78 -33
78 -12 0 -26 -5 -33 -12z m57 -17 c13 -24 -9 -57 -33 -48 -23 9 -31 34 -16 52
17 20 37 19 49 -4z"/>
<path d="M334 175 c-8 -20 4 -35 26 -35 10 0 22 -5 25 -10 9 -15 -24 -25 -38
-11 -17 17 -31 13 -17 -5 17 -20 64 -14 68 8 2 12 -8 22 -30 31 -28 13 -30 16
-14 22 11 5 21 3 26 -6 5 -7 12 -10 15 -7 12 12 -6 28 -31 28 -14 0 -27 -7
-30 -15z"/>
<path d="M427 148 c-17 -42 -14 -67 4 -35 12 21 38 22 45 2 4 -8 10 -15 15
-15 4 0 1 20 -9 45 -9 25 -21 45 -28 45 -6 0 -18 -19 -27 -42z m33 7 c0 -8 -4
-15 -10 -15 -5 0 -7 7 -4 15 4 8 8 15 10 15 2 0 4 -7 4 -15z"/>
<path d="M508 153 c5 -59 10 -63 11 -10 1 26 -3 47 -7 47 -4 0 -6 -17 -4 -37z"/>
<path d="M553 183 c-16 -6 -17 -55 -1 -71 7 -7 22 -12 34 -12 24 0 41 16 29
28 -3 3 -10 0 -15 -7 -10 -17 -38 -8 -47 15 -3 8 1 23 10 31 13 14 19 14 32 3
17 -14 31 -8 20 9 -6 11 -40 13 -62 4z"/>
<path d="M678 145 c-3 -44 -3 -45 27 -45 36 0 55 16 55 45 0 29 -19 45 -51 45
-25 0 -27 -4 -31 -45z m61 18 c12 -23 -4 -53 -29 -53 -16 0 -20 7 -20 35 0 28
4 35 20 35 10 0 23 -8 29 -17z"/>
<path d="M780 145 l0 -45 38 2 c36 1 36 1 5 5 -40 5 -44 30 -5 36 l27 4 -27 2
c-40 2 -36 29 5 34 31 4 31 4 -5 5 l-38 2 0 -45z"/>
<path d="M872 148 l-2 -48 33 1 c29 2 29 2 5 6 -24 4 -27 10 -31 46 l-4 42 -1
-47z"/>
<path d="M984 175 c-8 -20 4 -35 26 -35 10 0 22 -5 25 -10 9 -15 -24 -25 -38
-11 -16 16 -27 14 -20 -5 8 -22 67 -15 71 9 2 12 -7 22 -30 31 -28 12 -30 16
-14 22 11 4 21 2 26 -7 5 -7 12 -10 15 -7 12 12 -6 28 -31 28 -14 0 -27 -7
-30 -15z"/>
<path d="M1074 150 c1 -43 2 -45 31 -45 29 0 30 2 32 45 1 42 0 40 -13 -18 -8
-39 -38 -23 -45 23 l-7 40 2 -45z"/>
<path d="M1158 173 c-2 -10 -1 -31 3 -48 5 -24 7 -25 8 -7 1 27 22 29 39 2 7
-11 17 -20 23 -20 8 0 8 4 1 13 -6 7 -10 26 -9 43 2 26 -1 29 -29 32 -24 2
-32 -1 -36 -15z m57 -8 c0 -5 -10 -11 -22 -13 -16 -2 -23 2 -23 13 0 11 7 15
23 13 12 -2 22 -7 22 -13z"/>
<path d="M3004 175 c-17 -12 -17 -14 -2 -15 11 0 18 -10 21 -32 3 -25 4 -22 5
15 1 26 1 47 -1 47 -2 0 -12 -7 -23 -15z"/>
<path d="M3064 176 c-3 -8 -4 -27 -2 -43 2 -22 8 -28 28 -28 36 0 36 46 0 55
-15 4 -20 9 -13 13 6 4 19 4 29 0 12 -4 15 -3 10 5 -10 17 -45 15 -52 -2z m40
-34 c2 -4 1 -14 -4 -22 -7 -11 -12 -12 -21 -3 -6 6 -8 16 -5 22 8 13 23 14 30
3z"/>
<path d="M3142 148 c-12 -47 -8 -64 6 -27 19 51 23 69 14 69 -5 0 -14 -19 -20
-42z"/>
<path d="M3184 177 c-3 -9 -4 -28 -2 -44 2 -22 8 -28 28 -28 23 0 25 4 25 40
0 34 -3 40 -23 43 -13 2 -24 -3 -28 -11z m40 -13 c9 -23 -3 -56 -17 -51 -22 7
-21 67 2 67 5 0 12 -7 15 -16z"/>
<path d="M3267 183 c-4 -3 -7 -15 -7 -25 0 -15 5 -18 19 -13 23 7 38 -12 23
-27 -8 -8 -16 -7 -28 3 -15 12 -17 12 -12 -1 2 -8 16 -15 29 -15 32 0 41 44
10 52 -28 7 -27 21 2 26 20 4 20 4 -4 6 -14 0 -29 -2 -32 -6z"/>
<path d="M3346 163 c-4 -16 -10 -37 -13 -48 -3 -11 -2 -16 3 -12 13 12 33 87
24 87 -4 0 -11 -12 -14 -27z"/>
<path d="M3385 179 c-4 -6 -4 -13 0 -17 4 -4 10 -1 12 6 3 6 9 12 14 12 16 0
10 -26 -11 -45 -28 -26 -25 -35 13 -34 25 1 27 3 9 6 l-24 5 22 23 c13 14 20
31 17 39 -7 18 -42 21 -52 5z"/>
<path d="M3464 177 c-3 -9 -4 -28 -2 -44 2 -22 8 -28 28 -28 23 0 25 4 25 40
0 34 -3 40 -23 43 -13 2 -24 -3 -28 -11z m39 -11 c8 -21 -4 -57 -17 -53 -6 2
-13 11 -14 21 -7 36 19 63 31 32z"/>
<path d="M3554 175 c-17 -12 -17 -14 -2 -15 11 0 18 -10 21 -32 3 -25 4 -22 5
15 1 26 1 47 -1 47 -2 0 -12 -7 -23 -15z"/>
<path d="M3617 184 c-14 -15 -6 -46 13 -51 11 -3 20 -10 20 -15 0 -5 -10 -6
-22 -3 -18 6 -20 4 -12 -5 7 -6 20 -10 30 -8 29 5 27 82 -1 86 -12 2 -24 0
-28 -4z m33 -24 c0 -21 -15 -27 -25 -10 -7 12 2 30 16 30 5 0 9 -9 9 -20z"/>
<path d="M3735 179 c-4 -6 -4 -13 0 -17 3 -3 10 0 15 8 6 10 12 12 20 4 7 -7
3 -17 -15 -34 -33 -31 -32 -40 8 -39 25 1 27 3 9 6 l-24 5 22 23 c13 14 20 31
17 39 -7 18 -42 21 -52 5z"/>
<path d="M3817 184 c-14 -14 -7 -26 8 -14 29 24 38 -4 10 -30 -33 -31 -32 -40
8 -39 27 1 28 2 9 7 l-23 7 21 18 c12 10 20 26 18 35 -3 18 -38 28 -51 16z"/>
<path d="M3924 177 c-3 -9 -4 -28 -2 -44 2 -22 8 -28 28 -28 23 0 25 4 25 40
0 34 -3 40 -23 43 -13 2 -24 -3 -28 -11z m40 -13 c9 -23 -3 -56 -17 -51 -22 7
-21 67 2 67 5 0 12 -7 15 -16z"/>
<path d="M3995 180 c-5 -9 -1 -10 14 -5 12 4 21 2 21 -4 0 -6 -5 -11 -11 -11
-6 0 -3 -7 6 -16 12 -12 13 -20 5 -28 -8 -8 -13 -7 -20 4 -5 8 -12 11 -16 7
-12 -11 12 -29 32 -25 15 3 19 12 19 43 0 33 -4 41 -22 43 -11 2 -24 -2 -28
-8z"/>
</g>
</svg>
